<svg id="Capa_1" enable-background="new 0 0 512 512" height="512" viewBox="0 0 512 512" width="512" xmlns="http://www.w3.org/2000/svg"><path d="m241.945 73.469c-49.236 8.742-83.384-20.262-117.45 27.89-40.484 57.223 31.922 163.245 150.762 135.052 113.087-26.827 138.105-141.152 77.617-181.38-40.5-26.934-67.386 10.706-110.929 18.438z" fill="#ffeca1"/><path d="m259.013 161.194c-.221.183-.441.366-.661.549-2.105 1.759-5.221 1.494-7.003-.591-11.112-13.003-28.021-20.286-45.125-22.583-33.451-4.492-57.207 14.844-83.489 37.415 21.52 42.863 77.849 78.14 152.521 60.426 46.027-10.919 77.463-36.333 94.485-65.346-43.402-13.905-76.615-38.103-110.728-9.87z" fill="#ffdf85"/><path d="m241.945 73.469c13.787-2.448 25.904-7.895 37.312-13.34 7.483 16.459 10.805 41.415-31.969 48.852-39.538 6.874-46.486-14.526-44.965-34.646 12.171 1.021 25.253 1.685 39.622-.866z" fill="#cc624e"/><path d="m281.071 64.56c-1.456 11.529-10.479 22.395-36.289 26.882-26.028 4.525-37.93-3.204-42.593-14.753-.792 19.389 7.1 38.897 45.098 32.291 39.086-6.795 39.681-28.217 33.784-44.42z" fill="#bc574a"/><path d="m375.805 191.257c-49.716-5.377-74.39-42.774-120.564-6.072-54.872 43.616-15.009 165.658 106.973 171.828 116.077 5.872 172.071-96.893 125.248-152.433-31.348-37.186-67.688-8.567-111.657-13.323z" fill="#ffeca1"/><path d="m503.465 241.625c-4.153 36.157-32.654 73.128-79.556 89.253-2.086-27.777-15.696-53.396-41.215-70.473-54.206-36.275-79.048 7.289-129.812 23.845-12.33-16.837-19.499-35.693-21.314-53.782-5.608 52.901 39.677 121.945 130.649 126.546 93.258 4.717 147.718-60.689 141.248-115.389z" fill="#ffdf85"/><path d="m375.806 191.257c13.922 1.506 27.078-.335 39.554-2.373 2.581 17.895-1.209 42.784-44.356 37.961-39.883-4.459-40.569-26.948-33.481-45.84 11.399 4.386 23.774 8.683 38.283 10.252z" fill="#cc624e"/><path d="m373.083 208.539c-25.217-2.819-34.76-12.847-36.58-24.615-5.895 18.223-3.347 38.69 34.5 42.921 40.574 4.536 46.344-17.202 44.742-34.692-4.404 11.025-16.039 19.362-42.662 16.386z" fill="#bc574a"/><path d="m107.505 216.907c43.276-25.055 50.687-69.241 107.77-54.389 67.837 17.651 80.826 145.379-28.201 200.432-103.75 52.388-196.572-18.887-176.26-88.633 13.599-46.698 58.417-35.252 96.691-57.41z" fill="#ffeca1"/><path d="m267.257 234.521c-1.308 16.494-6.197 33.62-15.181 49.925-.023.004-.046.011-.07.015-53.056 9.4-94.497-14.177-124.95 40.084-6.729 11.99-10.314 25.05-10.975 38.474-57.831.318-101.925-35.847-107.48-78.134-6.525 49.672 41.968 96.893 108.303 96.131v.002c.069-.001.137-.005.206-.006 21.836-.283 45.595-5.757 69.962-18.061 60.903-30.753 83.721-84.178 80.185-128.43z" fill="#ffdf85"/><path d="m107.505 216.907c-12.118 7.016-24.892 10.662-37.124 13.853 4.889 17.407 18.436 38.627 55.931 16.74 34.658-20.232 26.175-41.071 12.043-55.473-8.648 8.627-18.221 17.568-30.85 24.88z" fill="#cc624e"/><path d="m140.556 194.381c3.59 11.712-.736 25.09-23.217 38.214-23.138 13.507-37.153 10.595-45.645 2.297 5.842 16.331 20.055 32.783 54.617 12.607 32.813-19.155 26.955-38.853 14.245-53.118z" fill="#bc574a"/><path d="m255.444 301.024c48.511-12.135 67.831-52.559 118.596-22.527 60.329 35.69 37.556 162.041-82.432 184.86-114.179 21.714-183.72-72.413-144.945-133.843 25.961-41.13 65.878-17.758 108.781-28.49z" fill="#ffeca1"/><path d="m291.607 445.356c-87.47 16.635-148.742-34.716-155.188-87.268-7.229 57.902 57.701 123.808 155.188 105.268 82.496-15.689 119.038-80.318 114.212-130.774-4.257 46.768-41.268 98.902-114.212 112.774z" fill="#ffdf85"/><path d="m255.443 301.024c-13.584 3.398-26.868 3.377-39.506 3.067-.105 18.08 7.057 42.216 49.137 31.528 38.896-9.879 36.495-32.25 26.887-49.993-10.691 5.905-22.36 11.856-36.518 15.398z" fill="#cc624e"/><path d="m293.525 288.698c.167 12.206-7.713 23.818-32.866 30.206-26.11 6.631-38.77-.148-44.599-10.565 1.082 17.33 10.161 37.147 49.014 27.279 36.683-9.316 36.634-29.742 28.451-46.92z" fill="#bc574a"/><path d="m493.628 199.641c-23.244-27.572-49.837-23.162-75.553-18.9-13.255 2.198-26.962 4.469-41.257 2.924-1.916-.207-3.792-.467-5.635-.769 6.966-10.032 12.33-20.766 15.998-32.037 1.284-3.947-.874-8.187-4.82-9.471-3.948-1.285-8.187.874-9.471 4.82-3.8 11.677-9.705 22.726-17.571 32.911-7.004-2.145-13.606-4.723-20.092-7.259-25.48-9.963-49.582-19.361-82.575 5.688-9.588-11.123-21.726-18.87-35.589-22.478-42.14-10.96-60.72 7.778-80.39 27.621-.306.309-.614.619-.921.929-18.025-26.417-20.387-57.032-5.401-78.214 19.775-27.952 38.528-26.834 64.177-24.548.361 11.928 4.073 21.188 11.104 27.569 8.459 7.677 20.323 9.537 31.362 9 3.87-.188 7.723-.66 11.538-1.324 19.902-3.46 33.067-11.034 39.131-22.512 4.47-8.463 4.826-18.754 1.132-30.066 21.785-10.418 38.139-17.212 60.076-2.619 18.585 12.36 29.036 33.511 28.676 58.032-.061 4.15 3.253 7.563 7.403 7.624.038.001.075.001.113.001 4.098 0 7.451-3.292 7.511-7.404.438-29.729-12.458-55.522-35.38-70.767-30.027-19.969-54.325-8.3-77.824 2.986-12.111 5.817-24.634 11.831-38.792 14.345-15.606 2.771-29.65 1.515-43.233.299-27.829-2.492-54.114-4.844-79.264 30.703-10.279 14.529-14.448 32.27-12.057 51.303 2.006 15.967 8.483 31.818 18.818 46.219-6.269 5.763-13.152 11.301-21.414 16.085-12.444 7.204-25.895 10.679-38.904 14.039-25.239 6.519-51.338 13.26-61.421 47.884-4.603 15.804-4.077 32.445 1.519 48.123 1.449 4.06 6.178 6.089 10.124 4.343 3.55-1.571 5.334-5.742 4.03-9.395-4.526-12.681-4.956-26.121-1.244-38.869 7.367-25.294 24.247-30.644 47.618-36.722 4.468 11.029 11.374 18.667 20.247 22.255 3.879 1.569 8.058 2.351 12.529 2.351 9.399 0 20.077-3.463 31.899-10.364 16.813-9.816 26.182-21.094 27.848-33.524 1.261-9.411-1.869-18.883-9.282-28.234 18.138-18.283 31.752-31.226 64.887-22.602 17.213 4.478 31.194 17.313 39.367 36.141 11.475 26.435 9.437 60.367-5.192 89.36-11.877 2.081-23.667 1.773-35.128 1.463-26.058-.703-53.004-1.427-72.253 29.069-8.868 14.048-12.947 30.343-11.796 47.122.007.098.018.196.025.293-37.949 3.721-74.097-9.046-95.641-34.175-2.701-3.152-7.445-3.516-10.596-.813-3.151 2.701-3.515 7.445-.814 10.595 21.939 25.589 56.722 40.055 94.184 40.055 5.049 0 10.15-.284 15.272-.817 2.737 10.859 7.573 21.517 14.315 31.417 13.636 20.025 33.787 35.628 58.275 45.125 17.111 6.636 35.898 9.986 55.501 9.986 11.205 0 22.679-1.095 34.255-3.296 20.38-3.876 38.999-10.807 55.339-20.601 3.559-2.133 4.716-6.748 2.582-10.308-2.134-3.561-6.749-4.716-10.309-2.582-14.818 8.881-31.783 15.182-50.42 18.726-29.06 5.527-57.248 3.474-81.514-5.936-21.638-8.392-39.373-22.075-51.288-39.572-17.35-25.478-19.093-54.337-4.663-77.199 14.062-22.279 31.764-22.762 55.905-22.152 1.25 11.834 5.779 21.082 13.317 26.98 6.313 4.94 14.488 7.415 24.429 7.415 6.158 0 12.996-.95 20.485-2.852 18.87-4.793 30.989-13.049 36.021-24.535 3.809-8.697 3.415-18.664-1.128-29.698 22.479-12.565 39.137-21.248 68.606-3.814 15.658 9.263 25.609 25.903 28.021 46.855 3.518 30.56-9.854 64.431-34.897 88.394-2.998 2.87-3.103 7.626-.234 10.625 2.87 2.998 7.627 3.104 10.624.234 20.754-19.859 34.205-45.01 38.566-70.859 45.04-10.901 80.868-40.945 94.199-79.394 10.262-29.602 5.5-59.206-13.065-81.228zm-250.422-119.121c11.663-2.071 22.224-6.162 31.865-10.516 1.523 5.463 1.977 11.508-.696 16.567-3.724 7.05-13.55 12.141-28.417 14.725-14.381 2.5-24.549 1.156-30.225-3.998-3.608-3.275-5.654-8.384-6.117-15.236 10.327.608 21.525.6 33.59-1.542zm-100.428 137.936c-1.018 7.599-7.925 15.182-20.53 22.54-13.031 7.608-23.825 10.048-31.217 7.06-5.304-2.146-8.855-7.06-11.212-12.218 10.177-2.885 20.888-6.566 31.139-12.502 10.605-6.139 19.171-13.351 26.674-20.473 4.064 5.538 5.793 10.763 5.146 15.593zm265.958-21.033c-.065 5.671-1.321 11.601-5.301 15.711-5.547 5.726-16.405 7.866-31.401 6.192-14.504-1.622-23.892-5.758-27.901-12.293-2.548-4.154-3.084-9.631-1.612-16.339 9.745 3.471 20.498 6.596 32.681 7.913 11.777 1.276 23.061.302 33.534-1.184zm-119.565 115.07c-3.076 7.023-11.809 12.406-25.954 15.998-14.625 3.715-25.674 3.081-31.953-1.832-4.506-3.526-6.562-9.229-7.403-14.837 10.578.036 21.889-.545 33.38-3.42 11.888-2.973 22.112-7.54 31.289-12.314 2.376 6.444 2.596 11.943.641 16.405zm203.323-36.551c-11.168 32.211-40.778 57.758-78.486 68.384.103-4.743-.102-9.479-.643-14.178-2.962-25.735-15.498-46.358-35.299-58.072-37.477-22.171-60.509-9.286-84.891 4.357-8.443 4.725-17.097 9.557-26.9 13.344 11.732-30.148 11.974-62.782.156-90.005-1.518-3.497-3.209-6.824-5.057-9.979 25.975-19.906 43.457-13.67 66.998-4.475-2.989 11.552-2.014 21.481 2.951 29.574 6.558 10.689 19.694 17.207 39.042 19.369 3.868.432 7.536.649 11.007.649 14.541-.001 25.567-3.79 32.859-11.318 6.658-6.874 9.878-16.655 9.496-28.549 23.83-3.909 41.431-5.856 58.411 14.286 15.063 17.868 18.839 42.148 10.356 66.613z"/></svg>