<svg height="512pt" viewBox="0 -18 512.00005 512" width="512pt" xmlns="http://www.w3.org/2000/svg"><path d="m270.453125 148.09375c0 44.222656-35.851563 80.074219-80.074219 80.074219s-80.070312-35.851563-80.070312-80.074219 35.847656-63.277344 80.070312-63.277344 80.074219 19.054688 80.074219 63.277344zm0 0" fill="#ff6930"/><path d="m231.105469 91.527344c3.511719 7.625 5.460937 16.511718 5.460937 26.765625 0 44.222656-35.847656 80.074219-80.074218 80.074219-12.070313 0-23.507813-2.6875-33.769532-7.46875 14.195313 22.390624 39.179688 37.269531 67.65625 37.269531 44.222656 0 80.074219-35.851563 80.074219-80.074219 0-29.347656-15.800781-47.601562-39.347656-56.566406zm0 0" fill="#ff5426"/><path d="m187.890625 202.238281c0 44.222657-35.851563 80.074219-80.074219 80.074219s-80.074218-35.851562-80.074218-80.074219c0-44.222656 35.851562-63.277343 80.074218-63.277343s80.074219 19.054687 80.074219 63.277343zm0 0" fill="#ff6930"/><path d="m148.539062 145.671875c3.515626 7.625 5.464844 16.511719 5.464844 26.765625 0 44.226562-35.851562 80.074219-80.074218 80.074219-12.070313 0-23.507813-2.6875-33.773438-7.46875 14.199219 22.390625 39.183594 37.269531 67.660156 37.269531 44.222656 0 80.074219-35.851562 80.074219-80.074219 0-29.351562-15.800781-47.601562-39.351563-56.566406zm0 0" fill="#ff5426"/><path d="m57.851562 239.871094h391.71875v186.84375h-391.71875zm0 0" fill="#f66700"/><path d="m432.082031 157.792969c24.71875 21.132812 27.621094 58.304687 6.484375 83.023437-13.570312 15.867188-112.550781 94.28125-176.894531 142.789063-15.097656 11.378906-35.097656-5.722657-26.199219-22.402344 37.925782-71.09375 100.015625-181.054687 113.585938-196.925781 21.132812-24.71875 58.304687-27.621094 83.023437-6.484375zm0 0" fill="#ff9838"/><path d="m367.4375 149.882812c7.277344 2.316407 14.222656 6.09375 20.390625 11.367188 24.71875 21.136719 27.621094 58.308594 6.484375 83.023438-12.4375 14.550781-97.722656 82.90625-160.296875 130.253906 3.257813 10.636718 16.738281 17.308594 27.660156 9.078125 64.339844-48.507813 163.324219-126.917969 176.890625-142.789063 21.136719-24.71875 18.234375-61.886718-6.484375-83.023437-18.550781-15.859375-44.109375-18.183594-64.644531-7.910157zm0 0" fill="#ff8709"/><path d="m415.164062 86.03125c20.601563 25.164062 16.902344 62.261719-8.261718 82.863281-16.15625 13.226563-127.421875 72.949219-199.308594 109.34375-16.867188 8.539063-33.539062-11.824219-21.835938-26.675781 49.871094-63.285156 130.386719-160.570312 146.542969-173.796875 25.164063-20.597656 62.261719-16.898437 82.863281 8.265625zm0 0" fill="#ff9838"/><path d="m352.929688 66.839844c6.753906 3.5625 12.925781 8.503906 18.066406 14.785156 20.601562 25.164062 16.902344 62.265625-8.261719 82.867188-14.8125 12.125-110.820313 64.363281-180.765625 99.933593 1.332031 11.042969 13.421875 19.988281 25.625 13.8125 71.886719-36.394531 183.152344-96.117187 199.308594-109.34375 25.164062-20.597656 28.863281-57.699219 8.261718-82.863281-15.457031-18.886719-40.210937-25.679688-62.234374-19.191406zm0 0" fill="#ff8709"/><path d="m76.597656 468.882812h-59.109375c-5.519531 0-9.992187-4.472656-9.992187-9.992187v-250.390625c0-5.519531 4.472656-9.992188 9.992187-9.992188h59.109375zm0 0" fill="#865b47"/><path d="m47.859375 198.507812h28.738281v270.375h-28.738281zm0 0" fill="#704c3b"/><path d="m489.9375 468.882812h-59.109375v-270.375h59.109375c5.519531 0 9.992188 4.472657 9.992188 9.992188v250.390625c0 5.519531-4.472657 9.992187-9.992188 9.992187zm0 0" fill="#865b47"/><path d="m489.9375 198.507812h-19.589844v270.375h19.589844c5.519531 0 9.992188-4.472656 9.992188-9.992187v-250.390625c0-5.519531-4.472657-9.992188-9.992188-9.992188zm0 0" fill="#704c3b"/><path d="m499.929688 271.976562h-492.433594v-63.476562c0-5.519531 4.472656-9.992188 9.992187-9.992188h472.449219c5.519531 0 9.992188 4.472657 9.992188 9.992188zm0 0" fill="#ad7b64"/><path d="m7.496094 296.960938h492.433594v73.46875h-492.433594zm0 0" fill="#ad7b64"/><path d="m489.9375 468.882812h-472.449219c-5.519531 0-9.996093-4.472656-9.996093-9.992187v-63.476563h492.4375v63.476563c0 5.519531-4.472657 9.992187-9.992188 9.992187zm0 0" fill="#ad7b64"/><path d="m489.9375 198.507812h-19.589844v39.515626c0 5.519531-4.476562 9.992187-9.992187 9.992187h-452.859375v23.964844h492.433594v-63.476563c0-5.523437-4.472657-9.996094-9.992188-9.996094zm0 0" fill="#865b47"/><path d="m470.347656 296.960938v39.515624c0 5.519532-4.476562 9.992188-9.996094 9.992188h-452.855468v23.960938h492.433594v-73.46875zm0 0" fill="#865b47"/><path d="m470.347656 395.414062v39.515626c0 5.519531-4.476562 9.992187-9.996094 9.992187h-452.855468v13.96875c0 5.519531 4.472656 9.992187 9.992187 9.992187h472.449219c5.519531 0 9.992188-4.472656 9.992188-9.992187v-63.476563zm0 0" fill="#865b47"/><g fill="#704c3b"><path d="m52.855469 232.542969c0 6.070312-4.921875 10.992187-10.992188 10.992187-6.070312 0-10.992187-4.921875-10.992187-10.992187 0-6.074219 4.921875-10.992188 10.992187-10.992188 6.070313 0 10.992188 4.917969 10.992188 10.992188zm0 0"/><path d="m52.855469 332.035156c0 6.070313-4.921875 10.992188-10.992188 10.992188-6.070312 0-10.992187-4.921875-10.992187-10.992188 0-6.070312 4.921875-10.992187 10.992187-10.992187 6.070313 0 10.992188 4.921875 10.992188 10.992187zm0 0"/><path d="m52.855469 430.53125c0 6.070312-4.921875 10.988281-10.992188 10.988281-6.070312 0-10.992187-4.917969-10.992187-10.988281 0-6.074219 4.921875-10.992188 10.992187-10.992188 6.070313 0 10.992188 4.917969 10.992188 10.992188zm0 0"/><path d="m475.371094 232.542969c0 6.070312-4.921875 10.992187-10.992188 10.992187-6.070312 0-10.992187-4.921875-10.992187-10.992187 0-6.074219 4.921875-10.992188 10.992187-10.992188 6.070313 0 10.992188 4.917969 10.992188 10.992188zm0 0"/><path d="m475.371094 332.035156c0 6.070313-4.921875 10.992188-10.992188 10.992188-6.070312 0-10.992187-4.921875-10.992187-10.992188 0-6.070312 4.921875-10.992187 10.992187-10.992187 6.070313 0 10.992188 4.921875 10.992188 10.992187zm0 0"/><path d="m475.371094 430.53125c0 6.070312-4.921875 10.988281-10.992188 10.988281-6.070312 0-10.992187-4.917969-10.992187-10.988281 0-6.074219 4.921875-10.992188 10.992187-10.992188 6.070313 0 10.992188 4.917969 10.992188 10.992188zm0 0"/></g><path d="m502.671875 42.144531c-9.921875.957031-25.96875 3.539063-42.597656 10.46875-1.03125.429688-1.980469-.742187-1.347657-1.660156 10.234376-14.828125 16.09375-29.988281 19.089844-39.496094 1.113282-3.527343-2.847656-6.484375-5.90625-4.398437-7.667968 5.230468-19.320312 14.261718-29.96875 26.863281-.777344.914063-2.246094.15625-1.941406-1.003906 2.035156-7.738281 3.199219-14.617188 3.863281-19.8125.464844-3.671875-3.964843-5.851563-6.605469-3.257813-7.675781 7.550782-19.714843 21.070313-28.523437 38.839844-6.863281 13.84375-10.488281 27.683594-12.394531 38.175781-1.8125 9.941407 5.691406 19.136719 15.796875 19.328125 11.191406.214844 26.101562-.484375 40.1875-4.257812 19.15625-5.125 34.785156-14.253906 43.703125-20.289063 3.0625-2.074219 1.796875-6.851562-1.890625-7.117187-5.128907-.367188-11.9375-.582032-19.734375-.148438-1.199219.066406-1.648438-1.53125-.59375-2.105468 14.265625-7.742188 25.3125-17.101563 31.9375-23.4375 2.671875-2.554688.605468-7.046876-3.074219-6.691407zm0 0" fill="#43cd8e"/><path d="m473.808594 72.273438c14.265625-7.742188 25.3125-17.101563 31.9375-23.4375 2.671875-2.554688.605468-7.046876-3.074219-6.691407-6.441406.621094-15.46875 1.9375-25.558594 4.671875.996094 1.460938 1.023438 3.558594-.507812 5.019532-6.621094 6.335937-17.671875 15.699218-31.9375 23.441406-1.054688.570312-.605469 2.167968.59375 2.101562 7.796875-.433594 14.605469-.21875 19.734375.148438 3.691406.265625 4.953125 5.046875 1.890625 7.117187-8.917969 6.035157-24.546875 15.167969-43.699219 20.292969-1.761719.472656-3.539062.894531-5.320312 1.273438 10.289062-.117188 22.65625-1.117188 34.457031-4.273438 19.15625-5.125 34.785156-14.257812 43.703125-20.292969 3.0625-2.070312 1.796875-6.851562-1.890625-7.117187-5.128907-.367188-11.9375-.582032-19.734375-.148438-1.203125.066406-1.648438-1.53125-.59375-2.105468zm0 0" fill="#00c37a"/><path d="m200.632812 112.3125c0 6.167969-5 11.164062-11.164062 11.164062-6.167969 0-11.164062-4.996093-11.164062-11.164062 0-6.164062 4.996093-11.160156 11.164062-11.160156 6.164062 0 11.164062 4.996094 11.164062 11.160156zm0 0"/><path d="m118.46875 165.6875c0 6.167969-5 11.164062-11.164062 11.164062-6.167969 0-11.164063-4.996093-11.164063-11.164062 0-6.164062 4.996094-11.164062 11.164063-11.164062 6.164062 0 11.164062 5 11.164062 11.164062zm0 0"/><path d="m41.667969 214.164062c-10.148438 0-18.402344 8.253907-18.402344 18.402344 0 10.144532 8.253906 18.402344 18.402344 18.402344 10.148437 0 18.402343-8.257812 18.402343-18.402344 0-10.148437-8.253906-18.402344-18.402343-18.402344zm0 21.875c-1.914063 0-3.476563-1.558593-3.476563-3.472656 0-1.917968 1.5625-3.476562 3.476563-3.476562 1.917969 0 3.476562 1.5625 3.476562 3.476562 0 1.914063-1.558593 3.472656-3.476562 3.472656zm0 0"/><path d="m41.667969 313.175781c-10.148438 0-18.402344 8.257813-18.402344 18.402344 0 10.148437 8.253906 18.402344 18.402344 18.402344 10.148437 0 18.402343-8.253907 18.402343-18.402344 0-10.144531-8.253906-18.402344-18.402343-18.402344zm0 21.878907c-1.914063 0-3.476563-1.558594-3.476563-3.472657 0-1.917969 1.5625-3.476562 3.476563-3.476562 1.917969 0 3.476562 1.558593 3.476562 3.476562 0 1.914063-1.558593 3.472657-3.476562 3.472657zm0 0"/><path d="m41.667969 448.003906c10.148437 0 18.402343-8.257812 18.402343-18.402344 0-10.148437-8.253906-18.402343-18.402343-18.402343-10.148438 0-18.402344 8.253906-18.402344 18.402343 0 10.144532 8.253906 18.402344 18.402344 18.402344zm0-21.878906c1.917969 0 3.476562 1.558594 3.476562 3.472656 0 1.917969-1.558593 3.476563-3.476562 3.476563-1.914063 0-3.476563-1.558594-3.476563-3.476563 0-1.914062 1.5625-3.472656 3.476563-3.472656zm0 0"/><path d="m462.148438 250.96875c10.148437 0 18.402343-8.253906 18.402343-18.402344 0-10.148437-8.253906-18.402344-18.402343-18.402344-10.148438 0-18.402344 8.253907-18.402344 18.402344 0 10.148438 8.253906 18.402344 18.402344 18.402344zm0-21.878906c1.917968 0 3.472656 1.558594 3.472656 3.476562 0 1.914063-1.558594 3.472656-3.472656 3.472656-1.917969 0-3.476563-1.558593-3.476563-3.472656 0-1.917968 1.558594-3.476562 3.476563-3.476562zm0 0"/><path d="m462.148438 349.980469c10.148437 0 18.402343-8.253907 18.402343-18.402344 0-10.144531-8.253906-18.402344-18.402343-18.402344-10.148438 0-18.402344 8.257813-18.402344 18.402344 0 10.148437 8.253906 18.402344 18.402344 18.402344zm0-21.875c1.917968 0 3.472656 1.558593 3.472656 3.472656 0 1.917969-1.558594 3.476563-3.472656 3.476563-1.917969 0-3.476563-1.558594-3.476563-3.476563 0-1.914063 1.558594-3.472656 3.476563-3.472656zm0 0"/><path d="m462.148438 448.003906c10.148437 0 18.402343-8.257812 18.402343-18.402344 0-10.148437-8.253906-18.402343-18.402343-18.402343-10.148438 0-18.402344 8.253906-18.402344 18.402343 0 10.144532 8.253906 18.402344 18.402344 18.402344zm0-21.878906c1.917968 0 3.472656 1.558594 3.472656 3.472656 0 1.917969-1.558594 3.476563-3.472656 3.476563-1.917969 0-3.476563-1.558594-3.476563-3.476563 0-1.914062 1.558594-3.472656 3.476563-3.472656zm0 0"/><path d="m337.523438 130.339844 15.34375-4.109375c3.980468-1.066407 6.339843-5.15625 5.273437-9.136719-1.066406-3.976562-5.152344-6.34375-9.136719-5.269531l-2.863281.765625.765625-2.867188c1.066406-3.976562-1.292969-8.066406-5.273438-9.132812-3.976562-1.070313-8.066406 1.292968-9.132812 5.273437l-4.113281 15.34375c-.6875 2.574219.046875 5.320313 1.929687 7.203125 1.417969 1.417969 3.324219 2.183594 5.277344 2.183594.644531 0 1.292969-.082031 1.929688-.253906zm0 0"/><path d="m352.195312 157.273438-2.863281.765624.765625-2.863281c1.066406-3.980469-1.292968-8.070312-5.273437-9.136719-3.980469-1.070312-8.066407 1.296876-9.132813 5.273438l-4.113281 15.347656c-.6875 2.570313.046875 5.316406 1.929687 7.203125 1.417969 1.417969 3.324219 2.183594 5.273438 2.183594.644531 0 1.292969-.082031 1.933594-.253906l15.34375-4.113281c3.976562-1.0625 6.339844-5.152344 5.273437-9.132813-1.066406-3.976563-5.15625-6.34375-9.136719-5.273437zm0 0"/><path d="m510.945312 42.226562c-2.046874-4.460937-6.539062-7.035156-11.40625-6.570312-7.203124.695312-16.921874 2.144531-27.679687 5.140625 5.167969-9.898437 8.605469-19.105469 10.78125-26.003906 1.472656-4.683594-.117187-9.597657-4.058594-12.527344-3.933593-2.921875-9.09375-3.027344-13.140625-.261719-4.507812 3.070313-10.203125 7.308594-16.261718 12.691406.425781-4.699218-1.992188-9.042968-6.253907-11.152343-4.394531-2.179688-9.5-1.363281-13 2.078125-8.621093 8.480468-20.800781 22.417968-29.84375 40.660156-2.617187 5.277344-4.90625 10.832031-6.894531 16.597656-22.230469-9.210937-48.242188-5.648437-67.214844 9.882813-7.71875 6.320312-27.84375 29.089843-51.5625 57.15625-3.765625-14.949219-12.296875-27.253907-25.175781-36.097657-14.988281-10.289062-35.65625-15.730468-59.765625-15.730468-46.632812 0-78.023438 20.015625-85.441406 53.917968-14.953125.308594-28.429688 2.71875-40.09375 7.1875-3.847656 1.472657-5.773438 5.789063-4.296875 9.640626 1.472656 3.847656 5.789062 5.773437 9.636719 4.296874 10.800781-4.132812 23.59375-6.230468 38.03125-6.230468 19.65625 0 64.273437 4.488281 71.28125 44.328125h-142.558594c1.542968-8.730469 4.976562-16.292969 10.273437-22.546875 2.664063-3.144532 2.277344-7.855469-.871093-10.519532-3.144532-2.664062-7.855469-2.273437-10.519532.871094-7.582031 8.953125-12.269531 19.761719-13.996094 32.199219h-3.503906c-9.601562 0-17.410156 7.808594-17.410156 17.40625v249.183594c0 9.597656 7.808594 17.40625 17.40625 17.40625h470.175781c9.597657 0 17.410157-7.808594 17.410157-17.40625v-249.183594c0-9.597656-7.8125-17.40625-17.410157-17.40625h-30.597656c-2.632813-15.078125-10.347656-28.65625-22.128906-38.730469-1.78125-1.519531-3.648438-2.933594-5.570313-4.257812 4.351563-10.953125 5.726563-23.007813 3.761719-34.964844 6.191406-.691406 12.679687-1.78125 19.035156-3.484375 19.65625-5.257813 35.722657-14.441406 45.742188-21.21875 4.066406-2.753906 5.875-7.597656 4.605469-12.339844-1.183594-4.417969-4.726563-7.574219-9.164063-8.261719 6.265625-4.664062 11.394531-9.191406 15.207031-12.835937 3.542969-3.386719 4.511719-8.457031 2.472656-12.914063zm-391.664062 90.222657c9.703125-35.398438 51.660156-39.429688 70.1875-39.429688 21.042969 0 69.90625 5.117188 72.136719 52.148438-12.515625 14.984375-25.550781 30.820312-37.964844 46.066406h-29.960937c-4.761719-34.128906-31.878907-55.464844-74.398438-58.785156zm-104.351562 244.804687h53.839843v9.933594h-53.839843zm68.769531 0h337.59375v9.933594h-337.59375zm352.523437 0h53.839844v9.933594h-53.839844zm53.839844-88.042968h-53.839844v-9.933594h53.839844zm-68.769531 0h-59.199219c-4.121094 0-7.464844 3.339843-7.464844 7.464843 0 4.121094 3.34375 7.464844 7.464844 7.464844h127.96875v58.1875h-475.132812v-58.1875h313.207031c4.121093 0 7.464843-3.34375 7.464843-7.464844 0-4.125-3.34375-7.464843-7.464843-7.464843h-244.4375v-9.933594h337.59375zm-352.523438 0h-53.839843v-9.933594h53.839843zm421.292969 168.613281c0 1.367187-1.113281 2.480469-2.480469 2.480469h-470.175781c-1.367188 0-2.480469-1.113282-2.480469-2.480469v-55.707031h475.136719zm0-249.183594v55.707031h-475.132812v-55.707031c0-1.367187 1.109374-2.480469 2.480468-2.480469h338.707032c.003906 0 .007812.003906.015624.003906.003907 0 .007813-.003906.015626-.003906h131.4375c1.363281 0 2.476562 1.113282 2.476562 2.480469zm-64.910156-44.792969c8.441406 7.21875 14.183594 16.753906 16.609375 27.386719h-57.507813c13.082032-7.667969 21.601563-13.105469 25.421875-16.230469 4.859375-3.980468 9.035157-8.539062 12.488281-13.511718 1.023438.753906 2.023438 1.53125 2.988282 2.355468zm-24.933594-.394531c-2.855469 2.335937-12.652344 9.050781-46.046875 27.78125h-111.265625c46.554688-56.910156 83.167969-99.261719 92.527344-106.921875 15.121094-12.378906 36.023437-14.9375 53.554687-6.988281-.703125 2.933593-1.347656 5.902343-1.898437 8.929687-1.25 6.878906.566406 13.921875 4.988281 19.328125 4.417969 5.398438 10.957031 8.570313 17.9375 8.707031 1.152344.019532 2.363281.03125 3.628906.03125 1.410157 0 2.894531-.015624 4.425781-.050781 3.53125 18.324219-3.148437 37.148438-17.851562 49.183594zm67.75-96.941406c-3.558594 1.929687-5.269531 5.996093-4.164062 9.886719 1.105468 3.886718 4.710937 6.449218 8.726562 6.21875 2.320312-.128907 4.644531-.203126 6.960938-.226563-8.429688 4.777344-19.105469 9.730469-31.269532 12.988281-13.566406 3.628906-28.109375 4.167969-37.921875 3.984375-2.636719-.050781-5.003906-1.199219-6.667969-3.234375-1.671874-2.042968-2.332031-4.601562-1.855468-7.203125 1.632812-8.980469 4.988281-22.515625 11.675781-36.011719 5.601563-11.292968 12.570313-20.78125 18.914063-28.101562-.503907 2.40625-1.070313 4.808594-1.699219 7.191406-1.027344 3.902344.75 7.929688 4.328125 9.792969 3.582031 1.863281 7.90625 1.011719 10.519531-2.074219 6.308594-7.464844 12.984375-13.601562 18.910156-18.386718-3.21875 7.933593-7.765625 17.171874-14.050781 26.28125-2.179688 3.160156-2.019531 7.285156.394531 10.261718 2.414063 2.984375 6.421875 3.992188 9.960938 2.515625 10.214843-4.253906 20.195312-6.78125 28.625-8.28125-5.785157 4.703125-13 9.847657-21.386719 14.398438zm0 0"/></svg>