<svg height="512pt" viewBox="-9 0 512 512" width="512pt" xmlns="http://www.w3.org/2000/svg"><path d="m469.332031 162.132812v160.34375l-193.789062 138.324219h-173.144531l-93.863282-93.867187v-204.800782zm0 0" fill="#9e9e9e"/><path d="m443.734375 162.132812v160.34375l-193.792969 138.324219h-147.542968l-93.863282-93.867187v-204.800782zm0 0" fill="#f5f5f5"/><path d="m486.398438 384c-.019532 64.265625-50.882813 117-115.105469 119.34375-64.222657 2.347656-118.792969-46.535156-123.503907-110.628906-4.710937-64.09375 42.125-120.429688 106.003907-127.5 4.351562-.425782 8.703125-.679688 13.140625-.679688 65.972656.011719 119.453125 53.492188 119.464844 119.464844zm0 0" fill="#0377bc"/><path d="m460.800781 384c-.007812 60.898438-45.800781 112.058594-106.324219 118.785156-60.695312-6.367187-106.832031-57.453125-107.007812-118.480468-.175781-61.023438 45.667969-112.371094 106.324219-119.089844 60.8125 6.371094 106.996093 57.636718 107.007812 118.785156zm0 0" fill="#02a9f4"/><path d="m475.734375 334.675781h-6.316406l4.949219-2.8125c.511718.9375.941406 1.875 1.367187 2.8125zm0 0" fill="#b0d3f0"/><path d="m469.332031 76.800781v85.332031h-460.796875v-85.332031c-.003906-9.054687 3.589844-17.738281 9.992188-24.140625s15.085937-9.996094 24.140625-9.992187h392.53125c9.054687-.003907 17.738281 3.589843 24.140625 9.992187s9.996094 15.085938 9.992187 24.140625zm0 0" fill="#c52828"/><path d="m443.734375 76.800781v85.332031h-435.199219v-85.332031c-.003906-9.054687 3.589844-17.738281 9.992188-24.140625s15.085937-9.996094 24.140625-9.992187h366.933593c9.050782-.003907 17.734376 3.589843 24.136719 9.992187 6.402344 6.402344 9.996094 15.085938 9.996094 24.140625zm0 0" fill="#f44335"/><path d="m102.398438 460.800781h-59.730469c-9.054688 0-17.738281-3.59375-24.140625-9.996093-6.402344-6.402344-9.996094-15.085938-9.992188-24.136719v-59.734375zm0 0" fill="#9e9e9e"/><path d="m426.667969 102.398438c0 14.140624-11.460938 25.601562-25.601563 25.601562-14.136718 0-25.601562-11.460938-25.601562-25.601562 0-14.136719 11.464844-25.597657 25.601562-25.597657 14.140625 0 25.601563 11.460938 25.601563 25.597657zm0 0" fill="#424242"/><path d="m264.535156 102.398438c0 14.140624-11.464844 25.601562-25.601562 25.601562-14.140625 0-25.601563-11.460938-25.601563-25.601562 0-14.136719 11.460938-25.597657 25.601563-25.597657 14.136718 0 25.601562 11.460938 25.601562 25.597657zm0 0" fill="#424242"/><path d="m102.398438 102.398438c0 14.140624-11.460938 25.601562-25.597657 25.601562-14.140625 0-25.601562-11.460938-25.601562-25.601562 0-14.136719 11.460937-25.597657 25.601562-25.597657 14.136719 0 25.597657 11.460938 25.597657 25.597657zm0 0" fill="#424242"/><g fill="#5e5f62"><path d="m76.800781 102.398438c-2.265625.003906-4.4375-.894532-6.035156-2.496094-1.601563-1.601563-2.5-3.773438-2.5-6.035156v-85.332032c0-4.714844 3.820313-8.535156 8.535156-8.535156 4.710938 0 8.53125 3.820312 8.53125 8.535156v85.332032c.003907 2.261718-.894531 4.433593-2.496093 6.035156-1.601563 1.601562-3.773438 2.5-6.035157 2.496094zm0 0"/><path d="m238.933594 102.398438c-2.265625.003906-4.433594-.894532-6.035156-2.496094-1.601563-1.601563-2.5-3.773438-2.5-6.035156v-85.332032c0-4.714844 3.820312-8.535156 8.535156-8.535156 4.710937 0 8.53125 3.820312 8.53125 8.535156v85.332032c.003906 2.261718-.894532 4.433593-2.496094 6.035156-1.601562 1.601562-3.773438 2.5-6.035156 2.496094zm0 0"/><path d="m401.066406 102.398438c-2.261718.003906-4.433594-.894532-6.035156-2.496094-1.601562-1.601563-2.5-3.773438-2.496094-6.035156v-85.332032c0-4.714844 3.820313-8.535156 8.53125-8.535156 4.714844 0 8.535156 3.820312 8.535156 8.535156v85.332032c0 2.261718-.898437 4.433593-2.5 6.035156-1.601562 1.601562-3.769531 2.5-6.035156 2.496094zm0 0"/><path d="m128 418.132812c-2.261719 0-4.433594-.898437-6.035156-2.496093-1.601563-1.601563-2.5-3.773438-2.5-6.035157v-204.800781c0-4.714843 3.824218-8.535156 8.535156-8.535156s8.535156 3.820313 8.535156 8.535156v204.800781c0 2.261719-.898437 4.433594-2.5 6.035157-1.601562 1.597656-3.773437 2.496093-6.035156 2.496093zm0 0"/><path d="m204.800781 418.132812c-2.265625 0-4.4375-.898437-6.035156-2.496093-1.601563-1.601563-2.5-3.773438-2.5-6.035157v-204.800781c0-4.714843 3.820313-8.535156 8.535156-8.535156 4.710938 0 8.53125 3.820313 8.53125 8.535156v204.800781c.003907 2.261719-.894531 4.433594-2.496093 6.035157-1.601563 1.597656-3.773438 2.496093-6.035157 2.496093zm0 0"/><path d="m281.601562 308.992188c-2.265624 0-4.4375-.898438-6.035156-2.5-1.601562-1.597657-2.5-3.769532-2.5-6.035157v-95.65625c0-4.714843 3.820313-8.535156 8.535156-8.535156 4.710938 0 8.53125 3.820313 8.53125 8.535156v95.65625c0 2.265625-.898437 4.4375-2.496093 6.035157-1.601563 1.601562-3.773438 2.5-6.035157 2.5zm0 0"/><path d="m358.398438 273.40625c-2.261719.003906-4.433594-.894531-6.035157-2.496094-1.597656-1.601562-2.496093-3.773437-2.496093-6.035156v-60.074219c0-4.714843 3.820312-8.535156 8.53125-8.535156 4.714843 0 8.535156 3.820313 8.535156 8.535156v60.074219c0 2.261719-.898438 4.433594-2.5 6.035156-1.597656 1.601563-3.769532 2.5-6.035156 2.496094zm0 0"/><path d="m281.601562 281.601562h-230.402343c-4.710938 0-8.53125-3.820312-8.53125-8.535156 0-4.710937 3.820312-8.53125 8.53125-8.53125h230.402343c4.710938 0 8.53125 3.820313 8.53125 8.53125 0 4.714844-3.820312 8.535156-8.53125 8.535156zm0 0"/><path d="m255.398438 349.867188h-204.199219c-4.710938 0-8.53125-3.820313-8.53125-8.535157 0-4.710937 3.820312-8.53125 8.53125-8.53125h204.199219c4.714843 0 8.535156 3.820313 8.535156 8.53125 0 4.714844-3.820313 8.535157-8.535156 8.535157zm0 0"/></g><path d="m366.933594 290.132812c-2.265625 0-4.433594-.898437-6.035156-2.496093-1.601563-1.601563-2.5-3.773438-2.5-6.035157v-17.066406c0-4.714844 3.820312-8.535156 8.535156-8.535156 4.710937 0 8.53125 3.820312 8.53125 8.535156v17.066406c.003906 2.261719-.894532 4.433594-2.496094 6.035157-1.601562 1.597656-3.773438 2.496093-6.035156 2.496093zm0 0" fill="#a5a5a4"/><path d="m366.933594 512c-2.265625 0-4.433594-.898438-6.035156-2.496094-1.601563-1.601562-2.5-3.773437-2.5-6.039062v-17.066406c0-4.710938 3.820312-8.53125 8.535156-8.53125 4.710937 0 8.53125 3.820312 8.53125 8.53125v17.066406c.003906 2.265625-.894532 4.4375-2.496094 6.039062-1.601562 1.597656-3.773438 2.496094-6.035156 2.496094zm0 0" fill="#5e5f62"/><path d="m315.742188 303.851562c-3.054688.003907-5.875-1.625-7.398438-4.269531l-8.535156-14.773437c-1.527344-2.640625-1.527344-5.894532-.003906-8.539063 1.527343-2.640625 4.34375-4.265625 7.394531-4.265625s5.867187 1.628906 7.394531 4.269532l8.53125 14.777343c1.523438 2.636719 1.523438 5.890625.003906 8.53125-1.523437 2.640625-4.339844 4.265625-7.386718 4.269531zm0 0" fill="#a5a5a4"/><path d="m426.675781 495.992188c-3.054687.003906-5.875-1.621094-7.402343-4.265626l-8.53125-14.777343c-2.355469-4.082031-.953126-9.296875 3.125-11.652344 4.082031-2.355469 9.300781-.960937 11.65625 3.121094l8.535156 14.773437c1.523437 2.640625 1.523437 5.890625.003906 8.53125-1.523438 2.640625-4.339844 4.265625-7.386719 4.269532zm0 0" fill="#5e5f62"/><path d="m278.242188 341.332031c-1.496094.003907-2.964844-.390625-4.257813-1.140625l-14.777344-8.53125c-2.640625-1.523437-4.269531-4.34375-4.269531-7.394531s1.625-5.867187 4.265625-7.394531c2.644531-1.523438 5.898437-1.523438 8.539063.003906l14.773437 8.535156c3.347656 1.929688 4.980469 5.871094 3.980469 9.601563-1.003906 3.734375-4.390625 6.328125-8.253906 6.320312zm0 0" fill="#a5a5a4"/><path d="m470.382812 452.265625c-1.496093.003906-2.964843-.390625-4.257812-1.140625l-14.773438-8.535156c-4.082031-2.355469-5.476562-7.574219-3.121093-11.65625 2.355469-4.078125 7.570312-5.480469 11.652343-3.125l14.777344 8.53125c3.347656 1.933594 4.976563 5.875 3.976563 9.605468-1.003907 3.734376-4.386719 6.328126-8.253907 6.320313zm0 0" fill="#5e5f62"/><path d="m264.535156 392.535156h-17.070312c-4.710938 0-8.53125-3.824218-8.53125-8.535156s3.820312-8.535156 8.53125-8.535156h17.070312c4.710938 0 8.53125 3.824218 8.53125 8.535156s-3.820312 8.535156-8.53125 8.535156zm0 0" fill="#a5a5a4"/><path d="m486.398438 392.535156h-17.066407c-4.710937 0-8.53125-3.824218-8.53125-8.535156s3.820313-8.535156 8.53125-8.535156h17.066407c4.714843 0 8.535156 3.824218 8.535156 8.535156s-3.820313 8.535156-8.535156 8.535156zm0 0" fill="#5e5f62"/><path d="m263.484375 452.265625c-3.867187.007813-7.25-2.585937-8.253906-6.320313-1-3.730468.628906-7.671874 3.976562-9.605468l14.777344-8.53125c2.640625-1.527344 5.894531-1.527344 8.535156-.003906 2.644531 1.527343 4.269531 4.34375 4.269531 7.394531s-1.628906 5.867187-4.273437 7.390625l-14.773437 8.535156c-1.292969.75-2.761719 1.144531-4.257813 1.140625zm0 0" fill="#5e5f62"/><path d="m474.367188 331.863281-4.949219 2.8125c-7.507813 0-14.761719.257813-21.84375.597657-1.265625-3.769532.304687-7.914063 3.753906-9.898438l14.421875-8.363281c3.265625 4.710937 6.148438 9.675781 8.617188 14.851562zm0 0" fill="#a5a5a4"/><path d="m447.574219 335.273438c7.082031-.339844 14.335937-.597657 21.84375-.597657l-9.554688 5.546875c-4.082031 2.3125-9.261719.902344-11.605469-3.15625-.339843-.550781-.570312-1.15625-.683593-1.792968zm0 0" fill="#5e5f62"/><path d="m474.625 331.691406-.257812.171875c-2.46875-5.175781-5.351563-10.140625-8.617188-14.851562l.339844-.167969c4.101562-2.359375 9.335937-.945312 11.691406 3.15625s.941406 9.335938-3.15625 11.691406zm0 0" fill="#5e5f62"/><path d="m307.191406 495.992188c-3.046875-.003907-5.863281-1.628907-7.386718-4.269532-1.523438-2.640625-1.519532-5.890625.003906-8.53125l8.53125-14.773437c2.359375-4.082031 7.578125-5.476563 11.65625-3.121094 4.082031 2.355469 5.480468 7.570313 3.128906 11.652344l-8.535156 14.777343c-1.523438 2.644532-4.347656 4.269532-7.398438 4.265626zm0 0" fill="#5e5f62"/><path d="m418.125 303.851562c-3.046875-.003906-5.863281-1.628906-7.386719-4.269531-1.523437-2.640625-1.519531-5.894531.003907-8.53125l8.53125-14.777343c2.359374-4.078126 7.578124-5.476563 11.65625-3.121094 4.082031 2.355468 5.480468 7.574218 3.128906 11.65625l-8.535156 14.773437c-1.523438 2.644531-4.347657 4.273438-7.398438 4.269531zm0 0" fill="#a5a5a4"/><path d="m375.464844 315.734375v32.085937c-5.972656 1.703126-11.601563 3.753907-17.066406 5.886719v-37.972656c0-4.714844 3.820312-8.535156 8.535156-8.535156 4.710937 0 8.53125 3.820312 8.53125 8.535156zm0 0" fill="#a5a5a4"/><path d="m375.464844 347.820312v19.113282c0 4.710937-3.820313 8.53125-8.53125 8.53125-4.714844 0-8.535156-3.820313-8.535156-8.53125v-13.226563c5.464843-2.132812 11.09375-4.183593 17.066406-5.886719zm0 0" fill="#5e5f62"/><path d="m418.132812 443.734375c-2.261718 0-4.433593-.898437-6.03125-2.5l-39.167968-39.167969c-3.324219-3.332031-3.316406-8.726562.011718-12.054687 3.328126-3.328125 8.722657-3.335938 12.054688-.011719l39.167969 39.167969c2.4375 2.4375 3.167969 6.109375 1.847656 9.296875s-4.429687 5.269531-7.882813 5.269531zm0 0" fill="#5e5f62"/><path d="m51.199219 375.464844c-2.261719.003906-4.433594-.894532-6.035157-2.496094-1.601562-1.601562-2.5-3.773438-2.496093-6.035156v-153.601563c.011719-9.417969 7.644531-17.054687 17.066406-17.066406h366.933594c9.417969.011719 17.054687 7.648437 17.066406 17.066406v72.703125c0 4.710938-3.820313 8.53125-8.535156 8.53125-4.710938 0-8.53125-3.820312-8.53125-8.53125v-72.703125h-366.933594v153.601563c0 2.261718-.898437 4.433594-2.5 6.035156-1.597656 1.601562-3.769531 2.5-6.035156 2.496094zm0 0" fill="#2c2f38"/><path d="m250.199219 418.132812h-147.800781c-4.710938 0-8.53125-3.820312-8.53125-8.53125 0-4.714843 3.820312-8.535156 8.53125-8.535156h147.800781c4.714843 0 8.535156 3.820313 8.535156 8.535156 0 4.710938-3.820313 8.53125-8.535156 8.53125zm0 0" fill="#2c2f38"/><path d="m102.398438 401.066406v59.734375l-93.863282-93.867187h59.730469c9.054687-.003906 17.738281 3.59375 24.140625 9.996094 6.402344 6.398437 9.996094 15.082031 9.992188 24.136718zm0 0" fill="#424242"/><path d="m366.933594 512c-70.691406 0-128-57.308594-128-128s57.308594-128 128-128 128 57.308594 128 128c-.078125 70.660156-57.339844 127.921875-128 128zm0-238.933594c-61.265625 0-110.933594 49.667969-110.933594 110.933594s49.667969 110.933594 110.933594 110.933594 110.933594-49.667969 110.933594-110.933594c-.070313-61.238281-49.695313-110.863281-110.933594-110.933594zm0 0" fill="#2c2f38"/><path d="m384 384c0 9.425781-7.640625 17.066406-17.066406 17.066406-9.425782 0-17.066406-7.640625-17.066406-17.066406s7.640624-17.066406 17.066406-17.066406c9.425781 0 17.066406 7.640625 17.066406 17.066406zm0 0" fill="#9e9e9e"/><path d="m76.800781 0c-2.265625 0-4.4375.898438-6.035156 2.496094-1.601563 1.601562-2.5 3.773437-2.5 6.039062v25.597656h-25.597656c-23.554688.027344-42.6406252 19.113282-42.667969 42.667969v349.867188c.0273438 23.550781 19.113281 42.636719 42.667969 42.664062h229.128906c8.832031 9.847657 19.128906 18.273438 30.527344 24.980469.191406.1875.398437.367188.609375.539062.277344.132813.5625.25.851562.351563 39.121094 22.394531 87.175782 22.394531 126.292969 0 .292969-.101563.578125-.21875.855469-.351563.210937-.171874.414062-.351562.609375-.539062 18.730469-11.023438 34.371093-26.605469 45.457031-45.300781.285156-.316407.546875-.652344.785156-1.011719.109375-.195312.109375-.414062.203125-.613281 22.59375-39.238281 22.59375-87.535157 0-126.773438-.054687-.117187-.058593-.246093-.121093-.367187v-243.445313c-.027344-23.554687-19.113282-42.640625-42.667969-42.667969h-25.597657v-25.597656c0-4.714844-3.820312-8.535156-8.535156-8.535156-4.710937 0-8.53125 3.820312-8.53125 8.535156v25.597656h-145.070312v-25.597656c0-4.714844-3.820313-8.535156-8.53125-8.535156-4.714844 0-8.535156 3.820312-8.535156 8.535156v25.597656h-145.066407v-25.597656c.003907-2.265625-.894531-4.4375-2.496093-6.039062-1.601563-1.597656-3.773438-2.496094-6.035157-2.496094zm0 102.398438c2.261719.003906 4.433594-.894532 6.035157-2.496094 1.601562-1.601563 2.5-3.773438 2.496093-6.035156v-6.160157c6.691407 3.863281 9.953125 11.738281 7.953125 19.199219s-8.761718 12.648438-16.484375 12.648438c-7.726562 0-14.488281-5.1875-16.484375-12.648438-2-7.460938 1.261719-15.335938 7.949219-19.199219v6.160157c0 2.261718.898437 4.433593 2.5 6.035156 1.597656 1.601562 3.769531 2.5 6.035156 2.496094zm-59.734375 68.269531h443.734375v126.601562c-5.21875-5.640625-10.929687-10.804687-17.066406-15.429687v-68.507813c-.011719-9.417969-7.648437-17.054687-17.066406-17.066406h-366.933594c-9.421875.011719-17.054687 7.648437-17.066406 17.066406v145.066407h-25.601563zm409.601563 42.664062v57.546875c-18.394531-9.777344-38.90625-14.886718-59.734375-14.878906v-42.667969zm-76.800781 0v43.941407c-16.308594 2.171874-32.039063 7.492187-46.3125 15.667968-.203126.09375-.425782.09375-.621094.207032-.210938.171874-.417969.351562-.609375.539062-4.214844 2.484375-8.285157 5.207031-12.191407 8.152344v-68.507813zm-109.660157 187.734375h-26.875v-51.199218h30.363281c-4.800781 16.621093-5.988281 34.078124-3.488281 51.199218zm-26.875-68.265625v-51.199219h59.734375v15.667969c-6.257812 6.761719-11.769531 14.175781-16.441406 22.117188-.164062.226562-.398438.367187-.542969.613281-.113281.195312-.109375.414062-.207031.613281-2.277344 3.949219-4.339844 8.015625-6.179688 12.1875zm0-68.265625v-51.203125h59.734375v51.203125zm-76.796875 68.265625v-51.199219h59.730469v51.199219zm59.730469 17.066407v51.199218h-59.730469v-51.199218zm-59.730469-85.332032v-51.203125h59.730469v51.203125zm-76.800781 0v-51.203125h59.730469v51.203125zm59.730469 17.066406v51.199219h-59.730469v-51.199219zm-76.796875 170.664063c-14.132813-.015625-25.585938-11.46875-25.601563-25.597656v-39.132813l64.734375 64.730469zm51.199219-12.066406-64.734376-64.734375h39.132813c14.132813.015625 25.585937 11.46875 25.601563 25.601562zm-25.601563-81.800781h-8.53125v-8.53125h59.730469v51.199218h-8.53125c-.027344-23.550781-19.113282-42.640625-42.667969-42.667968zm42.667969 93.867187v-34.132813h132.761718c2.824219 10.222657 6.917969 20.046876 12.179688 29.253907.097656.199219.09375.417969.207031.613281.234375.355469.5.695312.785157 1.011719.648437 1.09375 1.296874 2.183593 1.976562 3.253906zm355.933594-116.105469c5.9375 12.328125 9.523437 25.660156 10.566406 39.304688h-8.101563c-4.710937 0-8.53125 3.824218-8.53125 8.535156s3.820313 8.535156 8.53125 8.535156h8.101563c-1.042969 13.644532-4.628906 26.976563-10.566406 39.304688l-6.984376-4.03125c-4.082031-2.355469-9.296874-.953125-11.652343 3.125-2.355469 4.082031-.960938 9.300781 3.121093 11.65625l7.035157 4.066406c-7.753907 11.28125-17.515625 21.042969-28.796875 28.796875l-4.066406-7.035156c-2.355469-4.082031-7.574219-5.476563-11.65625-3.121094-4.078126 2.355469-5.480469 7.570313-3.125 11.652344l4.03125 6.984375c-12.328126 5.9375-25.660157 9.523437-39.308594 10.566406v-8.101562c0-4.710938-3.820313-8.53125-8.53125-8.53125-4.714844 0-8.535156 3.820312-8.535156 8.53125v8.101562c-13.644532-1.042969-26.976563-4.628906-39.304688-10.566406l4.03125-6.984375c2.351562-4.082031.953125-9.296875-3.128906-11.652344-4.078125-2.355469-9.296875-.960937-11.65625 3.121094l-4.0625 7.035156c-11.28125-7.753906-21.042969-17.515625-28.796875-28.796875l7.035156-4.066406c2.644531-1.523438 4.273437-4.339844 4.273437-7.390625s-1.625-5.867188-4.269531-7.394531c-2.640625-1.523438-5.894531-1.523438-8.535156.003906l-6.984375 4.03125c-5.9375-12.328125-9.523438-25.660156-10.566406-39.304688h8.101562c4.710938 0 8.53125-3.824218 8.53125-8.535156s-3.820312-8.535156-8.53125-8.535156h-8.101562c1.042968-13.644532 4.628906-26.976563 10.566406-39.304688l6.984375 4.03125c4.082031 2.355469 9.296875.953125 11.652344-3.125 2.355469-4.082031.960937-9.300781-3.121094-11.65625l-7.035156-4.066406c7.753906-11.28125 17.515625-21.042969 28.796875-28.796875l4.0625 7.035156c1.523437 2.644531 4.34375 4.273438 7.394531 4.273438s5.867187-1.625 7.394531-4.269531c1.523438-2.640626 1.523438-5.894532-.003906-8.535157l-4.03125-6.984375c12.328125-5.9375 25.660156-9.523437 39.304688-10.566406v8.101562c0 4.710938 3.820312 8.53125 8.535156 8.53125 4.710937 0 8.53125-3.820312 8.53125-8.53125v-8.101562c13.648437 1.042969 26.980468 4.628906 39.308594 10.566406l-4.03125 6.984375c-2.355469 4.082031-.953126 9.296875 3.125 11.652344 4.082031 2.355469 9.300781.960937 11.65625-3.121094l4.066406-7.035156c11.28125 7.753906 21.042968 17.515625 28.796875 28.796875l-7.035157 4.066406c-4.082031 2.355469-5.476562 7.574219-3.121093 11.65625 2.355469 4.078125 7.570312 5.480469 11.652343 3.125zm-65.800782-233.761718c2.265625.003906 4.433594-.894532 6.035156-2.496094 1.601563-1.601563 2.5-3.773438 2.5-6.035156v-6.160157c6.6875 3.863281 9.949219 11.738281 7.949219 19.199219s-8.757812 12.648438-16.484375 12.648438c-7.722656 0-14.484375-5.1875-16.484375-12.648438s1.261719-15.335938 7.953125-19.199219v6.160157c-.003906 2.261718.894532 4.433593 2.496094 6.035156 1.601562 1.601562 3.773438 2.5 6.035156 2.496094zm-162.132812 0c2.261718.003906 4.433594-.894532 6.035156-2.496094 1.601562-1.601563 2.5-3.773438 2.496094-6.035156v-6.160157c6.691406 3.863281 9.953125 11.738281 7.953125 19.199219s-8.761719 12.648438-16.484375 12.648438c-7.726563 0-14.484375-5.1875-16.484375-12.648438s1.261719-15.335938 7.949219-19.199219v6.160157c0 2.261718.898437 4.433593 2.5 6.035156 1.601562 1.601562 3.769531 2.5 6.035156 2.496094zm-8.535156-51.199219v18.277343c-16.640626 4.300782-27.492188 20.300782-25.328126 37.351563 2.167969 17.050781 16.675782 29.832031 33.863282 29.832031s31.695312-12.78125 33.859375-29.832031c2.167969-17.050781-8.683594-33.050781-25.328125-37.351563v-18.277343h145.070312v18.277343c-16.644531 4.300782-27.496094 20.300782-25.328125 37.351563 2.164063 17.050781 16.671875 29.832031 33.859375 29.832031s31.695313-12.78125 33.863282-29.832031c2.164062-17.050781-8.6875-33.050781-25.328126-37.351563v-18.277343h25.597657c14.132812.015625 25.585937 11.46875 25.601562 25.601562v76.800781h-443.734375v-76.800781c.015625-14.132812 11.46875-25.585937 25.601563-25.601562h25.597656v18.277343c-16.640625 4.300782-27.492187 20.300782-25.328125 37.351563 2.167969 17.050781 16.675781 29.832031 33.863281 29.832031s31.695313-12.78125 33.859375-29.832031c2.167969-17.050781-8.683594-33.050781-25.328125-37.351563v-18.277343zm0 0"/><path d="m389.96875 394.96875c3.179688-6.511719 3.414062-14.074219.640625-20.769531-2.773437-6.691407-8.289063-11.875-15.144531-14.226563v-44.238281c0-4.714844-3.820313-8.535156-8.53125-8.535156-4.714844 0-8.535156 3.820312-8.535156 8.535156v44.238281c-8.953126 3.101563-15.453126 10.914063-16.875 20.285156-1.421876 9.371094 2.46875 18.757813 10.101562 24.375 7.632812 5.621094 17.75 6.542969 26.277344 2.402344l34.199218 34.199219c3.339844 3.28125 8.699219 3.253906 12.011719-.054687 3.308594-3.3125 3.332031-8.671876.054688-12.011719zm-16.9375-5.035156-.097656.066406-.066406.097656c-3.382813 3.292969-8.792969 3.242188-12.109376-.121094-3.316406-3.363281-3.296874-8.769531.042969-12.109374 3.339844-3.339844 8.746094-3.359376 12.109375-.042969 3.359375 3.316406 3.414063 8.726562.121094 12.109375zm0 0"/></svg>