<svg id="Capa_1" enable-background="new 0 0 511.994 511.994" height="512" viewBox="0 0 511.994 511.994" width="512" xmlns="http://www.w3.org/2000/svg"><g><g><path d="m226.426 211.877c-3.334-3.334-8.738-3.334-12.072 0l-79.376 79.376c-18.37 18.37-18.37 48.155 0 66.525l59.055 59.055c14.557 14.557 38.158 14.557 52.715 0 16.754-16.754 13.83-44.682-6.03-57.602l-42.727-27.798c-5.837-3.797-7.415-11.649-3.499-17.407l36.509-53.682c10.307-15.158 8.388-35.504-4.575-48.467z" fill="#f6d3d5"/></g><g><path d="m479.32 101.599c-.625-4.618-2.856-9.06-6.695-12.422-7.385-6.469-18.664-6.566-26.149-.212-5.971 5.068-8.188 12.703-6.651 19.678 1.293 5.868-.618 11.979-5.06 16.026l-26.161 23.835c-3.944 3.593-9.354 5.055-14.59 4.029-26.797-5.248-60.453 6.34-86.617 32.504-36.601 36.601-44.679 87.864-18.043 114.5s77.899 18.558 114.5-18.043c26.164-26.164 37.752-59.82 32.504-86.617-1.025-5.236.436-10.646 4.029-14.59l23.913-26.246c4.019-4.411 10.079-6.34 15.912-5.085 6.963 1.499 14.569-.737 19.614-6.708 6.325-7.485 6.214-18.74-.242-26.112-3.362-3.839-7.805-6.071-12.423-6.696-4.039-.545-7.295-3.801-7.841-7.841z" fill="#f6d3d5"/></g><g><path d="m240.717 359.231-42.727-27.798c-5.837-3.798-7.415-11.649-3.499-17.407l36.509-53.682c10.309-15.158 8.389-35.505-4.573-48.467-3.334-3.334-8.738-3.334-12.072 0l-7.066 7.066c1.173 9.016-.865 18.427-6.289 26.401l-36.509 53.682c-3.916 5.758-2.338 13.61 3.499 17.407l42.727 27.798c19.86 12.921 22.784 40.849 6.03 57.602-7.391 7.391-17.113 11.029-26.8 10.915l4.085 4.085c14.557 14.557 38.158 14.557 52.715 0 16.754-16.753 13.83-44.681-6.03-57.602z" fill="#f4c3c6"/></g><g><path d="m499.585 116.137c-3.362-3.839-7.805-6.071-12.423-6.696-4.04-.547-7.296-3.802-7.842-7.843-.625-4.618-2.856-9.06-6.695-12.422-6.484-5.68-15.97-6.447-23.254-2.25.674 3.887 3.861 6.982 7.791 7.514 4.618.625 9.061 2.856 12.423 6.696 6.456 7.372 6.567 18.627.242 26.112-5.045 5.971-12.651 8.207-19.614 6.708-5.834-1.256-11.893.674-15.912 5.084l-23.913 26.246c-3.593 3.944-5.055 9.354-4.029 14.59 5.248 26.797-6.34 60.453-32.504 86.617-25.541 25.541-58.221 37.192-84.691 32.851.064.064.127.129.191.193 26.636 26.636 77.899 18.558 114.5-18.043 26.164-26.164 37.752-59.82 32.504-86.617-1.025-5.236.436-10.646 4.029-14.59l23.913-26.246c4.019-4.411 10.079-6.34 15.912-5.084 6.963 1.499 14.569-.737 19.614-6.708 6.325-7.485 6.215-18.74-.242-26.112z" fill="#f4c3c6"/></g><g><path d="m403.854 281.495c-36.601 36.601-87.864 44.679-114.5 18.043s-18.558-77.9 18.043-114.5c12.855-12.855 27.519-22.191 42.289-27.741-2.643-.229-5.318-.346-8.021-.346h-116.799c-84.761 0-159.858 54.644-185.934 135.295l-18.432 57.01c-4.415 13.655 5.767 27.648 20.118 27.648h-10.55c-12.464 0-22.569 10.104-22.569 22.569 0 12.464 10.104 22.569 22.569 22.569h170.48c-2.313-1.457-4.501-3.192-6.516-5.207l-59.055-59.055c-18.37-18.371-18.37-48.155 0-66.525l79.376-79.376c3.334-3.334 8.738-3.334 12.072 0 12.963 12.963 14.882 33.309 4.573 48.467l-36.509 53.682c-3.916 5.758-2.338 13.61 3.499 17.407l42.727 27.798c19.86 12.921 22.784 40.849 6.03 57.602-2.015 2.015-4.203 3.75-6.516 5.207h66.031c70.231 0 127.164-56.933 127.164-127.164v-46.164c0-4.178-.279-8.291-.82-12.322-5.387 15.714-15.078 31.431-28.75 45.103z" fill="#f6d3d5"/></g><g><path d="m432.607 236.391c-5.389 15.715-15.081 31.433-28.753 45.104-3.708 3.708-7.567 7.123-11.535 10.24-8.247 62.262-61.541 110.306-126.056 110.306h-10.416c-1.748 5.377-4.765 10.459-9.099 14.793-2.015 2.015-4.203 3.75-6.516 5.207h66.031c70.231 0 127.164-56.933 127.164-127.164v-46.164c0-4.179-.279-8.292-.82-12.322z" fill="#f4c3c6"/></g><g><path d="m179.24 402.04h-171.595c1.275 11.255 10.828 20 22.424 20h170.48c-2.313-1.457-4.501-3.192-6.516-5.207z" fill="#f4c3c6"/></g><path d="m488.167 102.009c-.699-.095-1.321-.717-1.416-1.416-.892-6.593-4.154-12.651-9.185-17.058-10.179-8.917-25.632-9.041-35.944-.289-7.833 6.649-11.328 16.998-9.122 27.01.716 3.252-.351 6.65-2.787 8.869l-26.161 23.835c-2.148 1.958-5.174 2.787-8.098 2.213-14.887-2.916-31.088-1.208-46.949 4.51-4.834-.329 3.808-.233-123.64-.233-87.222 0-165.719 55.895-193.069 140.488l-18.433 57.01c-2.81 8.689-1.4 17.901 3.86 25.339-10.172 4.825-17.223 15.197-17.223 27.185 0 16.58 13.489 30.069 30.069 30.069h168.431c13.549 7.586 30.231 7.586 43.78 0h63.983c13.508 0 26.845-1.996 39.641-5.932 3.959-1.218 6.181-5.415 4.963-9.374-1.217-3.959-5.414-6.182-9.374-4.963-11.365 3.496-23.219 5.269-35.23 5.269h-48.101c10.515-16.449 9.028-37.868-3.326-52.696-.103-.131-.211-.26-.325-.385-2.769-3.249-6.025-6.122-9.704-8.515-11.141-7.248 13.462 8.76-42.728-27.797-1.401-.912-2.205-2.419-2.241-4.033.004-.15.002-.183.001-.264.029-.924.319-1.821.853-2.606 19.905-29.267-17.691 26.013 36.509-53.683 12.318-18.112 10.017-42.5-5.472-57.988-6.252-6.253-16.426-6.252-22.678 0l-79.376 79.376c-21.314 21.314-21.318 55.815 0 77.131l18.393 18.393c2.929 2.929 7.678 2.929 10.606 0 2.929-2.929 2.929-7.678 0-10.606l-18.393-18.393c-15.452-15.452-15.455-40.464 0-55.918l79.376-79.376c.404-.403 1.062-.403 1.466 0 10.402 10.402 11.948 26.781 3.675 38.946l-10.663 15.678-11.28-11.28c-2.929-2.929-7.678-2.929-10.606 0-2.929 2.929-2.929 7.678 0 10.606l13.299 13.299-7.375 10.844-11.28-11.28c-2.929-2.929-7.678-2.929-10.606 0-2.929 2.929-2.929 7.678 0 10.606l13.299 13.299c-1.396 2.053-2.33 3.296-3.255 5.53h-20.275c-4.142 0-7.5 3.358-7.5 7.5s3.358 7.5 7.5 7.5h20.207c.759 1.908 1.804 3.673 3.1 5.246l-13.14 13.141c-2.929 2.929-2.929 7.678 0 10.606 2.929 2.929 7.678 2.929 10.606 0l14.724-14.725 13.262 8.628-13.982 13.982c-2.929 2.929-2.929 7.678 0 10.606 2.929 2.929 7.678 2.929 10.606 0l16.227-16.227c10 6.506 9.501 6.157 10.537 6.929l-13.937 13.937c-2.929 2.929-2.929 7.678 0 10.606 2.929 2.929 7.678 2.929 10.606 0l12.749-12.749c4.925 11.15 2.639 24.3-6.179 33.119-11.61 11.609-30.5 11.608-42.108 0l-15.439-15.439c-2.929-2.929-7.678-2.929-10.606 0-2.929 2.929-2.929 7.678 0 10.606l7.843 7.843h-151.063c-8.309 0-15.069-6.76-15.069-15.069s6.76-15.069 15.069-15.069h40.188c4.142 0 7.5-3.358 7.5-7.5s-3.358-7.5-7.5-7.5h-29.638c-9.27 0-15.834-9.02-12.982-17.841l18.433-57.01c25.16-77.818 97.013-130.102 178.797-130.102h95.418c-26.484 18.521-47.941 48.105-53.031 80.407-1.24 7.87-1.436 15.445-.627 22.587-3.733 39.216 15.253 74.809 51.655 88.652 3.871 1.471 8.203-.471 9.676-4.344 1.472-3.872-.473-8.204-4.344-9.676-16.446-6.254-29.011-18.071-36.114-34.049 12.493 10.65 28.277 15.09 44.884 14.683 4.141-.101 7.416-3.541 7.314-7.681-.101-4.141-3.547-7.409-7.681-7.314-28.269.666-46.859-16.036-50.332-40.535-.003-.612-.08-1.21-.225-1.783-2.601-23.53 8.459-52.275 31.239-75.055 23.414-23.414 54.766-35.368 79.873-30.447 7.558 1.478 15.44-.705 21.083-5.846l20.869-19.014 5.152 5.152c2.929 2.929 7.678 2.929 10.606 0 2.929-2.929 2.929-7.678 0-10.606l-5.579-5.579c2.798-5.094 3.733-11.129 2.445-16.972-1.007-4.572.595-9.303 4.181-12.347 4.612-3.916 11.796-3.856 16.354.137 2.954 2.587 3.917 5.662 4.204 7.785 1 7.401 6.869 13.269 14.27 14.27 2.123.288 5.198 1.25 7.786 4.205 3.982 4.547 4.05 11.72.155 16.33-3.027 3.583-7.745 5.2-12.306 4.216-8.421-1.812-17.245 1.011-23.035 7.365l-23.913 26.246c-5.141 5.643-7.326 13.524-5.846 21.083 7.189 36.703-21.578 84.686-64.955 103.808-3.791 1.671-5.509 6.098-3.838 9.888 1.671 3.791 6.099 5.51 9.888 3.838 21.157-9.325 41.487-25.993 55.834-47.415v28.438c0 40.601-20.333 78.1-54.389 100.311-3.469 2.263-4.448 6.91-2.185 10.379s6.908 4.448 10.379 2.185c38.318-24.99 61.195-67.186 61.195-112.875 0-48.826.22-49.981-.652-57.591 4.855-14.863 6.17-29.929 3.444-43.849-.572-2.921.255-5.949 2.213-8.098l23.913-26.246c2.208-2.421 5.579-3.497 8.791-2.804 9.997 2.152 20.309-1.374 26.921-9.2 8.708-10.306 8.567-25.737-.329-35.894-4.409-5.029-10.467-8.291-17.061-9.183z"/></g></svg>