<svg id="Capa_1" enable-background="new 0 0 512 512" height="512" viewBox="0 0 512 512" width="512" xmlns="http://www.w3.org/2000/svg"><path id="XMLID_2191_" d="m482 280h-452v-155.749c0-33.276 26.975-60.251 60.251-60.251h331.498c33.276 0 60.251 26.975 60.251 60.251z" fill="#e1e3e9"/><path id="XMLID_2042_" d="m256 203.127c0-55.8-35.22-93.714-78.667-93.714s-78.667 37.914-78.667 93.714 35.22 108.357 78.667 108.357 78.667-52.557 78.667-108.357z" fill="#ffd89e"/><path id="XMLID_2041_" d="m413.333 203.127c0-55.8-35.22-93.714-78.667-93.714s-78.666 37.913-78.666 93.714 35.22 108.357 78.667 108.357 78.666-52.557 78.666-108.357z" fill="#ffd89e"/><g fill="#ffe6c0"><path id="XMLID_1217_" d="m482 243.097c0-53.436-33.728-89.743-75.333-89.743s-75.333 36.307-75.333 89.743 33.728 103.766 75.333 103.766 75.333-50.33 75.333-103.766z"/><path id="XMLID_1219_" d="m180.667 243.097c0-53.436-33.728-89.743-75.333-89.743s-75.334 36.307-75.334 89.743 33.728 103.766 75.333 103.766 75.334-50.33 75.334-103.766z"/><path id="XMLID_1218_" d="m331.333 243.097c0-53.436-33.728-89.743-75.333-89.743s-75.333 36.307-75.333 89.743 33.728 103.766 75.333 103.766 75.333-50.33 75.333-103.766z"/></g><path id="XMLID_1485_" d="m30 328v55.086l64.914 64.914h37.99l40-40h25.231l40 40h36.07l40-40h25.231l40 40h37.65l64.914-64.914v-55.086z" fill="#b8866b"/><path id="XMLID_1212_" d="m478 328h-444c-13.255 0-24-10.745-24-24 0-13.255 10.745-24 24-24h444c13.255 0 24 10.745 24 24 0 13.255-10.745 24-24 24z" fill="#cc9e83"/><path id="XMLID_843_" d="m512 304c0-13.758-8.219-25.625-20-30.971v-148.778c0-38.736-31.515-70.251-70.251-70.251h-331.498c-38.736 0-70.251 31.515-70.251 70.251v148.778c-11.781 5.346-20 17.213-20 30.971s8.219 25.625 20 30.971v48.115c0 2.652 1.054 5.196 2.929 7.071l64.914 64.914c1.875 1.875 4.419 2.929 7.071 2.929h37.99c2.652 0 5.196-1.054 7.071-2.929l37.071-37.071h16.947l37.071 37.071c1.875 1.875 4.419 2.929 7.071 2.929h36.07c2.652 0 5.196-1.054 7.071-2.929l37.071-37.071h16.947l37.071 37.071c1.875 1.875 4.418 2.929 7.071 2.929h37.65c2.652 0 5.196-1.054 7.071-2.929l64.914-64.914c1.875-1.875 2.929-4.419 2.929-7.071v-48.115c11.781-5.346 20-17.213 20-30.971zm-318.251-34c-2.037-8.849-3.083-17.867-3.083-26.903 0-42.203 22.928-73.82 55.744-78.985.045-.005.09-.014.135-.019 3.071-.476 6.221-.739 9.454-.739 3.224 0 6.367.262 9.43.736.055.007.111.018.166.023 32.813 5.168 55.738 36.784 55.738 78.984 0 9.036-1.046 18.053-3.083 26.903zm-150.666 0c-2.038-8.849-3.083-17.867-3.083-26.903 0-46.206 27.477-79.743 65.333-79.743 1.193 0 2.375.034 3.547.1.074.006.148.014.222.019 35.896 2.15 61.564 34.967 61.564 79.625 0 9.037-1.045 18.054-3.082 26.903h-124.501zm82.863-123.945c12.623-16.889 31.071-26.643 51.387-26.643 21.015 0 39.981 10.388 52.614 28.318-13.175 4.59-25.077 12.701-34.779 23.914-5.83 6.738-10.686 14.45-14.502 22.891-3.816-8.44-8.672-16.153-14.502-22.891-11.02-12.737-24.879-21.472-40.218-25.589zm156.107 1.675c12.634-17.93 31.599-28.318 52.614-28.318 20.316 0 38.764 9.754 51.387 26.643-15.339 4.117-29.198 12.852-40.218 25.589-5.83 6.738-10.686 14.45-14.502 22.891-3.817-8.44-8.672-16.153-14.502-22.891-9.703-11.213-21.605-19.324-34.779-23.914zm62.363 122.27c-2.037-8.849-3.083-17.866-3.083-26.903 0-44.663 25.673-77.482 61.576-79.625.06-.003.12-.011.18-.015 1.182-.067 2.374-.103 3.577-.103 37.857 0 65.333 33.537 65.333 79.743 0 9.036-1.045 18.053-3.083 26.903zm-304.416-145.749c0-27.709 22.542-50.251 50.251-50.251h331.498c27.709 0 50.251 22.542 50.251 50.251v53.095c-1.436-1.962-2.923-3.877-4.502-5.702-15.433-17.838-36.431-27.833-59.271-28.269-16.053-27.651-43.132-43.963-73.56-43.963-30.528 0-57.592 16.356-73.634 44.104-1.667-.103-3.344-.162-5.032-.162s-3.365.058-5.033.162c-16.041-27.748-43.105-44.104-73.634-44.104-30.427 0-57.506 16.312-73.56 43.963-22.84.436-43.838 10.432-59.271 28.269-1.579 1.825-3.067 3.74-4.502 5.702v-53.095zm438 193.749h-176.873c-5.523 0-10 4.477-10 10s4.477 10 10 10h170.873v40.944l-59.056 59.056h-29.366l-37.071-37.071c-1.875-1.875-4.419-2.929-7.071-2.929h-25.231c-2.652 0-5.196 1.054-7.071 2.929l-37.071 37.071h-27.786l-37.071-37.071c-1.875-1.875-4.419-2.929-7.071-2.929h-25.231c-2.652 0-5.196 1.054-7.071 2.929l-37.071 37.071h-29.706l-59.056-59.056v-40.944h171.126c5.523 0 10-4.477 10-10s-4.477-10-10-10h-177.126c-7.72 0-14-6.28-14-14s6.28-14 14-14h1.186.07 140.01c.016 0 .032.003.048.003.028 0 .056-.003.084-.003h10.502c.04 0 .08.005.12.005.023 0 .046-.005.068-.005h139.982.083 10.391c.048.001.096.006.145.006.027 0 .055-.006.082-.006h139.963c.03 0 .061.001.091 0h1.175c7.72 0 14 6.28 14 14s-6.28 14-14 14z"/><path id="XMLID_968_" d="m256.13 318c-2.64 0-5.21 1.07-7.07 2.93-1.87 1.86-2.93 4.44-2.93 7.07s1.06 5.21 2.93 7.07c1.86 1.86 4.43 2.93 7.07 2.93 2.63 0 5.21-1.07 7.07-2.93s2.93-4.44 2.93-7.07-1.07-5.21-2.93-7.07-4.44-2.93-7.07-2.93z"/></svg>