<?xml version="1.0" encoding="iso-8859-1"?>
<!-- Generator: Adobe Illustrator 19.0.0, SVG Export Plug-In . SVG Version: 6.00 Build 0)  -->
<svg version="1.1" id="Capa_1" xmlns="http://www.w3.org/2000/svg" xmlns:xlink="http://www.w3.org/1999/xlink" x="0px" y="0px"
	 viewBox="0 0 512 512" style="enable-background:new 0 0 512 512;" xml:space="preserve">
<g>
	<g transform="translate(1 1)">
		<g>
			<path style="fill:#71C285;" d="M254.659,257.816l0.683,0.085c-0.085,1.195-0.171,2.389-0.171,3.584l-0.341-0.085
				C254.744,260.205,254.744,259.011,254.659,257.816z"/>
			<path style="fill:#71C285;" d="M263.875,264.813l-8.448-3.243"/>
			<path style="fill:#71C285;" d="M247.32,258.584l-2.133-0.853"/>
			<path style="fill:#71C285;" d="M254.659,257.816c0.085,1.195,0.085,2.389,0.171,3.584l-21.163-5.888
				c-2.831-0.343-5.681-0.514-8.533-0.512c-29.457,0.073-55.967,17.892-67.157,45.141c-4.473-1.567-9.17-2.402-13.909-2.475
				c-2.898,0.003-5.788,0.318-8.619,0.939l-23.723,13.909l-0.085,0.085c-7.509-82.859-48.469-146.944-98.645-151.211
				c-1.877-0.171-3.669-0.256-5.461-0.256h5.461c55.074,0.253,106.695,26.872,138.837,71.595
				c-3.669-99.072-20.992-173.995-41.899-173.995c2.794-0.03,5.587,0.112,8.363,0.427c1.314,0.029,2.626,0.143,3.925,0.341
				c1.195,0.171,2.389,0.256,3.584,0.512c4.154,0.624,8.26,1.537,12.288,2.731c1.877,0.512,3.669,1.109,5.547,1.792
				c3.349,1.138,6.626,2.477,9.813,4.011c1.69,0.71,3.342,1.507,4.949,2.389c0.085,0,0.171,0.085,0.341,0.171
				c1.195,0.597,2.389,1.28,3.67,2.048c3.396,1.873,6.674,3.953,9.813,6.229c1.006,0.625,1.975,1.309,2.901,2.048
				c1.963,1.365,3.84,2.901,5.803,4.523c2.219,1.877,4.523,3.84,6.656,5.888c1.707,1.536,3.413,3.243,5.12,5.035
				c0.512,0.427,1.024,1.024,1.536,1.536c6.52,6.862,12.457,14.254,17.749,22.101c1.621,2.219,3.072,4.523,4.523,6.912
				c5.776,9.089,10.826,18.619,15.104,28.501c1.28,2.73,2.474,5.546,3.584,8.448c0.686,1.529,1.284,3.096,1.792,4.693
				c2.731,7.168,5.12,14.592,7.253,22.272c0.683,2.304,1.28,4.608,1.792,6.997c0.939,3.499,1.792,7.083,2.56,10.752
				c0.427,2.304,0.939,4.608,1.28,6.912c0.427,1.963,0.768,4.011,1.109,6.059c0.256,1.451,0.512,2.901,0.683,4.437
				c0.162,0.789,0.276,1.587,0.341,2.389c1.024,6.741,1.707,13.653,2.218,20.651C254.403,252.269,254.573,255,254.659,257.816z"/>
		</g>
		<path style="fill:#8BC34A;" d="M502.467,161.133c-58.197,0-105.216,80.555-105.216,179.541l-4.181,4.011l-13.056-16.64
			c-5.596-3.161-11.92-4.808-18.347-4.779c-1.689,0.039-3.372,0.21-5.035,0.512c-1.366-7.003-4.478-13.548-9.045-19.029
			l-0.171-0.171l-17.664-12.715c-13.015-4.893-27.596-3.141-39.083,4.693c-2.711-5.758-6.184-11.125-10.325-15.957
			c-1.451-1.707-2.901-3.243-4.352-4.693c-4.28-4.277-9.099-7.977-14.336-11.008c-0.18-0.145-0.381-0.26-0.597-0.341
			c-1.195-0.683-2.389-1.365-3.669-1.963c-0.597-0.341-1.28-0.683-1.963-1.025c-0.085,0-0.171-0.085-0.256-0.085
			c0-1.195,0.085-2.389,0.171-3.584l0.683,0.171l-0.256-7.936c0.824-11.562,2.277-23.07,4.352-34.475l1.024-5.205
			c0.341-1.621,0.683-3.243,1.025-4.779c0.341-1.621,0.683-3.243,1.109-4.864c0.768-3.157,1.621-6.315,2.475-9.472
			c0.853-3.072,1.792-6.144,2.731-9.216c1.024-3.243,2.048-6.315,3.243-9.472c1.109-3.157,2.218-6.229,3.499-9.216
			c0.438-1.28,0.951-2.534,1.536-3.755c0.512-1.28,1.109-2.475,1.621-3.754c1.195-2.816,2.475-5.547,3.84-8.192
			c1.28-2.731,2.645-5.376,4.011-7.936c1.28-2.475,2.645-4.864,4.096-7.168c1.28-2.304,2.731-4.523,4.096-6.741
			c0.196-0.388,0.424-0.759,0.683-1.109c0.427-0.597,0.768-1.195,1.195-1.792c1.536-2.389,3.242-4.693,4.864-6.997
			c0.939-1.365,1.963-2.645,2.987-3.925c2.219-2.987,4.608-5.888,7.083-8.619c1.365-1.621,2.816-3.157,4.267-4.693
			c1.365-1.536,2.816-2.987,4.267-4.352c5.012-4.998,10.435-9.565,16.213-13.653c1.531-1.222,3.126-2.361,4.779-3.413
			c4.11-2.783,8.416-5.264,12.885-7.424c1.963-0.939,3.84-1.877,5.888-2.731c6.308-2.753,12.886-4.84,19.627-6.229
			c1.792-0.427,3.669-0.768,5.461-1.024c5.111-0.786,10.274-1.186,15.446-1.195c-20.907,0-38.229,74.923-41.899,173.995
			c32.143-44.722,83.763-71.341,138.837-71.595H502.467z"/>
		<path style="fill:#71C285;" d="M255.768,250.136l0.256,7.936l-0.683-0.171C255.427,255.256,255.597,252.696,255.768,250.136z"/>
		<path style="fill:#9E9D24;" d="M502.467,161.133c-58.197,0-105.216,80.555-105.216,179.541l-4.181,4.011l-13.056-16.64
			c-1.881-1.054-3.851-1.939-5.888-2.645c-4-1.419-8.214-2.141-12.459-2.133c-1.689,0.039-3.372,0.21-5.035,0.512
			c-1.366-7.003-4.478-13.548-9.045-19.029l-0.171-0.171l-17.664-12.715c5.768-21.287,15.4-41.332,28.416-59.136
			c22.735-31.444,55.37-54.342,92.672-65.024c15-4.366,30.543-6.578,46.165-6.571L502.467,161.133z"/>
		<path style="fill:#CDDC39;" d="M450.84,167.704c-41.728,19.627-73.045,82.005-76.715,157.696c-4-1.419-8.214-2.141-12.459-2.133
			c-1.689,0.039-3.372,0.21-5.035,0.512c-1.366-7.003-4.478-13.548-9.045-19.029l-0.171-0.171l-17.664-12.715
			c5.768-21.287,15.4-41.332,28.416-59.136C380.903,201.284,413.538,178.386,450.84,167.704z"/>
		<path style="fill:#9E9D24;" d="M174.872,275.309c-7.312,7-13.068,15.461-16.896,24.832c-4.089-1.449-8.378-2.255-12.715-2.389
			c-0.394-0.071-0.795-0.099-1.195-0.085c-2.898,0.003-5.788,0.318-8.619,0.939l-9.387,5.547l-14.336,8.363l-0.085,0.085
			c-0.085-1.109-0.256-2.304-0.341-3.413c-6.059-59.307-29.269-108.544-60.672-132.437c0-0.085-0.085-0.085-0.171-0.085
			c-10.756-8.593-23.764-13.897-37.461-15.275c-1.877-0.171-3.669-0.256-5.461-0.256h5.461
			c55.074,0.253,106.695,26.872,138.837,71.595v0.085h0.085C161.422,245.897,169.141,260.188,174.872,275.309z"/>
		<path style="fill:#CDDC39;" d="M157.805,281.709c-4.926,4.721-9.151,10.123-12.544,16.043c-0.394-0.071-0.795-0.099-1.195-0.085
			c-2.898,0.003-5.788,0.318-8.619,0.939l-9.387,5.547c-2.582,0.021-5.156,0.307-7.68,0.853l-7.083,4.181
			c-6.059-59.307-29.269-108.544-60.672-132.437c33.789,11.655,63.167,33.435,84.139,62.379v0.085h0.085
			C144.355,252.297,152.075,266.588,157.805,281.709z"/>
		<g>
			<path style="fill:#558B30;" d="M254.829,261.4c-6.701-3.062-13.843-5.049-21.163-5.888c-1.529-0.199-3.067-0.313-4.608-0.341
				c-4.779-92.075-49.408-167.68-108.629-189.867c-2.116-3.237-5.378-5.553-9.131-6.485
				C188.44,59.757,251.075,149.187,254.829,261.4z"/>
			<path style="fill:#558B30;" d="M211.736,256.024c0.237,0.006,0.471,0.064,0.683,0.171c-0.376,0.008-0.749,0.066-1.109,0.171
				l-3.072-0.853C209.432,255.683,210.627,255.853,211.736,256.024z"/>
		</g>
		<path style="fill:#4C8056;" d="M254.829,261.4l-21.163-5.888C240.986,256.351,248.128,258.338,254.829,261.4z"/>
		<g>
			<path style="fill:#8BC34A;" d="M229.059,255.171c-1.303-0.144-2.615-0.201-3.925-0.171c-4.21,0.005-8.409,0.405-12.544,1.195
				c-0.022-0.023-0.053-0.036-0.085-0.036s-0.063,0.013-0.085,0.036c-0.212-0.107-0.445-0.165-0.683-0.171
				c-1.109-0.256-2.304-0.341-3.499-0.512l3.072,0.853c-13.736,2.618-26.404,9.204-36.437,18.944
				c-1.707-4.608-3.669-9.131-5.717-13.483c-4.821-10.191-10.592-19.905-17.237-29.013h-0.085v-0.085
				c-3.072-81.835-15.36-147.115-31.403-167.424C179.651,87.491,224.28,163.096,229.059,255.171z"/>
			<path style="fill:#8BC34A;" d="M229.4,261.4c-1.641-0.771-3.322-1.454-5.035-2.048c-1.482-0.56-2.991-1.045-4.523-1.451
				c-0.222-0.099-0.45-0.185-0.683-0.256c-1.109-0.256-2.219-0.597-3.328-0.768c-1.06-0.318-2.144-0.546-3.242-0.683
				c4.135-0.79,8.334-1.19,12.544-1.195c1.311-0.03,2.622,0.027,3.925,0.171C229.229,257.219,229.315,259.267,229.4,261.4z"/>
			<path style="fill:#8BC34A;" d="M229.4,261.4l-18.091-5.035l-3.072-0.853c1.195,0.171,2.389,0.341,3.499,0.512
				c0.237,0.006,0.471,0.064,0.683,0.171c0.022-0.023,0.053-0.036,0.085-0.036s0.063,0.013,0.085,0.036
				c1.109,0.171,2.133,0.427,3.242,0.683c1.109,0.171,2.219,0.512,3.328,0.768c0.256,0.085,0.427,0.171,0.683,0.256
				c1.535,0.393,3.045,0.878,4.523,1.451C226.078,259.946,227.759,260.629,229.4,261.4z"/>
		</g>
		<path style="fill:#F57C00;" d="M457.581,353.56c-5.242-15.529-19.792-25.995-36.181-26.027c-4.364-0.014-8.696,0.737-12.8,2.219
			c11.005,3.973,19.608,12.733,23.381,23.808c25.612,3.208,44.843,24.961,44.885,50.773v51.2h25.6v-51.2
			C502.424,378.521,483.193,356.768,457.581,353.56z M361.667,319c-1.689,0.039-3.372,0.21-5.035,0.512
			c-3.879-20.085-21.442-34.608-41.899-34.645c-4.342-0.007-8.659,0.655-12.8,1.963c14.946,4.754,26.104,17.287,29.099,32.683
			c1.662-0.302,3.346-0.473,5.035-0.512c13.697,0.022,26.333,7.382,33.109,19.285c4.898-4.765,11.007-8.1,17.664-9.643
			C379.925,322.434,370.96,319,361.667,319z M131.011,295.448c0.427,0.171,0.939,0.256,1.365,0.427
			c0.171-0.341,0.256-0.597,0.427-0.939C132.12,295.107,131.608,295.277,131.011,295.448z"/>
		<path style="fill:#FF9801;" d="M476.867,404.333v51.2H7.533v-55.467c-0.001-14.711,5.843-28.819,16.245-39.221
			S48.289,344.599,63,344.6c1.568,0,3.135,0.086,4.693,0.256c1.948-14.778,14.534-25.832,29.44-25.856
			c2.507,0.035,5.001,0.379,7.424,1.024c4.723-11.719,14.419-20.727,26.453-24.576c0.427,0.171,0.939,0.256,1.365,0.427
			c0.171-0.341,0.256-0.597,0.427-0.939c3.665-1.035,7.456-1.552,11.264-1.536c4.739,0.072,9.436,0.908,13.909,2.475
			c9.409-22.982,29.914-39.56,54.357-43.947c4.222-0.786,8.506-1.186,12.8-1.195c25.026-0.013,48.275,12.935,61.44,34.219
			c1.548,2.34,2.917,4.793,4.096,7.339c3.448-2.342,7.212-4.181,11.179-5.461h0.085c14.946,4.754,26.104,17.287,29.099,32.683
			c1.662-0.302,3.346-0.473,5.035-0.512c13.697,0.022,26.333,7.382,33.109,19.285c4.898-4.765,11.007-8.1,17.664-9.643
			c3.163,2.751,5.845,6.01,7.936,9.643c3.939-3.808,8.655-6.719,13.824-8.533c11.005,3.973,19.608,12.733,23.381,23.808
			C457.593,356.768,476.824,378.521,476.867,404.333z"/>
		<path style="fill:#558B30;" d="M400.067,58.733c-20.907,0-38.229,74.923-41.899,173.995
			c-11.736,16.032-20.706,33.914-26.539,52.907c-0.512-13.653-0.256-30.976,0.939-52.907c2.987-81.664,15.36-146.944,31.317-167.339
			C375.446,61.008,387.704,58.753,400.067,58.733z"/>
	</g>
	<g>
		<path d="M256.9,299.763c1.424-1.759,2.09-4.012,1.853-6.262c-0.238-2.251-1.36-4.315-3.119-5.738
			c-11.853-9.576-27.616-12.804-42.278-8.657c-14.663,4.146-26.401,15.151-31.484,29.516c-1.017,2.874-0.423,6.073,1.558,8.391
			c1.981,2.318,5.048,3.403,8.046,2.846c2.998-0.557,5.471-2.67,6.488-5.545c4.234-11.927,15.514-19.9,28.171-19.913
			c6.834-0.029,13.467,2.314,18.767,6.629C248.564,303.991,253.935,303.424,256.9,299.763z"/>
		<path d="M358.4,345.6c-4.494,0-8.91,1.181-12.804,3.425c-2.642,1.523-4.271,4.341-4.272,7.392s1.626,5.869,4.268,7.394
			c2.642,1.525,5.896,1.524,8.537-0.002c2.641-1.523,5.894-1.522,8.534,0.002c2.64,1.524,4.268,4.341,4.27,7.39
			c0,4.713,3.821,8.533,8.533,8.533c4.713,0,8.533-3.821,8.533-8.533C383.985,357.068,372.532,345.615,358.4,345.6z"/>
		<path d="M447.996,397.942c2.641-1.523,5.894-1.522,8.534,0.002c2.64,1.524,4.268,4.341,4.27,7.39c0,4.713,3.821,8.533,8.533,8.533
			c4.713,0,8.533-3.821,8.533-8.533c-0.004-9.146-4.884-17.595-12.804-22.168c-7.92-4.573-17.678-4.576-25.6-0.007
			c-2.642,1.523-4.271,4.341-4.272,7.392s1.626,5.869,4.268,7.394C442.1,399.469,445.355,399.468,447.996,397.942z"/>
		<path d="M121.158,346.196c-9.821-1.991-19.986,1.072-27.071,8.158c-7.086,7.086-10.149,17.251-8.158,27.071
			c0.934,4.619,5.436,7.605,10.054,6.671c4.619-0.934,7.605-5.436,6.671-10.054c-0.17-0.848-0.255-1.71-0.254-2.575
			c0.008-7.066,5.734-12.792,12.8-12.8c0.865,0,1.727,0.085,2.575,0.254c4.619,0.934,9.12-2.052,10.054-6.671
			C128.764,351.631,125.777,347.13,121.158,346.196L121.158,346.196z"/>
		<path d="M251.733,345.6c-5.326-0.004-10.614,0.899-15.638,2.671c-4.423,1.582-6.735,6.441-5.173,10.871
			c1.562,4.43,6.411,6.763,10.847,5.221c10.853-3.82,22.935-1.073,31.071,7.062c8.136,8.136,10.882,20.218,7.062,31.071
			c-1.03,2.879-0.44,6.088,1.545,8.413c1.985,2.325,5.062,3.41,8.067,2.845c3.004-0.565,5.476-2.695,6.48-5.583
			c5.064-14.366,2.845-30.295-5.952-42.73S266.965,345.609,251.733,345.6z"/>
		<path d="M503.467,166.4c4.713,0,8.533-3.821,8.533-8.533c0-4.713-3.82-8.533-8.533-8.533c-1.834,0-3.655,0.087-5.468,0.229
			l-0.003-0.229c-48.759,0.289-95.319,20.329-129.046,55.543C375.125,105.037,393.646,64,401.067,64c4.713,0,8.533-3.82,8.533-8.533
			s-3.821-8.533-8.533-8.533c-66.953,0-124.109,61.648-145.06,148.561c-20.938-86.909-78.106-148.561-145.073-148.561
			c-4.713,0-8.533,3.821-8.533,8.533S106.221,64,110.933,64c7.422,0,25.95,41.069,32.121,141.003
			c-33.753-35.2-80.292-55.274-129.058-55.67h-0.171c-0.331,0.046-0.659,0.112-0.982,0.199c-1.447-0.092-2.896-0.199-4.31-0.199
			c-4.713,0-8.533,3.821-8.533,8.533c0,4.713,3.821,8.533,8.533,8.533c1.538,0,3.075,0.071,4.738,0.225
			c44.869,3.816,82.618,62.67,90.512,140.402c-1.104,1.459-2.13,2.976-3.074,4.544c-17.2-1.312-33.104,9.191-38.65,25.525
			C27.502,338.187,0.042,366.493,0,401.067v55.467c0,4.713,3.821,8.533,8.533,8.533h494.933c4.713,0,8.533-3.82,8.533-8.533v-51.2
			c-0.03-28.186-19.746-52.52-47.312-58.396c-10.036-21.814-35.088-32.33-57.688-24.215
			C411.158,235.321,452.794,166.4,503.467,166.4z M377.8,67.017c-20.819,41.042-25.989,132.949-27.072,159.827
			c-11.139,15.728-19.792,33.076-25.656,51.435c-10.123-2.005-20.62-0.806-30.03,3.43c-7.413-11.912-17.774-21.709-30.082-28.446
			C269.709,158.511,316.98,82.656,377.8,67.017z M134.193,67.014c59.252,15.225,105.656,87.571,112.406,178.859
			c-23.152-6.133-47.834-1.591-67.285,12.383c-4.981-11.019-11.024-21.527-18.044-31.375
			C160.183,199.926,155.004,108.045,134.193,67.014z M66.468,175.526c45.055,16.034,81.179,50.45,99.375,94.675
			c-4.537,5.025-8.426,10.598-11.576,16.591c-12.01-2.402-24.484-0.238-34.984,6.068C112.018,242.766,92.472,200.89,66.468,175.526z
			 M450.508,357.325c1.058,3.092,3.789,5.309,7.033,5.708c21.345,2.658,37.373,20.79,37.392,42.3V448H17.067v-46.933
			c0.029-25.908,21.025-46.904,46.933-46.933c1.338,0,2.654,0.1,3.963,0.208c4.529,0.39,8.565-2.848,9.167-7.354
			c0.69-6.063,4.006-11.517,9.071-14.92c5.065-3.403,11.368-4.412,17.242-2.759c4.139,1.063,8.427-1.096,10.038-5.054
			c5.177-12.899,17.689-21.343,31.587-21.321c3.792,0.051,7.547,0.743,11.108,2.046c4.287,1.489,8.989-0.639,10.7-4.842
			c9.556-23.523,32.126-39.163,57.507-39.848c25.381-0.685,48.762,13.715,59.572,36.689c1.069,2.259,3.074,3.936,5.487,4.587
			c2.413,0.652,4.99,0.213,7.051-1.2c9.485-6.502,21.611-7.779,32.241-3.394s18.331,13.838,20.475,25.136
			c0.845,4.454,5.028,7.469,9.521,6.862l0.946-0.133c0.989-0.171,1.989-0.273,2.992-0.304c10.673-0.008,20.518,5.749,25.746,15.054
			c1.313,2.274,3.599,3.817,6.198,4.184c2.6,0.367,5.223-0.483,7.114-2.305c7.308-7.114,17.761-9.97,27.671-7.561
			C439.306,340.314,447.282,347.65,450.508,357.325L450.508,357.325z M389.993,320.432c-7.576-5.533-16.646-8.652-26.022-8.949
			c-4.12-11.537-12.246-21.21-22.897-27.261c15.774-50.768,54.559-91.128,104.659-108.91
			C414.866,205.333,393.305,258.617,389.993,320.432L389.993,320.432z"/>
	</g>
</g>
<g>
</g>
<g>
</g>
<g>
</g>
<g>
</g>
<g>
</g>
<g>
</g>
<g>
</g>
<g>
</g>
<g>
</g>
<g>
</g>
<g>
</g>
<g>
</g>
<g>
</g>
<g>
</g>
<g>
</g>
</svg>
