<svg height="512pt" viewBox="0 -14 512.00076 512" width="512pt" xmlns="http://www.w3.org/2000/svg"><path d="m356.304688 224.503906-16.859376-51.417968-54.464843-19.90625-281.914063 281.910156c-4.320312 4.320312-4.039062 11.417968.613282 15.375 173.304687 147.277344 352.625-225.960938 352.625-225.960938zm0 0" fill="#a5b0bc"/><path d="m339.445312 173.085938-15.734374-5.753907 11.992187 36.566407s-167.839844 349.328124-335.6914062 238.707031c.03125 2.914062 1.2578122 5.808593 3.6718752 7.859375 173.300781 147.277344 352.625-225.960938 352.625-225.960938zm0 0" fill="#77889a"/><g fill="#333a41"><path d="m156.488281 384.285156c-1.980469 0-3.957031-.753906-5.464843-2.261718l-9.8125-9.816407c-3.015626-3.015625-3.015626-7.90625 0-10.925781 3.019531-3.015625 7.910156-3.015625 10.925781 0l9.8125 9.8125c3.019531 3.019531 3.019531 7.910156 0 10.925781-1.507813 1.511719-3.484375 2.265625-5.460938 2.265625zm0 0"/><path d="m264.9375 275.835938c-1.980469 0-3.957031-.753907-5.464844-2.261719l-9.8125-9.8125c-3.019531-3.019531-3.019531-7.910157 0-10.929688 3.015625-3.015625 7.90625-3.015625 10.925782 0l9.8125 9.816407c3.019531 3.015624 3.019531 7.910156 0 10.925781-1.507813 1.507812-3.484376 2.261719-5.460938 2.261719zm0 0"/><path d="m198.226562 342.816406c-.699218 0-1.398437-.023437-2.097656-.070312-4.257812-.289063-7.480468-3.96875-7.191406-8.226563.285156-4.257812 3.984375-7.476562 8.226562-7.191406 4.824219.324219 9.683594-1.578125 13.324219-5.21875 3.636719-3.636719 5.539063-8.492187 5.214844-13.320313-.285156-4.257812 2.933594-7.941406 7.191406-8.226562 4.25-.285156 7.9375 2.933594 8.226563 7.1875.621094 9.277344-2.917969 18.496094-9.707032 25.289062-6.28125 6.277344-14.632812 9.777344-23.1875 9.777344zm0 0"/></g><path d="m436.976562 143.832031c11.734376-3.609375 20.921876-12.792969 24.527344-24.527343 3.609375-11.734376 12.792969-20.921876 24.527344-24.527344 11.734375-3.609375 20.917969-12.792969 24.527344-24.527344 3.550781-11.539062.429687-24.097656-8.109375-32.636719l-28.179688-28.179687c-12.578125-12.578125-32.96875-12.578125-45.542969 0l-112.128906 112.125 22.847656 51.527344 48.480469 19.800781c11.730469-3.609375 20.917969-12.792969 24.527344-24.527344 3.605469-11.734375 12.792969-20.921875 24.523437-24.527344zm0 0" fill="#de8957"/><path d="m502.449219 37.613281-20.601563-20.605469c8.539063 8.539063 11.65625 21.097657 8.109375 32.636719-3.609375 11.734375-12.792969 20.921875-24.527343 24.527344-11.734376 3.609375-20.917969 12.792969-24.527344 24.527344s-12.792969 20.921875-24.527344 24.527343c-11.734375 3.609376-20.917969 12.792969-24.527344 24.527344-3.605468 11.734375-12.792968 20.917969-24.527344 24.527344l-34.472656-14.082031 6.597656 14.886719 48.480469 19.800781c11.734375-3.609375 20.917969-12.792969 24.527344-24.527344 3.605469-11.734375 12.792969-20.917969 24.527344-24.527344s20.917969-12.792969 24.523437-24.527343c3.609375-11.734376 12.792969-20.917969 24.53125-24.527344 11.730469-3.605469 20.917969-12.792969 24.523438-24.527344 3.550781-11.542969.429687-24.097656-8.109375-32.636719zm0 0" fill="#c76d33"/><path d="m458.089844 54.4375c-5.585938-5.585938-14.648438-5.585938-20.238282 0-5.585937 5.589844-5.585937 14.648438 0 20.238281 5.589844 5.589844 14.652344 5.589844 20.238282 0 5.589844-5.589843 5.589844-14.648437 0-20.238281zm0 0" fill="#f8d070"/><path d="m402.835938 109.695312c-5.589844-5.589843-14.648438-5.589843-20.238282 0-5.589844 5.585938-5.589844 14.648438 0 20.234376 5.589844 5.589843 14.648438 5.589843 20.238282 0 5.585937-5.585938 5.585937-14.648438 0-20.234376zm0 0" fill="#f8d070"/><path d="m284.980469 153.179688 71.324219 71.324218c8.730468 8.730469 22.886718 8.730469 31.617187 0 8.730469-8.730468 8.730469-22.886718 0-31.617187l-71.324219-71.328125zm0 0" fill="#f8d070"/><path d="m387.925781 192.886719-20.605469-20.605469c8.730469 8.730469 8.730469 22.886719 0 31.617188-8.730468 8.734374-22.886718 8.734374-31.617187 0l20.601563 20.605468c8.730468 8.730469 22.886718 8.730469 31.621093 0 8.730469-8.730468 8.730469-22.886718 0-31.617187zm0 0" fill="#ffb25a"/></svg>