<svg height="512" viewBox="0 0 512 512" width="512" xmlns="http://www.w3.org/2000/svg"><g id="Layer_10" data-name="Layer 10"><path d="m488 256a231.935 231.935 0 0 1 -232 232 233.268 233.268 0 0 1 -40-3.44c-109.07-18.95-192-114.07-192-228.56 0-128.13 103.87-232 232-232s232 103.87 232 232z" fill="#fbd699"/><path d="m336 88a31.914 31.914 0 0 0 -24.028 10.878 35.994 35.994 0 0 0 -35.972-34.878 36 36 0 0 0 -36 36v68h128v-48a32 32 0 0 0 -32-32z" fill="#f55648"/><path d="m453.33 378.05a232.349 232.349 0 0 1 -237.33 106.51v-275.16a81.4 81.4 0 0 1 161.98-11.51l11.9 83.28a136.555 136.555 0 0 0 63.45 96.88z" fill="#eaeae8"/><path d="m120 384v-4.118a48 48 0 0 1 14.059-33.941l49.941-49.941h32v88a48 48 0 0 1 -48 48 48 48 0 0 1 -48-48z" fill="#f55648"/><path d="m104 248 80 48h32v-48z" fill="#da922a"/><path d="m104 248 112-40v40z" fill="#fbb540"/><circle cx="288" cy="208" fill="#da922a" r="16"/><path d="m407.994 392a7.967 7.967 0 0 1 -4.794-1.6 127.654 127.654 0 0 1 -45.882-66.663l-5.01-17.54a8 8 0 0 1 15.384-4.394l5.011 17.539a111.554 111.554 0 0 0 40.097 58.258 8 8 0 0 1 -4.806 14.4z" fill="#dcdcda"/><path d="m425.705 86.3a240 240 0 1 0 -339.405 339.405 240 240 0 1 0 339.405-339.405zm-393.705 169.7a224 224 0 0 1 382.392-158.392 224.274 224.274 0 0 1 36.4 269.171 128.142 128.142 0 0 1 -52.992-86.741l-11.9-83.28a88.776 88.776 0 0 0 -9.9-29.928v-46.83a39.986 39.986 0 0 0 -58.72-35.34 44.02 44.02 0 0 0 -85.28 15.34v48.471a88.6 88.6 0 0 0 -23.694 53.782l-107 38.213a1.474 1.474 0 0 0 -.138.068 7.984 7.984 0 0 0 -1.288 14.326l71.22 42.728-42.7 42.7a55.637 55.637 0 0 0 -16.4 39.6v4.112a55.964 55.964 0 0 0 96 39.139v51.724a224.17 224.17 0 0 1 -176-218.863zm328-110.4c-1.3-1.277-2.634-2.53-4.019-3.732a89.47 89.47 0 0 0 -107.981-7.01v-34.858a27.994 27.994 0 0 1 55.974-.877 8 8 0 0 0 14 5.042 23.993 23.993 0 0 1 42.026 15.835zm-152 94.4h-57.814l57.814-20.648zm0 16v32h-21.783l-53.334-32zm-20.687 48h20.687v80a40 40 0 0 1 -80 0v-4.118a39.729 39.729 0 0 1 11.716-28.282zm227.079 110.392a222.535 222.535 0 0 1 -158.392 65.608 227.145 227.145 0 0 1 -32-2.266v-268.334a73.4 73.4 0 0 1 146.061-10.379l11.9 83.281a144.1 144.1 0 0 0 60.393 98.109 226.343 226.343 0 0 1 -27.962 33.981z"/><path d="m288 184a24 24 0 1 0 24 24 24.028 24.028 0 0 0 -24-24zm0 32a8 8 0 1 1 8-8 8.009 8.009 0 0 1 -8 8z"/><path d="m412.8 377.6a111.554 111.554 0 0 1 -40.1-58.258l-5.008-17.542a8 8 0 0 0 -15.384 4.394l5.01 17.54a127.654 127.654 0 0 0 45.882 66.666 8 8 0 0 0 9.6-12.8z"/></g></svg>