<svg height="512" viewBox="0 0 512 512" width="512" xmlns="http://www.w3.org/2000/svg"><g id="Farm_Products_Conveyor" data-name="Farm Products Conveyor"><g id="Filled"><rect fill="#90a4ae" height="96" rx="48" width="496" x="8" y="408"/><path d="m200.946 408h-144.946a48 48 0 0 0 -48 48 48 48 0 0 0 48 48h47.464a216.912 216.912 0 0 1 97.482-96z" fill="#7e97a3"/><path d="m320 120h-48a24 24 0 0 0 -24 24v56l32 16v-64h40z" fill="#90a4ae"/><path d="m416 120h48a24 24 0 0 1 24 24v56l-32 16v-64h-40z" fill="#90a4ae"/><path d="m224 248h-160a8 8 0 0 0 -8 8v152h176v-152a8 8 0 0 0 -8-8z" fill="#f7e0ba"/><rect fill="#f7e0ba" height="160" rx="8" width="176" x="280" y="200"/><path d="m224 248h-8.807a180.014 180.014 0 0 1 -159.193 103.952v56.048h176v-152a8 8 0 0 0 -8-8z" fill="#f5d59f"/><path d="m448 200h-8.807a180.014 180.014 0 0 1 -159.193 103.952v48.048a8 8 0 0 0 8 8h160a8 8 0 0 0 8-8v-144a8 8 0 0 0 -8-8z" fill="#f5d59f"/><circle cx="152" cy="344" fill="#ea7432" r="32"/><circle cx="376" cy="296" fill="#ea7432" r="32"/><path d="m152.228 309.57s-17.29 8.039-30.608 1.541-17.62-25.074-17.62-25.074 17.289-8.039 30.607-1.54 17.621 25.073 17.621 25.073z" fill="#9ccc65"/><path d="m376.228 261.57s-17.29 8.039-30.608 1.541-17.62-25.074-17.62-25.074 17.289-8.039 30.607-1.54 17.621 25.073 17.621 25.073z" fill="#9ccc65"/><path d="m392 88v-40h-48v40l-24 16v64h96v-64z" fill="#90a4ae"/><path d="m320 142.828a147.652 147.652 0 0 1 86.378-45.243l-14.378-9.585v-40h-48v40l-24 16z" fill="#7e97a3"/><path d="m340.292 24h-156.292v32h156.292c16.373 28.292 59.708 16.576 59.708-16 0-32.555-43.327-44.307-59.708-16z" fill="#90a4ae"/><path d="m140.292 24h-140.292v32h140.292c16.373 28.292 59.708 16.576 59.708-16 0-32.555-43.327-44.307-59.708-16z" fill="#90a4ae"/><g fill="#cfd8dc"><circle cx="64" cy="456" r="16"/><circle cx="128" cy="456" r="16"/><circle cx="192" cy="456" r="16"/><circle cx="256" cy="456" r="16"/><circle cx="320" cy="456" r="16"/><circle cx="384" cy="456" r="16"/><circle cx="448" cy="456" r="16"/></g><path d="m362.587 238.978a36.009 36.009 0 0 1 -25.956 16.722 26.868 26.868 0 0 0 8.989 7.409c13.318 6.5 30.608-1.54 30.608-1.54s-3.435-14.791-13.641-22.591z" fill="#83bd46"/><circle cx="361.6" cy="289.6" fill="#fa9664" r="9.6"/><circle cx="377.6" cy="305.6" fill="#fa9664" r="6.4"/><path d="m406.769 287.214a52.154 52.154 0 0 1 -39.555 39.555 32 32 0 0 0 39.555-39.555z" fill="#e2601e"/><path d="m138.587 286.978a36 36 0 0 1 -25.956 16.722 26.868 26.868 0 0 0 8.989 7.409c13.318 6.5 30.608-1.54 30.608-1.54s-3.434-14.79-13.641-22.591z" fill="#83bd46"/><circle cx="141.601" cy="333.6" fill="#fa9664" r="9.6"/><circle cx="157.601" cy="349.6" fill="#fa9664" r="6.4"/><circle cx="73.6" cy="265.6" fill="#fbf2e2" r="9.6"/><circle cx="89.6" cy="281.6" fill="#fbf2e2" r="6.4"/><circle cx="297.6" cy="217.6" fill="#fbf2e2" r="9.6"/><circle cx="313.6" cy="233.6" fill="#fbf2e2" r="6.4"/><path d="m184 344a31.993 31.993 0 0 0 -1.231-8.784 52.15 52.15 0 0 1 -39.554 39.553 32 32 0 0 0 40.785-30.769z" fill="#e2601e"/><path d="m280 175.806a67.7 67.7 0 0 1 -32 15.11v9.084l32 16z" fill="#7e97a3"/><path d="m488 170.305a63.954 63.954 0 0 1 -32 19.653v26.042l32-16z" fill="#7e97a3"/><path d="m144 56a40.05 40.05 0 0 1 0-32h-43.02a68.033 68.033 0 0 1 -21.208 32z" fill="#7e97a3"/><path d="m344 56a40.05 40.05 0 0 1 0-32h-43.02a68.033 68.033 0 0 1 -21.208 32z" fill="#7e97a3"/></g><g id="Outline"><path d="m456 400h-400a56 56 0 0 0 0 112h400a56 56 0 0 0 0-112zm0 96h-400a40 40 0 0 1 0-80h400a40 40 0 0 1 0 80z"/><path d="m425.376 448h-18.752c-7.546-21.276-37.7-21.288-45.248 0h-18.752c-7.546-21.276-37.7-21.288-45.248 0h-18.752c-7.546-21.276-37.7-21.288-45.248 0h-18.752c-7.546-21.276-37.7-21.288-45.248 0h-18.752c-7.546-21.276-37.7-21.288-45.248 0h-18.752c-8.993-25.356-46.624-18.808-46.624 8s37.627 33.368 46.624 8h18.752c7.546 21.276 37.7 21.288 45.248 0h18.752c7.546 21.276 37.7 21.288 45.248 0h18.752c7.546 21.276 37.7 21.288 45.248 0h18.752c7.546 21.276 37.7 21.288 45.248 0h18.752c7.546 21.276 37.7 21.288 45.248 0h18.752c8.993 25.356 46.624 18.808 46.624-8s-37.628-33.364-46.624-8zm-361.376 16a8 8 0 1 1 8-8 8.009 8.009 0 0 1 -8 8zm64 0a8 8 0 1 1 8-8 8.009 8.009 0 0 1 -8 8zm64 0a8 8 0 1 1 8-8 8.009 8.009 0 0 1 -8 8zm64 0a8 8 0 1 1 8-8 8.009 8.009 0 0 1 -8 8zm64 0a8 8 0 1 1 8-8 8.009 8.009 0 0 1 -8 8zm64 0a8 8 0 1 1 8-8 8.009 8.009 0 0 1 -8 8zm64 0a8 8 0 1 1 8-8 8.009 8.009 0 0 1 -8 8z"/><path d="m232 384a8 8 0 0 0 8-8v-120a16.019 16.019 0 0 0 -16-16h-80a8 8 0 0 0 0 16h80v120a8 8 0 0 0 8 8z"/><path d="m64 240a16.019 16.019 0 0 0 -16 16v120a8 8 0 0 0 16 0v-120h16a8 8 0 0 0 0-16z"/><path d="m152 384a40 40 0 0 0 8.876-78.995c3.542-6.228 11.239-9 14.166-9a8 8 0 1 0 0-16c-6.491 0-15.864 3.418-22.79 10.235a36.715 36.715 0 0 0 -14.137-12.928c-16.552-8.078-36.641 1.082-37.488 1.476a8 8 0 0 0 -4.42 9.059c2.8 12.121 11.462 26.553 24.333 31.5-20.451 26.029-1.933 64.653 31.46 64.653zm0-64a24 24 0 1 1 -24 24 24.028 24.028 0 0 1 24-24zm-37.766-28.968c13.822-3.285 21.831.613 27.758 13.544-13.823 3.282-21.831-.614-27.758-13.544z"/><path d="m424 208a8 8 0 0 0 0-16h-80a8 8 0 0 0 0 16z"/><path d="m280 240a8 8 0 0 0 -8 8v104a16.019 16.019 0 0 0 16 16h160a16.019 16.019 0 0 0 16-16v-104a8 8 0 0 0 -16 0v104h-160v-104a8 8 0 0 0 -8-8z"/><path d="m320.206 239.842c2.86 12.342 11.6 26.6 24.334 31.5-20.451 26.034-1.933 64.658 31.46 64.658a40 40 0 0 0 8.876-78.995c3.542-6.228 11.239-9 14.166-9a8 8 0 0 0 0-16c-6.491 0-15.864 3.418-22.79 10.235a36.715 36.715 0 0 0 -14.137-12.928c-16.551-8.077-36.64 1.082-37.488 1.476a8 8 0 0 0 -4.421 9.054zm55.794 32.158a24 24 0 1 1 -24 24 24.028 24.028 0 0 1 24-24zm-10.008-15.424c-13.825 3.282-21.829-.614-27.758-13.544 5.158-1.225 21.831.614 27.758 13.544z"/><circle cx="368" cy="40" r="8"/><circle cx="168" cy="40" r="8"/><path d="m147.216 51.993c-4.388-7.583-5.132-2.512-139.216-3.993a8 8 0 0 0 0 16h128.011a39.984 39.984 0 0 0 63.968 0h136.021v19.719c-17.224 12.635-24 13.116-24 20.281v8h-40a32.036 32.036 0 0 0 -32 32v56a8 8 0 0 0 4.422 7.155c33.227 16.292 34.5 18.915 39.784 15.65 6.816-4.212 2.543-9.35 3.794-62.805h24v8a8 8 0 0 0 8 8h96a8 8 0 0 0 8-8v-8h24c1.279 54.645-2.89 58.674 3.794 62.805 5.324 3.289 6.749.547 39.784-15.65a8 8 0 0 0 4.422-7.155v-56a32.036 32.036 0 0 0 -32-32h-40c-.523-5.158 1.718-11.137-3.563-14.656l-20.437-13.625v-19.719h-.022a39.788 39.788 0 0 0 8.022-24c0-38.173-48.871-54.734-71.988-24h-104.012a8 8 0 0 0 0 16c110.643-1.48 111.013 3.271 115.216-3.993 12.298-21.251 44.784-12.4 44.784 11.993 0 24.357-32.47 33.272-44.784 11.993-4.286-7.409-3.34-2.493-140.016-3.993 8.51-41.753-45.756-65.8-71.184-32h-128.016a8 8 0 0 0 0 16c134.236-1.482 134.84 3.569 139.216-3.993a24 24 0 1 1 0 23.986zm164.784 92.007h-32a8 8 0 0 0 -8 8v51.056l-16-8v-51.056a16.019 16.019 0 0 1 16-16h40zm112-16h40a16.019 16.019 0 0 1 16 16v51.056l-16 8v-51.056a8 8 0 0 0 -8-8h-32zm-72-40v-11.367a39.79 39.79 0 0 0 32 .017c.651 8.042-1.949 14.333 3.562 18.006l20.438 13.625v51.719h-16v-32a8 8 0 0 0 -16 0v32h-16v-32a8 8 0 0 0 -16 0v32h-16v-51.719c17.224-12.635 24-13.116 24-20.281z"/><circle cx="112" cy="248" r="8"/><circle cx="312" cy="200" r="8"/></g></g></svg>