<svg height="433pt" viewBox="0 -1 433.99747 433" width="433pt" xmlns="http://www.w3.org/2000/svg"><path d="m366.609375 17.75 11.679687 67.339844-67.769531 8.800781 32.199219-43.710937.300781-.410157h.011719zm0 0" fill="#6fe3ff"/><path d="m327 181.21875v126.820312c0 5.066407-4.105469 9.171876-9.167969 9.171876h-70.089843v-77.261719l-61.480469-25.769531v103.03125h-70.089844c-5.066406 0-9.171875-4.105469-9.171875-9.171876v-126.820312zm0 0" fill="#e48e66"/><path d="m287.03125 118.507812 39.96875 62.710938h-110v-66.949219h62.300781c3.132813 0 6.046875 1.597657 7.730469 4.238281zm0 0" fill="#e48e66"/><path d="m247.742188 239.949219v77.261719h-61.480469v-103.03125zm0 0" fill="#f8ec7d"/><path d="m217 114.269531v66.949219h-110l39.96875-62.710938c1.683594-2.640624 4.601562-4.238281 7.730469-4.238281zm0 0" fill="#e48e66"/><path d="m123.480469 337.589844-32.199219 43.710937-.300781.410157h-.011719l-23.578125 32.019531-11.679687-67.339844zm0 0" fill="#6fe3ff"/><g fill="#63316d"><path d="m408.171875 127.109375c-3.566406 1.492187-5.25 5.589844-3.761719 9.15625 10.339844 24.734375 15.640625 51.277344 15.589844 78.082031 0 111.765625-90.925781 202.691406-202.691406 202.691406-41.722656.128907-82.453125-12.75-116.519532-36.84375l28.328126-38.457031c1.660156-2.257812 1.816406-5.289062.394531-7.703125-1.425781-2.417968-4.152344-3.75-6.933594-3.390625l-67.769531 8.800781c-1.890625.246094-3.605469 1.253907-4.738282 2.789063-1.132812 1.535156-1.585937 3.46875-1.261718 5.351563l11.679687 67.339843c.480469 2.761719 2.5625 4.972657 5.292969 5.617188 2.730469.640625 5.578125-.40625 7.242188-2.664063l19.453124-26.417968c78.933594 55.570312 185.101563 52.242187 260.402344-8.160157 75.296875-60.402343 101.574219-163.324219 64.449219-252.429687-1.492187-3.566406-5.589844-5.25-9.15625-3.761719zm-336.691406 269.257813-7.625-43.976563 44.261719-5.75-22.488282 30.527344-.101562.132812c-.066406.085938-.132813.167969-.199219.257813zm0 0"/><path d="m14 217.128906c0-111.761718 90.925781-202.691406 202.691406-202.691406 41.722656-.125 82.453125 12.753906 116.519532 36.847656l-28.328126 38.453125c-1.660156 2.257813-1.816406 5.289063-.394531 7.707031 1.425781 2.414063 4.152344 3.746094 6.933594 3.386719l67.769531-8.800781c1.894532-.242188 3.605469-1.25 4.738282-2.789062 1.132812-1.535157 1.585937-3.46875 1.261718-5.347657l-11.679687-67.339843c-.480469-2.761719-2.5625-4.972657-5.292969-5.617188s-5.578125.40625-7.242188 2.664062l-19.457031 26.414063c-78.929687-55.570313-185.101562-52.242187-260.398437 8.160156-75.300782 60.402344-101.574219 163.324219-64.449219 252.429688 1.492187 3.570312 5.589844 5.253906 9.160156 3.761719 3.566407-1.492188 5.25-5.59375 3.757813-9.160157-10.339844-24.730469-15.636719-51.273437-15.589844-78.078125zm348.519531-182.015625 7.625 43.976563-44.261719 5.75 22.488282-30.527344.101562-.132812c.066406-.082032.132813-.167969.199219-.257813zm0 0"/><path d="m333.738281 179.34375c-.011719-.039062-.019531-.078125-.027343-.113281-.089844-.289063-.191407-.574219-.316407-.851563-.019531-.046875-.042969-.089844-.066406-.136718-.109375-.234376-.234375-.460938-.367187-.679688-.023438-.035156-.035157-.070312-.058594-.101562l-39.96875-62.710938c-2.957032-4.671875-8.105469-7.496094-13.632813-7.480469h-124.601562c-5.527344-.015625-10.675781 2.808594-13.632813 7.476563l-39.964844 62.710937c-.023437.035157-.039062.070313-.058593.101563-.132813.21875-.257813.445312-.367188.679687-.023437.046875-.046875.089844-.066406.136719-.125.277344-.230469.5625-.316406.851562-.007813.035157-.019531.074219-.027344.113282-.070313.25-.125.507812-.164063.761718-.011718.074219-.023437.144532-.035156.214844-.039062.300782-.0625.601563-.0625.902344v126.820312c.011719 8.925782 7.242188 16.160157 16.167969 16.171876h201.660156c8.925781-.011719 16.15625-7.246094 16.167969-16.171876v-126.820312c0-.300781-.023438-.601562-.0625-.898438-.011719-.074218-.023438-.144531-.035156-.214843-.039063-.257813-.09375-.511719-.164063-.761719zm-52.609375-57.074219 33.109375 51.949219h-90.238281v-52.949219h55.300781c.738281.003907 1.425781.378907 1.828125 1zm-128.253906 0c.398438-.617187 1.085938-.996093 1.824219-1h55.300781v52.953125h-90.238281zm87.867188 187.941407h-47.480469v-85.507813l47.480469 19.902344zm77.089843 0h-63.089843v-70.261719c0-2.820313-1.695313-5.367188-4.296876-6.457031l-61.480468-25.769532c-2.160156-.90625-4.628906-.667968-6.582032.628906-1.949218 1.296876-3.121093 3.484376-3.121093 5.828126v96.03125h-63.089844c-1.199219-.003907-2.171875-.972657-2.171875-2.171876v-119.820312h206v119.820312c0 1.199219-.972656 2.167969-2.167969 2.171876zm0 0"/></g></svg>