<svg id="_x33_0" enable-background="new 0 0 64 64" height="512" viewBox="0 0 64 64" width="512" xmlns="http://www.w3.org/2000/svg"><g><g><g><path d="m20 17v4.42c0 1.03-.31 2.04-.88 2.9-.72 1.08-1.82 1.85-3.08 2.17l-1.72.43-1.32-.92-.6-1.8c-.24-.71-.91-1.2-1.67-1.2-.47 0-.92.19-1.25.52l-1.19 1.19c-.18.18-.29.44-.29.7v1.59l-2.04-.51c-1.26-.32-2.36-1.09-3.08-2.17-.57-.86-.88-1.87-.88-2.9v-2.42h3l1-2z" fill="#ccd1d9"/></g><g><path d="m21.81 32.17-.83 2.9c-1.13.21-2.13.9-2.71 1.89l-2.18-3.05-1.44-2.01c-.41-.57-1.06-.9-1.76-.9-.57 0-1.12.23-1.52.63l-1.43 1.43-1.78-2.81c-.11-.16-.16-.35-.16-.54v-2.71-1.59c0-.26.11-.52.29-.7l1.19-1.19c.33-.33.78-.52 1.25-.52.76 0 1.43.49 1.67 1.2l.6 1.8 1.32.92z" fill="#aab2bd"/></g><g><path d="m16.09 33.91-3.42 3.42-2.73-4.27 1.43-1.43c.4-.4.95-.63 1.52-.63.7 0 1.35.33 1.76.9z" fill="#fcd770"/></g><g><path d="m16.09 33.91 2.18 3.05c-.11.18-.2.36-.28.55l-.99 2.49h-1c-.55 0-1 .45-1 1l-2.33-3.67z" fill="#fcd770"/></g><g><path d="m20 14v3h-14l-1 2h-3v-7c0-.55.45-1 1-1h2l1 2h13c.55 0 1 .45 1 1z" fill="#e6e9ed"/></g><g><path d="m21.81 32.17 3.19-11.17h4l-4 14h-3.29c-.25 0-.49.02-.73.07z" fill="#fc6e51"/></g><g><path d="m44 18v2c0 .55-.45 1-1 1h-4-10-4c-.55 0-1-.45-1-1v-2c0-.55.45-1 1-1h18c.55 0 1 .45 1 1z" fill="#fc6e51"/></g><g><path d="m47 35v2h-3.43l-4.57-16h4z" fill="#fc6e51"/></g><g><path d="m57 23v4h-3c-.55 0-1 .45-1 1v7h-4v-7c0-2.76 2.24-5 5-5z" fill="#ccd1d9"/></g><g><path d="m33 49v4h-4c.55 0 1-.45 1-1 0-3.32-1.34-6.32-3.51-8.49s-5.17-3.51-8.49-3.51h-1l.99-2.49c.08-.19.17-.37.28-.55.58-.99 1.58-1.68 2.71-1.89.24-.05.48-.07.73-.07h3.29 3l2 2h3v4 4z" fill="#ff826e"/></g><g><path d="m47 37v-2h2 4 1c3.31 0 6 2.69 6 6v4.36c-2.15-3.23-5.83-5.36-10-5.36h-2c-.34 0-.67.01-1 .04z" fill="#ff826e"/></g><g><path d="m47 40.04c-2.92.24-5.54 1.52-7.49 3.47-.18.18-.35.36-.51.55v-3.06-4h4.57 3.43z" fill="#ff826e"/></g><g><path d="m33 37v16h4c-.55 0-1-.45-1-1 0-1.04.13-2.04.38-3 .37-1.46 1.01-2.81 1.87-4 .23-.33.48-.64.75-.94v-7.06z" fill="#fc6e51"/></g><g><path d="m30 52c0 .55-.45 1-1 1h-3c0-2.48-1.01-4.74-2.64-6.36-1.62-1.63-3.88-2.64-6.36-2.64-.69 0-1.36.08-2 .22v-3.22c0-.55.45-1 1-1h1 1c3.32 0 6.32 1.34 8.49 3.51s3.51 5.17 3.51 8.49z" fill="#ccd1d9"/></g><g><path d="m62 52c0 .55-.45 1-1 1h-3c0-2.48-1.01-4.74-2.64-6.36-1.62-1.63-3.88-2.64-6.36-2.64s-4.74 1.01-6.36 2.64c-1.63 1.62-2.64 3.88-2.64 6.36h-3c-.55 0-1-.45-1-1 0-1.04.13-2.04.38-3 .37-1.46 1.01-2.81 1.87-4 .23-.33.48-.64.75-.94.16-.19.33-.37.51-.55 1.95-1.95 4.57-3.23 7.49-3.47.33-.03.66-.04 1-.04h2c4.17 0 7.85 2.13 10 5.36 1.26 1.9 2 4.18 2 6.64z" fill="#ccd1d9"/></g><g><path d="m17 56c1.66 0 3-1.34 3-3s-1.34-3-3-3-3 1.34-3 3 1.34 3 3 3zm6.36-9.36c1.63 1.62 2.64 3.88 2.64 6.36s-1.01 4.74-2.64 6.36c-1.62 1.63-3.88 2.64-6.36 2.64s-4.74-1.01-6.36-2.64c-1.63-1.62-2.64-3.88-2.64-6.36s1.01-4.74 2.64-6.36c1.17-1.18 2.68-2.03 4.36-2.42.64-.14 1.31-.22 2-.22 2.48 0 4.74 1.01 6.36 2.64z" fill="#838f9b"/></g><g><path d="m49 56c1.66 0 3-1.34 3-3s-1.34-3-3-3-3 1.34-3 3 1.34 3 3 3zm6.36-9.36c1.63 1.62 2.64 3.88 2.64 6.36s-1.01 4.74-2.64 6.36c-1.62 1.63-3.88 2.64-6.36 2.64s-4.74-1.01-6.36-2.64c-1.63-1.62-2.64-3.88-2.64-6.36s1.01-4.74 2.64-6.36c1.62-1.63 3.88-2.64 6.36-2.64s4.74 1.01 6.36 2.64z" fill="#838f9b"/></g></g><g><path d="m49 57c2.206 0 4-1.794 4-4s-1.794-4-4-4-4 1.794-4 4 1.794 4 4 4zm0-6c1.103 0 2 .897 2 2s-.897 2-2 2-2-.897-2-2 .897-2 2-2z"/><path d="m58.949 54h2.051c1.103 0 2-.897 2-2 0-2.535-.74-4.895-2-6.896v-4.104c0-3.859-3.14-7-7-7v-6h4v-6h-4c-3.309 0-6 2.691-6 6v6h-.246l-3.547-12.416c.479-.366.793-.936.793-1.584v-2c0-1.103-.897-2-2-2h-18c-1.103 0-2 .897-2 2v2c0 .648.314 1.218.793 1.584l-2.56 8.959-4.587-3.211c1.348-.427 2.518-1.276 3.307-2.46.685-1.027 1.047-2.223 1.047-3.456v-7.416c0-1.103-.897-2-2-2h-12.382l-1-2h-2.618c-1.103 0-2 .897-2 2v9.416c0 1.233.362 2.429 1.046 3.456.861 1.292 2.166 2.212 3.672 2.588l1.282.32v1.929c0 .38.108.75.313 1.074l6.687 10.509v2.17c-4.053 1.277-7 5.069-7 9.538 0 3.273 1.588 6.175 4.026 8h-10.026v2h30v-2h-8.026c2.186-1.637 3.689-4.139 3.975-7h12.101c.285 2.861 1.788 5.363 3.975 7h-4.025v2h24v-2h-8.026c2.187-1.637 3.69-4.139 3.975-7zm-8.949-26c0-2.206 1.794-4 4-4h2v2h-2c-1.103 0-2 .897-2 2v6h-2zm-2 8h6c2.757 0 5 2.243 5 5v1.641c-2.338-2.249-5.507-3.641-9-3.641h-2zm-12.364 12h-1.636v-2h2.479c-.334.638-.618 1.306-.843 2zm-4.343-13.293 1.414-1.414-3-3-1.414 1.414.793.793-1.5 1.5h-1.26l3.429-12h8.492l4 14h-11.833l-1-1 1.086-1.086zm-3.619-12.707-3.429 12h-1.92l3.429-12zm14.572 0 3.754 13.139v.861h-1.675l-4-14zm-4.472 22h-3.774v-2h4v1.705c-.079.095-.149.198-.226.295zm.226-6v2h-4v-2zm2 0h6v1.17c-2.24.348-4.29 1.264-6 2.604zm-15-20h18l.001 2h-18.001zm-20.618-6 1 2h13.618v2h-13.618l-1 2h-1.382v-6zm3.204 12c-.373.372-.586.888-.586 1.414v.305l-.796-.199c-1.023-.256-1.909-.88-2.494-1.758-.464-.697-.71-1.508-.71-2.346v-1.416h2.618l1-2h12.382v3.416c0 .838-.246 1.649-.71 2.347-.585.878-1.47 1.502-2.494 1.758l-1.28.32-.672-.47-.494-1.481c-.377-1.131-1.43-1.89-2.62-1.89-.738 0-1.432.288-1.953.81zm1.414 1.414 1.191-1.19c.376-.377 1.094-.206 1.262.298l.703 2.108 8.497 5.948-.475 1.663c-.692.221-1.324.586-1.854 1.074l-2.866-3.998c-.592-.825-1.55-1.317-2.565-1.317-.843 0-1.635.328-2.231.925l-.543.542-1.119-1.758zm6.067 13.828-1.126-1.769 2.021-2.02 1.148 1.601c-.013.031-.031.059-.044.09l-.743 1.856h-.323c-.339 0-.653.093-.933.242zm-2.226-3.497-1.622-2.549.857-.856c.478-.478 1.362-.405 1.757.144l.948 1.323zm10.471 22.153-1.362-1.363-1.414 1.414 1.362 1.362c-1.106.86-2.44 1.436-3.898 1.619v-1.93h-2v1.931c-1.458-.183-2.792-.759-3.898-1.619l1.362-1.362-1.414-1.414-1.362 1.363c-.86-1.106-1.436-2.44-1.619-3.898h1.931v-2h-1.931c.183-1.458.759-2.792 1.619-3.898l1.362 1.363 1.414-1.414-1.362-1.362c1.106-.86 2.44-1.436 3.898-1.619v1.929h2v-1.931c1.458.183 2.792.759 3.898 1.619l-1.362 1.362 1.414 1.414 1.362-1.363c.86 1.106 1.436 2.44 1.619 3.898h-1.931v2h1.931c-.183 1.459-.759 2.793-1.619 3.899zm3.637-5.898c-.503-5.046-4.773-9-9.949-9-.338 0-.671.018-1 .051v-2.051h2c6.065 0 11 4.935 11.001 11zm-8.481-12.976.455-1.138c.458-1.146 1.551-1.886 2.785-1.886h5.878l2 2h2.414v14h-1c0-7.01-5.581-12.727-12.532-12.976zm15.532 12.976v-2h1.17c-.101.654-.17 1.318-.17 2zm14-11h2c6.065 0 11 4.935 11 11h-2.051c-.503-5.046-4.773-9-9.949-9s-9.446 3.954-9.949 9h-2.051c0-6.065 4.935-11 11-11zm-6.931 11c.183-1.458.759-2.792 1.619-3.898l1.362 1.363 1.414-1.414-1.362-1.362c1.106-.86 2.44-1.436 3.898-1.619v1.93h2v-1.931c1.458.183 2.792.759 3.898 1.619l-1.362 1.362 1.414 1.414 1.362-1.363c.86 1.106 1.436 2.44 1.619 3.898h-1.931v2h1.931c-.183 1.458-.759 2.792-1.619 3.898l-1.362-1.363-1.414 1.414 1.362 1.362c-1.106.86-2.44 1.436-3.898 1.619v-1.929h-2v1.931c-1.458-.183-2.792-.759-3.898-1.619l1.362-1.362-1.414-1.414-1.362 1.363c-.86-1.106-1.436-2.44-1.619-3.898h1.931v-2h-1.931z"/><path d="m17 49c-2.206 0-4 1.794-4 4s1.794 4 4 4 4-1.794 4-4-1.794-4-4-4zm0 6c-1.103 0-2-.897-2-2s.897-2 2-2 2 .897 2 2-.897 2-2 2z"/><path d="m33 61h4v2h-4z"/></g></g></svg>