<?xml version="1.0" encoding="iso-8859-1"?>
<!-- Generator: Adobe Illustrator 19.0.0, SVG Export Plug-In . SVG Version: 6.00 Build 0)  -->
<svg version="1.1" id="Capa_1" xmlns="http://www.w3.org/2000/svg" xmlns:xlink="http://www.w3.org/1999/xlink" x="0px" y="0px"
	 viewBox="0 0 386.151 386.151" style="enable-background:new 0 0 386.151 386.151;" xml:space="preserve">
<path style="fill:#FFEACC;" d="M255.676,249.6l0.4,2.4l1.2,3.6l0.8,2c2.4,3.6,6,5.6,10,6l0,0c3.2,0.4,6.4-0.4,9.2-2.4
	c0.8-0.4,1.6-1.2,2.4-1.6l0.8-1.2l1.6-2l0.8-2l0.4-1.2l0.4-2v-20l0,0V20.4c0-3.6-1.6-7.2-4-10l0,0c-2.8-2.8-6-4-10-4
	c-3.6,0-7.2,1.6-10,4l0,0c-2.4,2.8-4,6-4,10l0,0L255.676,249.6z"/>
<path style="fill:#9E8180;" d="M269.676,382.4c-2,0-4-0.4-5.6-1.6c-3.2-1.2-6-3.6-8-6.4c-2.4-3.2-3.6-7.2-3.2-11.2v-52.4
	c0.4-4.8-1.2-9.6-4-13.2c-1.2-1.6-3.2-2.4-5.2-2.4c-2.4,0-5.2,0.4-7.6,0.8c-1.2,0.4-2,0.8-2.8,1.6c-1.6,2.8-2.4,5.6-2.4,8.8v58
	c0,4.8-1.6,9.6-5.2,12.8c-3.6,3.6-3.6,5.2-8.4,5.2c-2.4,0-4.8-0.4-7.2-1.6c-2.4-0.8-4.4-2.4-6-4c-3.6-3.6-5.2-8-5.2-12.8v-6l0,0V240
	c0-6.4,5.2-11.6,11.6-11.6l0,0h52.8V250l2,6.4l0,0l0.4,0.4c1.2,0.8,2.4,1.2,4,1.2l0,0c1.6,0,3.2-0.4,4.4-1.2l0.4-0.4l0.8-1.2
	l1.2-2.8l0.8-24.8h52c6.4,0,11.6,5.2,11.6,11.6l0,0V358v5.6c0.4,7.2-4.4,14-11.2,16.8c-2.4,0.8,0.4,1.2-2,1.2s-4.8-0.4-7.2-1.2
	c-6.8-2.8-11.6-9.2-11.2-16.8v-52.8c0-5.6,0-10.4-2.4-13.2c-1.6-2-8.8-2.4-10.4-2.4s-3.2,0.4-4.8,0.8c-1.2,0.4-2,0.8-2.8,1.6
	c-1.6,2.8-2.4,5.6-2.4,8.8v58c0,4.8-2,9.6-5.2,12.8C278.076,380,274.076,382,269.676,382.4z"/>
<path style="fill:#FFEACC;" d="M118.476,107.2l-2.4,37.6v174.4h-20.8l-6-210l2.8-4.4C98.076,99.2,118.476,100.8,118.476,107.2z"/>
<path style="fill:#F6D4A4;" d="M116.076,109.2c0-4-8.4-8-11.6-8v217.6l14,1.2L116.076,109.2z"/>
<g>
	<path style="fill:#9E8180;" d="M92.076,380.4c-4.8,0-9.6-2-13.2-5.6c-2-2-3.2-4.4-3.2-7.2c0.4-7.6,10.4-11.6,16-11.6h24.4
		c6.8,0,12,5.6,12,12s-5.6,12-12,12h-24V380.4z"/>
	<path style="fill:#9E8180;" d="M116.476,147.6v-34.8c0-6.4-5.2-11.6-11.6-11.6c-6,0-11.2,4.8-11.6,10.8v35.6h-34.8
		c-6,0-10.8-4.8-10.8-10.8V64c0-31.2,25.2-56.4,56.4-56.4s56.4,25.2,56.4,56.4v72.8c0,6-4.8,10.8-10.8,10.8H116.476z"/>
</g>
<g>
	<path style="fill:#955C5B;" d="M117.276,100.4c3.2,3.2,5.2,7.6,5.2,12.4v28.8h28c2.4,0,4.8-2,4.8-4.8V64c0-28-22.8-50.4-50.8-50.4
		v81.6C109.276,95.2,114.076,97.2,117.276,100.4z"/>
	<path style="fill:#955C5B;" d="M120.876,357.6h-16.4V378h16.4c5.6-1.2,9.2-6.4,8-12C128.076,361.6,124.876,358.4,120.876,357.6
		L120.876,357.6z"/>
</g>
<path style="fill:#F6D4A4;" d="M283.676,235.6V14.4c0-2-1.6-3.6-4-4.8c-3.2-1.6-6.4-2-10-2v254.8c3.6,0,6.8-0.8,10-2l3.2-2.4
	l0.8-1.2V235.6z"/>
<path style="fill:#955C5B;" d="M340.476,240c0-6.4-5.2-11.6-11.2-11.6h-52.4l-0.8,24.8l-1.2,2.8l-0.8,1.2l-0.4,0.4
	c-1.2,0.8-2.4,1.2-4,1.2v124l0,0c4.4,0,8.4-2,11.2-5.2c3.6-3.6,5.2-8,5.2-12.8V306c0-3.2,0.8-6,2.4-8.8c0.8-0.8,1.6-1.2,2.8-1.6
	c1.6-0.4,3.2-0.4,4.8-0.8c1.6,0,8.8,0.4,10.4,2.4c2.4,2.8,2.4,7.6,2.4,13.2v53.2c-0.4,7.2,4.4,14,11.2,16.8c2.4,0.8,4.8,1.2,7.2,1.2
	c2.4,0-0.4-0.4,2-1.2c6.8-2.8,11.6-9.2,11.2-16.8V358L340.476,240z"/>
<g>
	<path style="fill:#4C160F;" d="M150.076,150.8c8.8,0,16-7.2,16-16V62c0-34-27.6-62-62-62l0,0c-34,0-62,27.6-62,62v72.8
		c0,4,1.6,8,4.4,11.2l0.4,0.4c3.2,3.2,7.2,4.8,11.2,4.8h28.8v164c-17.6,7.2-29.2,24-29.2,43.2v3.6c0,5.6,4.4,10,10,10h7.6
		c0.8,2.4,2,4.8,4,6.8l0,0c3.2,3.2,7.6,5.2,12.4,5.2h24.4c4.8,0,9.2-2,12.4-5.2l0,0c2-2,3.2-4,4-6.8h7.6c5.6,0,10-4.4,10-10v-3.6
		c0-18.8-11.2-35.6-28.4-42.8V150.8H150.076z M120.876,372.4L120.876,372.4c-1.2,1.2-2.8,1.6-4.4,1.6h-24.4c-1.6,0-3.2-0.8-4.4-1.6
		l0,0c-2.4-2.4-2.4-6.4,0-8.8l0,0c1.2-1.2,2.8-1.6,4.4-1.6h24.4c1.6,0,3.2,0.8,4.4,1.6l0,0C123.276,366.4,123.276,370,120.876,372.4
		L120.876,372.4z M128.876,335.6c6.4,6.4,10.4,15.6,10.4,24.8v2.4h-6c-1.2-2.4-2.4-4.4-4.4-6c-3.2-3.2-7.6-5.2-12.4-5.2h-24.4
		c-4.8,0-9.2,1.6-12.4,5.2c-2,1.6-3.2,4-4.4,6h-6v-2.4c0-18.8,15.2-34.4,34-34.8h1.2c3.2,0,6.8,0.4,10,1.6h0.4
		C120.476,328.8,125.276,331.6,128.876,335.6L128.876,335.6z M98.476,314V112.8c0-3.2,2.4-6,6-6c3.2,0,6.4,2.4,6.4,5.6v0.4v201.6
		c-2-0.4-3.6-0.4-5.6-0.4h-2.8C101.276,314,100.076,314,98.476,314L98.476,314z M104.076,95.2c-9.6,0.4-17.2,8-17.2,17.6v28.8h-28.8
		c-1.2,0-2.4-0.4-3.2-1.2l0,0c-0.8-0.8-1.2-2-1.2-3.2V64c0-28,22.8-50.4,50.4-50.4l0,0c28,0,50.4,22.8,50.4,50.4v72.8
		c0,2.4-2,4.8-4.8,4.8h-28v-28.8C121.676,103.2,114.076,95.2,104.076,95.2C104.476,95.2,104.476,95.2,104.076,95.2L104.076,95.2z"/>
	<path style="fill:#4C160F;" d="M305.276,366.4c0,5.2,2,10,5.6,13.6l0.4,0.4c7.6,7.2,19.6,7.2,27.2-0.4l0.4-0.4
		c3.6-3.6,5.2-8.4,5.2-13.2V236.8c0-3.2-1.2-6-3.6-8.4l0,0c-2-2-5.2-3.6-8.4-3.2h-44.4V20.4c0-4.8-2-9.2-5.2-12.8l0,0
		c-3.2-3.2-8-5.2-12.8-5.2l0,0c-4.8,0-9.2,2-12.8,5.2l-0.4,0.4c-3.2,3.2-4.8,7.6-4.8,12.4v204.8h-44.8c-3.2,0-6,1.2-8.4,3.6l0,0
		c-2,2-3.6,5.2-3.6,8.4v129.6c0,5.2,2,10,5.6,13.6l0.4,0.4c7.6,7.2,19.6,7.2,27.2-0.4l0,0c3.6-3.6,5.6-8.4,5.6-13.6V306
		c0-4.4,3.6-8,8-8c2.4,0,4.4,0.8,6,2.4l0.4,0.4c1.2,1.6,2,3.6,2,5.6v60.4c0,5.2,2,10,5.6,13.6l0.4,0.4c7.6,7.2,19.6,7.2,27.2-0.4
		l0,0c3.6-3.6,5.6-8.4,6-13.6V306c0-4.4,3.6-8,8-8c2.4,0,4.4,0.8,6,2.4l0.4,0.4c0.8,1.2,1.6,3.2,1.6,5.2V366.4L305.276,366.4z
		 M262.876,249.6V20.4c0-1.6,0.8-3.2,1.6-4.4h0.4c1.2-1.2,2.8-2,4.8-2l0,0c1.6,0,3.6,0.8,4.8,2l0,0c1.2,1.2,2,2.8,2,4.8V250
		c0,3.6-2.4,6.4-6,6.8h-0.4c-3.2,0.4-6.4-2.4-6.4-5.6C262.876,250.4,262.876,250,262.876,249.6z M297.276,286.8
		c-5.2,0-10,2-13.6,5.6l0,0c-3.6,3.6-5.6,8.4-6,13.6v60.4c0,2-0.8,4-2.4,5.6l0,0c-3.2,3.2-8,3.2-11.2,0.4l-0.4-0.4
		c-1.6-1.6-2.4-3.6-2.4-5.6V306c0-4.8-2-9.6-5.2-13.2l-0.4-0.4c-7.6-7.6-20-7.6-27.2,0l0,0l0,0c-3.6,3.6-5.6,8.4-6,13.6v60.4
		c0,2-0.8,4-2.4,5.6l0,0c-3.2,3.2-8,3.2-11.2,0.4l-0.4-0.4c-1.6-1.6-2.4-3.6-2.4-5.6V236.8c0,0,0,0,0-0.4h0.4h44.8v13.2
		c-0.4,9.6,7.2,17.6,16.8,18c0.4,0,0.8,0,1.2,0c9.2,0.8,17.2-6,18-15.2c0-0.8,0-1.6,0-2.8v-13.2h44.8h0.4l0,0c0,0,0,0,0,0.4v129.6
		c0,2-0.8,4-2,5.6l-0.4,0.4c-3.2,3.2-8,3.2-11.2,0.4l-0.4-0.4c-1.6-1.6-2.4-3.6-2.4-5.6V306c0-4.8-2-9.6-5.2-13.2l-0.4-0.4
		C307.276,288.8,302.476,286.8,297.276,286.8z"/>
</g>
<g>
</g>
<g>
</g>
<g>
</g>
<g>
</g>
<g>
</g>
<g>
</g>
<g>
</g>
<g>
</g>
<g>
</g>
<g>
</g>
<g>
</g>
<g>
</g>
<g>
</g>
<g>
</g>
<g>
</g>
</svg>
