<svg height="512pt" viewBox="-31 0 512 512" width="512pt" xmlns="http://www.w3.org/2000/svg"><g fill-rule="evenodd"><path d="m230.957031 7.496094c-21.085937 0-39.734375 7.910156-51.1875 20.097656-2.292969-.226562-4.648437-.339844-7.027343-.339844-30.496094 0-55.210938 18.964844-55.210938 42.351563v.085937c-25.566406 1.160156-45.800781 17.429688-45.800781 37.300782l153.277343 24.492187 159.195313-24.492187c0-19.871094-20.234375-36.140626-45.800781-37.300782v-.085937c0-23.386719-24.714844-42.351563-55.210938-42.351563l-1.359375.027344c-11.480469-12.015625-29.988281-19.785156-50.875-19.785156zm0 0" fill="#a66d30"/><path d="m400.726562 154.417969-181.789062-23.695313-169.628906 23.695313c-21.9375 75.488281-36.417969 184.480469-20.859375 283.300781l184.765625 27.667969 208.371094-27.667969c15.5625-98.820312 1.078124-207.8125-20.859376-283.300781zm0 0" fill="#f5df87"/><path d="m225.03125 106.996094h-175.949219c-13.035156 0-23.722656 10.6875-23.722656 23.726562 0 13.007813 10.6875 23.695313 23.722656 23.695313h358.164063c13.039062 0 23.695312-10.6875 23.695312-23.726563 0-13.007812-10.65625-23.695312-23.695312-23.695312zm0 0" fill="#d9a13f"/><path d="m421.585938 437.71875h-393.136719c-29.617188 17.574219-32.648438 66.785156 22.84375 66.785156h347.449219c55.496093 0 52.460937-49.210937 22.84375-66.785156zm0 0" fill="#d9a13f"/><path d="m172.742188 27.253906c-30.496094 0-55.210938 18.964844-55.210938 42.351563v.085937c-25.566406 1.160156-45.800781 17.429688-45.800781 37.300782h108.777343c4.703126-39.457032 31.316407-74.152344 70.601563-96.972657-6.351563-1.644531-13.125-2.523437-20.152344-2.523437-21.085937 0-39.734375 7.910156-51.1875 20.097656-2.292969-.226562-4.648437-.339844-7.027343-.339844zm0 0" fill="#6e3e0b"/><path d="m65.832031 106.996094h-16.75c-13.035156 0-23.722656 10.6875-23.722656 23.726562 0 13.007813 10.6875 23.695313 23.722656 23.695313h47.078125c-5.214844 0-10.03125-1.726563-13.972656-4.589844-5.867188-4.339844-9.71875-11.3125-9.71875-19.105469 0-9.441406 5.582031-17.605468 13.574219-21.433594 3.089843-1.472656 6.519531-2.292968 10.117187-2.292968zm0 0" fill="#a66d30"/><path d="m82.046875 154.417969h-32.738281c-21.9375 75.488281-36.417969 184.480469-20.859375 283.300781h32.992187c-15.589844-98.816406-1.105468-207.8125 20.832032-283.300781zm0 0" fill="#d9a13f"/><path d="m75.554688 437.71875h-47.105469c-29.617188 17.574219-32.648438 66.785156 22.84375 66.785156h47.105469c-50.136719 0-52.488282-40.195312-30.609376-60.890625 2.324219-2.210937 4.933594-4.195312 7.765626-5.894531zm0 0" fill="#a66d30"/><path d="m170.304688 205.1875c-19.445313.171875-26.414063 11.738281-26.105469 29.933594 1.871093 116.59375 80.691406 161.890625 131.792969 117.074218.171874-.171874.339843-.3125.511718-.453124l.28125-.257813c58.328125-52.46875-13.660156-142.355469-106.480468-146.296875zm0 0" fill="#8fde56"/><path d="m168.121094 205.273438c-17.769532.992187-24.203125 12.359374-23.921875 29.847656 1.816406 113.613281 76.695312 159.535156 127.824219 120.332031-48.632813 16.015625-106.226563-31.578125-107.8125-131.046875-.140626-7.679688 1.046874-14.171875 3.910156-19.132812zm0 0" fill="#47a831"/></g><path d="m429.71875 434.125c6.699219-45.378906 7.695312-94.964844 2.96875-147.476562-3.882812-43.074219-11.503906-86.027344-22.117188-124.910157 15.640626-1.667969 27.867188-14.941406 27.867188-31.046875 0-17.199218-13.992188-31.195312-31.191406-31.195312h-16.339844c-3.925781-18.574219-22.179688-33.398438-45.585938-36.6875-4.105468-23.839844-29.507812-42.371094-60.414062-43.03125-13.398438-12.605469-32.855469-19.777344-53.949219-19.777344-21.1875 0-40.660156 7.199219-54.0625 19.863281-1.375-.070312-2.761719-.105469-4.152343-.105469-31.648438 0-57.898438 18.734376-62.117188 43.050782-23.414062 3.285156-41.671875 18.109375-45.597656 36.6875h-15.945313c-17.214843 0-31.21875 13.996094-31.21875 31.226562 0 13.96875 9.242188 25.824219 21.9375 29.785156-10.792969 39.203126-18.527343 82.613282-22.449219 126.136719-4.730468 52.515625-3.730468 102.101563 2.964844 147.476563-15.769531 11.625-23.671875 31.230468-18.964844 48.378906 2.429688 8.871094 12.167969 29.5 49.941407 29.5h347.449219c37.773437 0 47.511718-20.628906 49.945312-29.496094 4.707031-17.152344-3.195312-36.753906-18.96875-48.378906zm-311.847656-356.945312c4.003906-.183594 7.15625-3.566407 7.15625-7.574219 0-19.21875 21.40625-34.851563 47.714844-34.851563 2.132812 0 4.25.101563 6.292968.304688 2.316406.226562 4.605469-.632813 6.199219-2.328125 10.433594-11.105469 27.523437-17.734375 45.722656-17.734375 18.015625 0 35.007813 6.527344 45.453125 17.464844 1.527344 1.601562 3.6875 2.4375 5.890625 2.304687.300781-.015625.59375-.011719.894531-.011719 26.308594 0 47.710938 15.632813 47.710938 34.851563v.085937c0 4.007813 3.152344 7.308594 7.15625 7.488282 18.113281.824218 32.945312 10.105468 37.328125 22.316406h-294.84375c4.382813-12.210938 19.214844-21.492188 37.324219-22.316406zm316.355468 401.355468c-3.269531 11.910156-15.867187 18.472656-35.484374 18.472656h-347.449219c-19.613281 0-32.214844-6.5625-35.484375-18.472656-3.160156-11.523437 3.167968-25.523437 14.8125-33.320312h183.898437c4.140625 0 7.496094-3.355469 7.496094-7.496094s-3.355469-7.496094-7.496094-7.496094h-179.605469c-11.773437-82.007812-4.355468-181.324218 20.066407-268.308594h159.539062c4.140625 0 7.496094-3.355468 7.496094-7.496093s-3.355469-7.496094-7.496094-7.496094h-165.335937c-.007813 0-.015625 0-.023438 0h-.078125c-8.945312 0-16.226562-7.269531-16.226562-16.230469 0-8.933594 7.28125-16.199218 16.226562-16.199218h358.164063c8.929687 0 16.195312 7.269531 16.195312 16.230468 0 8.933594-7.265625 16.199219-16.195312 16.199219h-6.363282c-.015624 0-.035156 0-.050781 0h-151.710937c-4.140625 0-7.496094 3.355469-7.496094 7.496094s3.355469 7.496093 7.496094 7.496093h145.933594c24.421874 86.984376 31.839843 186.300782 20.066406 268.308594h-159.363282c-4.140624 0-7.496093 3.355469-7.496093 7.496094s3.355469 7.496094 7.496093 7.496094h163.65625c11.648438 7.796875 17.976563 21.796875 14.8125 33.320312zm0 0"/><path d="m299.832031 390.335938c1.480469 1.671874 3.542969 2.523437 5.609375 2.523437 1.773438 0 3.546875-.625 4.976563-1.890625 3.097656-2.75 3.378906-7.488281.628906-10.585938l-24.65625-27.785156c18.667969-19.535156 23.792969-44.382812 14.359375-70.625-7.734375-21.519531-24.777344-41.914062-47.976562-57.425781-24.066407-16.085937-53.238282-25.621094-82.152344-26.851563-.128906-.003906-.253906-.003906-.382813-.003906-10.503906.089844-18.742187 3.125-24.484375 9.019532-6.308594 6.472656-9.265625 15.808593-9.050781 28.53125.542969 33.738281 7.574219 64.253906 20.339844 88.253906 11.910156 22.394531 28.339843 38.671875 47.511719 47.078125 9.46875 4.152343 19.140624 6.203125 28.691406 6.203125 14.652344 0 29.003906-4.84375 41.871094-14.289063zm-89.257812-33.492188c-27.714844-12.152344-57.734375-50.542969-58.878907-121.847656-.140624-8.410156 1.472657-14.40625 4.796876-17.820313 2.863281-2.9375 7.339843-4.40625 13.691406-4.488281 59.214844 2.589844 104.183594 40.222656 116.457031 74.359375 5.214844 14.511719 7.300781 35.238281-10.246094 54.292969l-14.277343-16.089844 3.515624-27.816406c.519532-4.109375-2.390624-7.859375-6.496093-8.378906-4.109375-.515626-7.859375 2.390624-8.378907 6.5l-1.871093 14.789062-18.59375-20.953125 2.746093-21.601563c.519532-4.109374-2.386718-7.859374-6.492187-8.382812-4.121094-.523438-7.859375 2.382812-8.382813 6.492188l-1.09375 8.59375-12.164062-13.703126c-2.75-3.097656-7.488281-3.378906-10.585938-.632812-3.09375 2.75-3.378906 7.488281-.628906 10.585938l12.53125 14.121093-10.835937.367188c-4.136719.140625-7.378907 3.609375-7.238281 7.746093.136718 4.050782 3.464843 7.242188 7.488281 7.242188.085937 0 .171875 0 .257812-.003906l23.253907-.785156 18.898437 21.292968-17.492187.589844c-4.140626.140625-7.378907 3.609375-7.238282 7.75.136719 4.050781 3.464844 7.242188 7.488282 7.242188.082031 0 .171874 0 .257812-.003907l29.910156-1.015625 14.132813 15.921875c-16.617188 11.601563-36.101563 13.714844-54.53125 5.636719zm0 0"/></svg>