<?xml version="1.0" encoding="iso-8859-1"?>
<!-- Generator: Adobe Illustrator 19.0.0, SVG Export Plug-In . SVG Version: 6.00 Build 0)  -->
<svg version="1.1" id="Capa_1" xmlns="http://www.w3.org/2000/svg" xmlns:xlink="http://www.w3.org/1999/xlink" x="0px" y="0px"
	 viewBox="0 0 512.045 512.045" style="enable-background:new 0 0 512.045 512.045;" xml:space="preserve">
<g transform="translate(-1)">
	<g transform="translate(1 1)">
		<rect x="179.245" y="16.09" style="fill:#FDD834;" width="281.6" height="256"/>
		<rect x="179.245" y="16.09" style="fill:#FFEB3A;" width="256" height="256"/>
		<g>
			<path style="fill:#FF9801;" d="M298.626,144.09c0,0,1.792,36.019-9.472,51.089s-41.557,17.178-41.557,17.178
				s-1.792-36.105,9.472-51.2C268.333,146.061,298.626,144.09,298.626,144.09z"/>
			<path style="fill:#FF9801;" d="M247.597,75.823c0,0,30.293,2.099,41.557,17.178s9.472,51.089,9.472,51.089
				s-30.293-2.014-41.557-17.067C245.805,111.97,247.597,75.823,247.597,75.823z"/>
			<path style="fill:#FF9801;" d="M383.959,144.09c0,0,1.792,36.019-9.472,51.089c-11.264,15.07-41.557,17.178-41.557,17.178
				s-1.792-36.105,9.472-51.2S383.959,144.09,383.959,144.09z"/>
			<path style="fill:#FF9801;" d="M332.93,75.823c0,0,30.293,2.099,41.557,17.178c11.264,15.078,9.472,51.089,9.472,51.089
				s-30.293-2.014-41.557-17.067S332.93,75.823,332.93,75.823z"/>
		</g>
		<g>
			<polygon style="fill:#FF5722;" points="179.245,16.09 179.245,272.09 136.578,280.623 136.578,7.557 			"/>
			<polygon style="fill:#FF5722;" points="503.511,7.557 503.511,280.623 460.845,272.09 460.845,16.09 			"/>
		</g>
		<g>
			<path style="fill:#FF9801;" d="M76.845,387.29c1.108,20.005-14.136,37.155-34.133,38.4c-19.997-1.245-35.241-18.395-34.133-38.4
				c0-21.205,34.133-46.933,34.133-46.933S76.845,366.085,76.845,387.29z"/>
			<path style="fill:#FF9801;" d="M84.021,285.863c-12.888,14.405-34.98,15.727-49.493,2.961
				c-12.769-14.514-11.443-36.61,2.97-49.493c14.421-14.507,55.305-8.738,55.305-8.738S98.528,271.433,84.021,285.863z"/>
		</g>
		<rect x="8.578" y="468.357" style="fill:#558B30;" width="494.933" height="34.133"/>
		<rect x="8.578" y="468.357" style="fill:#8BC34A;" width="469.333" height="34.133"/>
	</g>
	<g>
		<path d="M504.511,460.823h-76.8c-4.713,0-8.533,3.821-8.533,8.533c0,4.713,3.821,8.533,8.533,8.533h76.8
			c4.713,0,8.533-3.821,8.533-8.533C513.045,464.644,509.224,460.823,504.511,460.823z"/>
		<path d="M9.578,477.89h384c4.713,0,8.533-3.821,8.533-8.533c0-4.713-3.821-8.533-8.533-8.533h-384
			c-4.713,0-8.533,3.821-8.533,8.533C1.045,474.069,4.865,477.89,9.578,477.89z"/>
		<path d="M86.378,494.957h-76.8c-4.713,0-8.533,3.821-8.533,8.533c0,4.713,3.821,8.533,8.533,8.533h76.8
			c4.713,0,8.533-3.82,8.533-8.533C94.911,498.777,91.091,494.957,86.378,494.957z"/>
		<path d="M504.511,494.957h-384c-4.713,0-8.533,3.821-8.533,8.533c0,4.713,3.821,8.533,8.533,8.533h384
			c4.713,0,8.533-3.82,8.533-8.533C513.045,498.777,509.224,494.957,504.511,494.957z"/>
		<path d="M214.378,153.623h39.859c-1.076,1.07-2.079,2.21-3.004,3.413c-12.74,17.067-11.366,52.702-11.162,56.704
			c0.223,4.549,3.979,8.121,8.533,8.115h0.589c3.499-0.247,34.577-2.893,47.787-20.582c9.387-12.527,11.093-34.987,11.281-47.667
			h31.3c-1.076,1.07-2.079,2.21-3.004,3.413c-12.74,17.067-11.366,52.702-11.162,56.704c0.223,4.549,3.979,8.121,8.533,8.115h0.589
			c3.499-0.247,34.577-2.893,47.787-20.582c9.387-12.527,11.093-34.987,11.281-47.667h34.133c4.713,0,8.533-3.82,8.533-8.533
			s-3.82-8.533-8.533-8.533h-34.142c-0.188-12.655-1.92-35.14-11.281-47.667c-13.227-17.69-44.305-20.335-47.787-20.582
			c-2.288-0.159-4.544,0.61-6.258,2.134c-1.715,1.524-2.744,3.673-2.855,5.964c-0.205,4.002-1.579,39.663,11.162,56.704
			c0.924,1.203,1.928,2.344,3.004,3.413h-31.317c-0.188-12.655-1.92-35.14-11.281-47.667c-13.227-17.69-44.305-20.335-47.787-20.582
			c-2.288-0.159-4.544,0.61-6.258,2.134c-1.715,1.524-2.744,3.673-2.855,5.964c-0.205,4.002-1.579,39.663,11.162,56.704
			c0.924,1.203,1.928,2.344,3.004,3.413h-39.851c-4.713,0-8.533,3.82-8.533,8.533c0,4.713,3.821,8.533,8.533,8.533V153.623z
			 M368.652,99.104c5.385,7.211,7.501,23.415,7.859,36.207c-9.871-1.18-19.092-5.534-26.274-12.407
			c-5.393-7.211-7.501-23.458-7.859-36.284C352.261,87.813,361.485,92.196,368.652,99.104z M283.319,99.104
			c5.385,7.211,7.501,23.415,7.859,36.207c-9.871-1.18-19.092-5.534-26.274-12.407c-5.393-7.211-7.501-23.458-7.859-36.284
			C266.927,87.813,276.151,92.196,283.319,99.104z M283.319,191.076c-7.164,6.913-16.39,11.297-26.274,12.484
			c0.333-11.631,2.065-28.57,7.825-36.275c7.171-6.913,16.414-11.278,26.308-12.425
			C290.828,167.652,288.712,183.857,283.319,191.076z M368.652,191.076c-7.164,6.913-16.39,11.297-26.274,12.484
			c0.333-11.631,2.065-28.57,7.825-36.275c7.171-6.913,16.414-11.278,26.308-12.425
			C376.161,167.652,374.045,183.857,368.652,191.076z"/>
		<path d="M502.805,0.194l-41.813,8.363H181.098l-41.813-8.363c-2.511-0.513-5.119,0.131-7.104,1.752s-3.136,4.048-3.136,6.611
			v273.067c0,4.713,3.821,8.533,8.533,8.533c0.573,0.005,1.146-0.052,1.707-0.171l41.813-8.363h279.893l41.813,8.363
			c0.561,0.118,1.133,0.175,1.707,0.171c4.713,0,8.533-3.821,8.533-8.533V8.557c0-2.563-1.151-4.99-3.136-6.611
			C507.924,0.324,505.316-0.319,502.805,0.194z M453.311,264.557H188.778v-34.133c0-4.713-3.82-8.533-8.533-8.533
			s-8.533,3.82-8.533,8.533v35.669l-25.6,5.12V18.967l25.6,5.12V196.29c0,4.713,3.821,8.533,8.533,8.533s8.533-3.82,8.533-8.533
			V25.623h264.533V264.557z M495.978,271.213l-25.6-5.12V24.087l25.6-5.12V271.213z"/>
		<path d="M43.711,435.223c24.703-1.261,43.759-22.222,42.667-46.933c0-24.747-33.69-50.85-37.547-53.76
			c-3.034-2.276-7.206-2.276-10.24,0c-3.84,2.901-37.547,29.013-37.547,53.76C-0.047,413.001,19.008,433.962,43.711,435.223z
			 M43.711,352.313c11.503,9.813,25.6,25.335,25.6,35.977c1.066,15.28-10.337,28.583-25.6,29.867
			c-15.263-1.283-26.666-14.587-25.6-29.867C18.111,377.649,32.208,362.127,43.711,352.313z"/>
		<path d="M29.452,295.857c7.474,7.393,17.597,11.487,28.109,11.366h0.06c12.595-0.177,24.611-5.32,33.434-14.31
			c17.024-16.964,11.802-57.916,11.145-62.532c-0.533-3.763-3.49-6.721-7.253-7.253c-4.608-0.666-45.602-5.879-62.507,11.093
			c-9.003,8.826-14.152,20.853-14.327,33.459C17.967,278.212,22.052,288.361,29.452,295.857z M44.505,246.312
			c5.547-5.581,18.833-7.356,31.309-7.356c3.524,0,6.98,0.145,10.172,0.393c0.99,13.474,0.341,34.219-6.98,41.506
			c-5.633,5.795-13.322,9.137-21.402,9.301c-6.013,0.205-11.84-2.096-16.092-6.352s-6.545-10.087-6.334-16.099
			C35.341,259.623,38.694,251.932,44.505,246.312z"/>
	</g>
</g>
<g>
</g>
<g>
</g>
<g>
</g>
<g>
</g>
<g>
</g>
<g>
</g>
<g>
</g>
<g>
</g>
<g>
</g>
<g>
</g>
<g>
</g>
<g>
</g>
<g>
</g>
<g>
</g>
<g>
</g>
</svg>
