<svg height="512pt" viewBox="-11 0 512 512.001" width="512pt" xmlns="http://www.w3.org/2000/svg"><path d="m476.265625 444.441406-39.402344 6.140625c-3.710937.578125-6.621093 3.492188-7.203125 7.203125l-6.140625 39.398438c-1.085937 6.984375-9.644531 9.773437-14.640625 4.777344l-138.054687-138.054688c-3.375-3.375-3.375-8.84375 0-12.214844l59.945312-59.949218c3.375-3.371094 8.84375-3.371094 12.214844 0l138.054687 138.058593c4.996094 4.996094 2.207032 13.550781-4.773437 14.640625zm0 0" fill="#ed5176"/><path d="m14.8125 444.441406 39.398438 6.140625c3.710937.578125 6.625 3.492188 7.203124 7.203125l6.140626 39.398438c1.089843 6.984375 9.644531 9.773437 14.640624 4.777344l138.054688-138.054688c3.375-3.375 3.375-8.839844 0-12.214844l-59.945312-59.945312c-3.371094-3.375-8.839844-3.375-12.214844 0l-138.054688 138.054687c-4.996094 4.996094-2.207031 13.550781 4.777344 14.640625zm0 0" fill="#ed5176"/><path d="m342.984375 291.746094c-3.371094-3.375-8.839844-3.375-12.214844 0l-59.945312 59.945312c-3.375 3.375-3.375 8.839844 0 12.214844l76.222656 76.222656c29.664063-17.660156 54.378906-42.800781 71.507813-72.8125zm0 0" fill="#ba365f"/><path d="m160.304688 291.746094c-3.371094-3.375-8.839844-3.375-12.214844 0l-75.570313 75.570312c17.128907 30.011719 41.84375 55.152344 71.511719 72.8125l76.21875-76.222656c3.375-3.375 3.375-8.839844 0-12.214844zm0 0" fill="#ba365f"/><path d="m245.539062 445.015625c-97.089843 0-176.074218-78.988281-176.074218-176.074219v-185.132812c0-17.808594 14.476562-32.296875 32.269531-32.296875 3.222656 0 6.425781.480469 9.507813 1.433593 9.671874 2.984376 19.761718 4.496094 29.996093 4.496094 30.875 0 59.71875-13.8125 79.132813-37.894531 6.167968-7.65625 15.34375-12.046875 25.167968-12.046875 9.820313 0 18.996094 4.390625 25.164063 12.046875 19.414063 24.082031 48.257813 37.894531 79.136719 37.894531 10.230468 0 20.324218-1.511718 29.992187-4.496094 3.085938-.953124 6.285157-1.433593 9.507813-1.433593 17.796875 0 32.273437 14.488281 32.273437 32.300781v185.128906c0 97.085938-78.988281 176.074219-176.074219 176.074219zm0 0" fill="#c8e7f7"/><path d="m349.839844 86.878906c-41.246094 0-78.035156-19.066406-102.050782-48.859375-1.164062-1.445312-3.335937-1.445312-4.5 0-24.015624 29.792969-60.804687 48.859375-102.050781 48.859375-13.460937 0-26.445312-2.035156-38.667969-5.804687-1.828124-.5625-3.671874.824219-3.671874 2.734375v185.132812c0 80.984375 65.65625 146.636719 146.640624 146.636719 80.988282 0 146.640626-65.652344 146.640626-146.636719v-185.132812c0-1.910156-1.84375-3.296875-3.667969-2.734375-12.226563 3.769531-25.210938 5.804687-38.671875 5.804687zm0 0" fill="#aed559"/><path d="m367.492188 350.386719c-5.351563 8.007812-11.472657 15.46875-18.257813 22.253906-26.542969 26.523437-63.203125 42.945313-103.695313 42.945313-80.988281 0-146.640624-65.652344-146.640624-146.640626v-185.136718c0-.582032.175781-1.128906.46875-1.566406zm0 0" fill="#ffcd34"/><path d="m225.609375 317.457031c-8.496094 0-16.703125-3.519531-22.554687-9.679687l-46.152344-48.542969c-9.867188-10.378906-9.453125-26.792969.929687-36.664063 10.378907-9.867187 26.792969-9.449218 36.660157.929688l30.867187 32.46875 70.9375-77.085938c9.691406-10.535156 26.09375-11.226562 36.640625-1.523437 10.535156 9.699219 11.21875 26.105469 1.519531 36.640625l-85.953125 93.410156c-5.804687 6.3125-14.058594 9.976563-22.640625 10.046875-.085937 0-.171875 0-.253906 0zm0 0" fill="#575b7a"/><path d="m486.339844 424.496094-16.476563-16.480469c-2.929687-2.929687-7.679687-2.929687-10.609375 0-2.929687 2.929687-2.929687 7.675781 0 10.605469l16.480469 16.480468c.121094.125.496094.496094.28125 1.160157-.214844.660156-.734375.742187-.902344.765625l-39.402343 6.144531c-6.96875 1.085937-12.378907 6.5-13.464844 13.464844l-6.136719 39.386719c-.027344.171874-.109375.699218-.773437.914062-.65625.214844-1.019532-.144531-1.152344-.28125l-71.8125-71.8125c24.9375-15.542969 45.890625-36.898438 60.953125-62.160156l33.902343 33.910156c1.460938 1.464844 3.382813 2.195312 5.300782 2.195312 1.921875 0 3.839844-.730468 5.304687-2.195312 2.929688-2.929688 2.929688-7.679688 0-10.605469l-37.066406-37.078125c11.75-24.1875 18.347656-51.320312 18.347656-79.96875v-185.132812c0-21.945313-17.84375-39.796875-39.773437-39.796875-3.976563 0-7.917969.59375-11.71875 1.769531-8.953125 2.761719-18.300782 4.160156-27.78125 4.160156-28.597656 0-55.3125-12.792968-73.292969-35.097656-7.601563-9.433594-18.90625-14.84375-31.007813-14.84375-12.105468 0-23.40625 5.410156-31.003906 14.839844-17.984375 22.308594-44.699218 35.101562-73.296875 35.101562-9.480469 0-18.832031-1.398437-27.78125-4.164062-3.800781-1.171875-7.742187-1.765625-11.71875-1.765625-21.933593 0-39.773437 17.851562-39.773437 39.796875v81.203125c0 4.140625 3.355468 7.5 7.5 7.5 4.140625 0 7.5-3.359375 7.5-7.5v-81.203125c0-13.671875 11.113281-24.796875 24.773437-24.796875 2.472657 0 4.925781.371093 7.296875 1.101562 10.386719 3.203125 21.21875 4.828125 32.203125 4.828125 33.15625 0 64.128907-14.828125 84.976563-40.6875 4.734375-5.882812 11.777344-9.253906 19.324218-9.253906 7.542969 0 14.585938 3.371094 19.328126 9.253906 20.84375 25.855469 51.8125 40.6875 84.972656 40.6875 10.980468 0 21.816406-1.625 32.203125-4.828125 2.367187-.730469 4.820312-1.101562 7.296875-1.101562 13.660156 0 24.773437 11.125 24.773437 24.796875v185.128906c0 27.972656-6.847656 54.375-18.957031 77.621094-.128906.214844-.242188.4375-.347656.660156-28.675782 54.464844-85.449219 90.296875-149.269532 90.296875-29.328124 0-56.929687-7.53125-80.976562-20.753906-.070312-.039063-.136719-.078125-.210938-.117188-53.375-29.453125-87.386718-85.613281-87.386718-147.707031v-73.925781c0-4.144531-3.359375-7.5-7.5-7.5-4.144532 0-7.5 3.355469-7.5 7.5v73.925781c0 28.648438 6.597656 55.785156 18.347656 79.96875l-37.40625 37.417969c-2.929688 2.933593-2.929688 7.679687 0 10.609375 1.464844 1.464844 3.382812 2.195312 5.304688 2.195312 1.917968 0 3.839843-.730468 5.304687-2.195312l34.238281-34.25c15.0625 25.257812 36.019532 46.617187 60.953125 62.160156l-71.8125 71.8125c-.132812.136719-.496093.496094-1.152343.28125-.664063-.21875-.746094-.742188-.769532-.914062l-6.140625-39.390626c-1.085937-6.960937-6.496093-12.375-13.464843-13.464843l-39.398438-6.140625c-.171875-.023438-.6875-.105469-.902344-.765625-.21875-.664063.15625-1.035157.277344-1.160157l16.980469-16.980468c2.929687-2.929688 2.929687-7.675782 0-10.605469-2.933594-2.929687-7.679688-2.925781-10.605469 0l-16.980469 16.980469c-4.320312 4.320312-5.828125 10.609375-3.933593 16.414062 1.890624 5.808594 6.816406 9.996094 12.851562 10.941406l39.398438 6.136719c.496093.078125.878906.460938.957031.957031l6.140625 39.390626c.941406 6.039062 5.132812 10.96875 10.9375 12.859374 1.65625.542969 3.351562.804688 5.03125.804688 4.203125 0 8.296875-1.648438 11.382812-4.738281l74.75-74.75c25.011719 12.785156 53.320313 20.003906 83.285156 20.003906 29.964844 0 58.277344-7.21875 83.285157-20.003906l74.75 74.75c3.089843 3.089843 7.183593 4.738281 11.382812 4.738281 1.679688 0 3.375-.261719 5.035157-.804688 5.804687-1.890624 9.996093-6.820312 10.9375-12.859374l6.140624-39.390626c.074219-.496093.460938-.878906.953126-.957031l39.402343-6.140625c6.03125-.941406 10.957031-5.132812 12.851563-10.9375 1.890625-5.804687.382812-12.09375-3.9375-16.414062zm0 0"/><path d="m91.398438 268.9375c0 84.996094 69.144531 154.140625 154.140624 154.140625 85.085938 0 154.140626-69.230469 154.140626-154.140625v-73.925781c0-4.144531-3.359376-7.5-7.5-7.5-4.144532 0-7.5 3.355469-7.5 7.5v73.925781c0 25.269531-6.773438 48.988281-18.597657 69.433594l-54.453125-54.460938c-2.929687-2.925781-7.679687-2.929687-10.605468 0-2.929688 2.929688-2.929688 7.679688-.003907 10.609375l56.675781 56.675781c-25.347656 34.472657-66.183593 56.882813-112.15625 56.882813-76.722656 0-139.140624-62.417969-139.140624-139.136719v-169.058594l115.125 115.132813c1.464843 1.464844 3.382812 2.195313 5.304687 2.195313 1.917969 0 3.835937-.730469 5.300781-2.195313 2.929688-2.929687 2.929688-7.679687.003906-10.609375l-111.5625-111.5625c6.8125 1.019531 13.71875 1.535156 20.667969 1.535156 40.238281 0 77.941407-17.199218 104.300781-47.375 26.355469 30.175782 64.058594 47.375 104.300782 47.375 11.8125 0 23.503906-1.488281 34.839844-4.425781v75.058594c0 4.140625 3.355468 7.5 7.5 7.5 4.140624 0 7.5-3.359375 7.5-7.5v-81.199219c0-3.277344-1.574219-6.398438-4.214844-8.34375-2.625-1.9375-6.054688-2.523438-9.167969-1.5625-11.765625 3.628906-24.03125 5.472656-36.457031 5.472656-37.546875 0-72.617188-16.792968-96.214844-46.066406-1.984375-2.464844-4.933594-3.875-8.085938-3.875-3.15625 0-6.105468 1.410156-8.089843 3.875-23.597657 29.273438-58.664063 46.066406-96.210938 46.066406-12.425781 0-24.691406-1.84375-36.460937-5.472656-3.113282-.960938-6.539063-.375-9.167969 1.5625-.917969.675781-1.703125 1.496094-2.34375 2.410156-.046875.066406-.089844.128906-.132813.195313-1.050781 1.570312-1.644531 3.386719-1.726562 5.277343 0 .042969 0 .085938-.003906.128907v.070312c0 .027344-.003906.058594-.003906.089844v.152344.011719zm0 0"/><path d="m290.777344 173.804688-65.503906 71.183593-25.34375-26.65625c-12.703126-13.359375-33.90625-13.898437-47.265626-1.195312-13.359374 12.699219-13.898437 33.902343-1.199218 47.265625l46.148437 48.542968c7.257813 7.632813 17.460938 12.011719 27.996094 12.011719h.3125c10.652344-.089843 20.894531-4.632812 28.101563-12.46875l85.953124-93.410156c12.480469-13.5625 11.601563-34.753906-1.960937-47.238281-13.566406-12.480469-34.757813-11.601563-47.238281 1.964844zm37.082031 9.074218c7.476563 6.882813 7.960937 18.566406 1.082031 26.042969l-85.957031 93.410156c-4.40625 4.792969-10.667969 7.570313-17.121094 7.625h-.253906c-6.445313 0-12.683594-2.679687-17.121094-7.347656l-46.148437-48.542969c-7.003906-7.367187-6.707032-19.054687.660156-26.058594 3.5625-3.386718 8.132812-5.0625 12.695312-5.0625 4.875 0 9.746094 1.917969 13.363282 5.722657l30.867187 32.46875c1.414063 1.492187 3.378907 2.335937 5.433594 2.335937h.0625c2.074219-.019531 4.054687-.894531 5.457031-2.421875l70.9375-77.089843c6.878906-7.476563 18.5625-7.964844 26.042969-1.082032zm0 0"/></svg>