<svg height="512pt" viewBox="-13 0 512 512.002" width="512pt" xmlns="http://www.w3.org/2000/svg"><g fill-rule="evenodd"><path d="m124.625 451.324219v41.074219c0 6.660156 5.441406 12.101562 12.105469 12.101562h211.375c6.660156 0 12.105469-5.441406 12.105469-12.101562v-41.074219l-117.523438-45.328125zm0 0" fill="#f5df87"/><path d="m192.796875 118.703125-24.234375 48.5 73.867188 23.386719 79.144531-23.386719-24.210938-48.5-56.152343-27.015625zm0 0" fill="#e6e6e6"/><path d="m217.457031 46.617188v30.753906l23.753907 14.316406 26.53125-14.316406v-30.753906l-26.84375-18zm0 0" fill="#e6e6e6"/><path d="m188.714844 19.601562v14.910157c0 6.660156 5.472656 12.105469 12.132812 12.105469h83.507813c6.660156 0 12.105469-5.445313 12.105469-12.105469v-14.910157c0-6.660156-5.445313-12.105468-12.105469-12.105468h-83.507813c-6.660156 0-12.132812 5.445312-12.132812 12.105468zm0 0" fill="#8fde56"/><path d="m124.625 179.308594v34.667968l118.089844 18 117.492187-18v-34.667968c0-6.660156-5.441406-12.105469-12.101562-12.105469h-211.375c-6.664063 0-12.105469 5.441406-12.105469 12.105469zm0 0" fill="#f5df87"/><path d="m119.070312 118.675781c.226563.027344.453126.027344.679688.027344h240.457031c30.585938 0 30.5 8.558594 45.695313 35.289063l33.390625 58.679687c5.613281 9.894531 18.285156 13.378906 28.148437 7.765625 9.894532-5.613281 13.378906-18.308594 7.769532-28.175781l-50.882813-89.460938c-15.707031-25.429687-27.609375-25.429687-37.445313-25.429687h-267.132812c-.226562 0-.453125 0-.679688.03125l-18 18.960937zm0 0" fill="#8fde56"/><path d="m119.070312 77.402344v41.273437l1.160157.027344h24.492187l-1.164062-.027344v-41.273437l1.164062-.03125h-24.492187zm0 0" fill="#47a831"/><path d="m217.457031 46.617188h15.917969v30.753906h-15.917969zm0 0" fill="#b3adad"/><path d="m188.714844 34.511719c0 6.664062 5.472656 12.105469 12.132812 12.105469h30.527344c-6.660156 0-12.132812-5.441407-12.132812-12.105469v-14.910157c0-6.660156 5.472656-12.101562 12.132812-12.101562h-30.527344c-6.660156 0-12.132812 5.441406-12.132812 12.101562zm0 0" fill="#47a831"/><path d="m192.796875 118.703125-24.234375 48.5h26.925781l24.207031-48.5zm0 0" fill="#b3adad"/><path d="m136.730469 167.203125c-6.664063 0-12.105469 5.445313-12.105469 12.105469v34.667968h20.523438v-34.667968c0-6.660156 5.441406-12.105469 12.101562-12.105469zm0 0" fill="#d9a13f"/><path d="m124.625 451.324219v41.074219c0 6.632812 5.441406 12.101562 12.105469 12.101562h20.519531c6.660156 0-12.101562-5.441406-12.101562-12.101562v-41.074219zm0 0" fill="#d9a13f"/><path d="m80.601562 70.570312v54.9375c0 4.449219 3.628907 8.105469 8.109376 8.105469h22.535156c4.476562 0 8.132812-3.65625 8.132812-8.105469v-54.9375c0-4.449218-3.65625-8.105468-8.132812-8.105468h-22.535156c-4.480469-.003906-8.109376 3.652344-8.109376 8.105468zm0 0" fill="#f5df87"/><path d="m80.601562 70.570312v54.9375c0 4.449219 3.628907 8.105469 8.109376 8.105469h19.671874c-4.449218 0-8.109374-3.65625-8.109374-8.105469v-54.9375c0-4.449218 3.660156-8.105468 8.109374-8.105468h-19.671874c-4.480469-.003906-8.109376 3.652344-8.109376 8.105468zm0 0" fill="#d9a13f"/><path d="m124.625 213.976562h235.585938v237.347657h-235.585938zm0 0" fill="#e6e6e6"/><path d="m124.625 213.976562v237.347657h20.523438v-237.347657zm0 0" fill="#b3adad"/><path d="m162.835938 297.457031c4.109374 36.085938 41.15625 61.683594 60.007812 37.472657l.085938-.113282c.820312-1.046875 1.558593-2.125 2.179687-3.203125 12.160156-20.859375-7.90625-47.5625-51.332031-45.183593-7.085938.398437-11.425782 3.429687-10.941406 11.027343zm0 0" fill="#8fde56"/><path d="m162.835938 297.457031c4.109374 36.085938 41.15625 61.683594 60.007812 37.472657l.085938-.113282c.648437-.820312 1.21875-1.671875 1.753906-2.519531-19.558594 6.886719-45.550782-15.820313-48.953125-45.753906-.027344-.058594-.027344-.140625-.027344-.199219-.625.027344-1.277344.058594-1.929687.085938-7.082032.398437-11.421876 3.429687-10.9375 11.027343zm0 0" fill="#47a831"/><path d="m320.75 297.457031c-4.109375 36.085938-41.15625 61.683594-60.007812 37.472657l-.085938-.113282c-.820312-1.046875-1.527344-2.125-2.179688-3.203125-12.160156-20.859375 7.90625-47.5625 51.332032-45.183593 7.085937.398437 11.425781 3.429687 10.941406 11.027343zm0 0" fill="#8fde56"/><path d="m320.75 297.457031c-4.109375 36.085938-41.15625 61.683594-60.007812 37.472657l-.085938-.113282c-.648438-.820312-1.21875-1.671875-1.753906-2.519531 19.558594 6.886719 45.578125-15.820313 48.980468-45.753906 0-.058594 0-.140625 0-.199219.625.027344 1.277344.058594 1.929688.085938 7.082031.398437 11.421875 3.429687 10.9375 11.027343zm0 0" fill="#47a831"/></g><path d="m50.839844 106.78125h-43.339844c-4.140625 0-7.5-3.355469-7.5-7.496094s3.359375-7.5 7.5-7.5h43.339844c4.140625 0 7.5 3.359375 7.5 7.5s-3.359375 7.496094-7.5 7.496094zm0 0"/><path d="m50.210938 80.902344c-1.078126 0-2.171876-.230469-3.210938-.726563l-30.640625-14.539062c-3.738281-1.777344-5.332031-6.246094-3.558594-9.988281 1.773438-3.738282 6.246094-5.335938 9.988281-3.558594l30.640626 14.539062c3.742187 1.777344 5.335937 6.25 3.558593 9.988282-1.28125 2.703124-3.972656 4.285156-6.777343 4.285156zm0 0"/><path d="m20.796875 147.234375c-2.804687 0-5.496094-1.582031-6.777344-4.285156-1.773437-3.738281-.179687-8.210938 3.558594-9.984375l30.644531-14.542969c3.738282-1.777344 8.210938-.183594 9.988282 3.558594 1.773437 3.742187.179687 8.214843-3.5625 9.988281l-30.640626 14.542969c-1.039062.492187-2.132812.722656-3.210937.722656zm0 0"/><path d="m241.808594 396.96875c4.140625 0 7.496094-3.355469 7.496094-7.496094v-43.609375l7.203124-4.328125c6.113282 6.804688 14.007813 10.390625 22.644532 10.390625 3.011718 0 6.121094-.4375 9.269531-1.324219 20.246094-5.691406 36.976563-27.683593 39.777344-52.292968.015625-.125.027343-.25.035156-.375.339844-5.351563-.996094-9.765625-3.964844-13.113282-3.152343-3.550781-7.875-5.527343-14.050781-5.875-27.414062-1.5-50.007812 8.140626-58.953125 25.152344-4.105469 7.808594-4.820313 16.410156-2.273437 24.460938l-7.183594 4.320312-7.203125-4.328125c2.542969-8.042969 1.835937-16.636719-2.261719-24.4375-8.941406-17.019531-31.539062-26.664062-58.984375-25.167969-6.164063.347657-10.886719 2.324219-14.039063 5.875-2.972656 3.351563-4.304687 7.761719-3.964843 13.113282.007812.125.015625.25.03125.375 2.804687 24.609375 19.53125 46.601562 39.777343 52.292968 3.152344.886719 6.257813 1.324219 9.273438 1.324219 8.636719 0 16.535156-3.589843 22.652344-10.398437l7.222656 4.335937v43.609375c-.003906 4.136719 3.355469 7.496094 7.496094 7.496094zm22.726562-85.894531c4.847656-9.214844 19.183594-18.558594 44.855469-17.15625 2.554687.140625 3.535156.707031 3.660156.851562.066407.089844.292969.691407.226563 2.042969-2.386719 20.21875-16.550782 35.878906-28.914063 39.355469-5.636719 1.585937-10.519531.695312-14.578125-2.617188l14.40625-8.660156c3.550782-2.136719 4.699219-6.742187 2.566406-10.289063-2.136718-3.550781-6.742187-4.695312-10.289062-2.566406l-13.917969 8.371094c-.265625-3.128906.382813-6.285156 1.984375-9.332031zm-65.3125 25.089843c-12.363281-3.476562-26.527344-19.132812-28.914062-39.351562-.066406-1.351562.160156-1.953125.226562-2.042969.125-.144531 1.105469-.710937 3.648438-.855469 25.710937-1.402343 40.039062 7.949219 44.882812 17.171876 1.597656 3.042968 2.246094 6.195312 1.980469 9.316406l-13.929687-8.367188c-3.550782-2.132812-8.15625-.984375-10.289063 2.566406-2.132813 3.546876-.980469 8.15625 2.566406 10.285157l14.410157 8.660156c-4.0625 3.3125-8.945313 4.203125-14.582032 2.617187zm0 0"/><path d="m481.726562 188.554688-50.882812-89.460938c-.042969-.078125-.089844-.15625-.140625-.234375-16.527344-26.769531-30.160156-28.984375-43.820313-28.984375h-111.640624v-15.761719h9.113281c10.808593 0 19.601562-8.792969 19.601562-19.601562v-14.910157c0-10.808593-8.792969-19.601562-19.601562-19.601562h-83.507813c-10.824218 0-19.628906 8.792969-19.628906 19.601562v14.910157c0 10.808593 8.804688 19.601562 19.628906 19.601562h9.113282v15.761719h-83.117188c-.367188-8.28125-7.214844-14.910156-15.597656-14.910156h-22.535156c-8.605469 0-15.605469 7-15.605469 15.605468v54.9375c0 8.605469 7 15.605469 15.605469 15.605469h22.535156c8.382812 0 15.230468-6.628906 15.597656-14.910156h53.824219l-16.742188 33.503906h-27.195312c-10.808594 0-19.601563 8.792969-19.601563 19.601563v313.089844c0 10.8125 8.792969 19.605468 19.601563 19.605468h211.375c10.808593 0 19.601562-8.792968 19.601562-19.605468v-156.105469c0-4.140625-3.355469-7.496094-7.496093-7.496094-4.144532 0-7.5 3.355469-7.5 7.496094v107.53125h-220.589844v-222.351563h90.921875c4.140625 0 7.496093-3.355468 7.496093-7.496094 0-4.140624-3.355468-7.5-7.496093-7.5h-90.921875v-27.167968c0-2.539063 2.066406-4.605469 4.605468-4.605469h211.375c2.542969 0 4.605469 2.066406 4.605469 4.605469v27.167968h-88.394531c-4.140625 0-7.5 3.359376-7.5 7.5 0 4.140626 3.359375 7.496094 7.5 7.496094h88.394531v80.207032c0 4.140624 3.359375 7.5 7.5 7.5s7.496094-3.359376 7.496094-7.5v-122.371094c0-10.808594-8.792969-19.605469-19.601563-19.605469h-21.890624l-16.722657-33.503906h50.71875c22.03125 0 23.816407 3.296875 33.71875 21.597656 1.589844 2.9375 3.390625 6.261719 5.460938 9.90625l33.386719 58.667969c3.703124 6.527344 9.746093 11.226562 17.015624 13.230468 2.496094.6875 5.03125 1.027344 7.546876 1.027344 4.804687 0 9.535156-1.242187 13.804687-3.667968 6.527344-3.703126 11.222656-9.75 13.226563-17.027344 2.003906-7.269532 1.066406-14.863282-2.640626-21.378906zm-129.015624 270.265624v33.578126c0 2.539062-2.066407 4.605468-4.605469 4.605468h-211.375c-2.542969 0-4.605469-2.066406-4.605469-4.605468v-33.578126zm-156.496094-424.308593v-14.910157c0-2.496093 2.121094-4.605468 4.632812-4.605468h83.507813c2.539062 0 4.605469 2.066406 4.605469 4.605468v14.910157c0 2.542969-2.066407 4.605469-4.605469 4.605469h-83.507813c-2.511718 0-4.632812-2.105469-4.632812-4.605469zm28.742187 19.601562h35.289063v15.761719h-35.289063zm-113.074219 71.394531c0 .316407-.304687.605469-.636718.605469h-22.535156c-.324219 0-.609376-.28125-.609376-.605469v-54.9375c0-.324218.285157-.609374.609376-.609374h22.535156c.332031 0 .636718.289062.636718.609374zm197.566407 34.195313h-128.761719l16.742188-33.503906h95.296874zm160.460937 46.253906c-.9375 3.410157-3.128906 6.238281-6.175781 7.964844-3.027344 1.722656-6.570313 2.15625-9.964844 1.222656-3.402343-.9375-6.230469-3.128906-7.960937-6.179687l-33.386719-58.675782c-1.992187-3.503906-3.753906-6.757812-5.308594-9.628906-11.339843-20.953125-17.125-29.457031-46.90625-29.457031h-233.328125v-26.332031h260.003906c8.617188 0 17.527344-.003906 30.996094 21.753906l50.8125 89.34375c1.722656 3.03125 2.15625 6.578125 1.21875 9.988281zm0 0"/></svg>