<svg height="511pt" viewBox="-81 1 511 511.99881" width="511pt" xmlns="http://www.w3.org/2000/svg"><path d="m159.652344 147.683594c-5.289063-12.082032-46.5-106.183594-52.488282-119.855469-10.292968-23.5-37.683593-34.207031-61.183593-23.914063l-17.652344 7.730469c-23.5 10.289063-34.207031 37.683594-23.914063 61.183594l56.433594 128.871094c8.195313 7.777343 14.355469 17.667969 30.023438 17.667969 25.804687 0 25.804687-26.839844 51.609375-26.839844 2.78125 0 5.25.324218 7.5.882812-2.125-14.203125 3.519531-32.765625 9.671875-45.726562zm0 0" fill="#bf7b4c"/><path d="m159.652344 147.683594c-5.289063-12.082032-46.5-106.183594-52.488282-119.855469-10.292968-23.5-37.683593-34.207031-61.183593-23.914063l-17.652344 7.730469c-17.789063 7.789063-28.2421875 25.382813-27.804687 43.667969 9.835937-10.613281 19.582031-12.070312 33.070312-18.679688 23.5-10.292968 50.890625.414063 61.183594 23.914063 7.175781 16.390625 33.960937 77.550781 46.707031 106.652344 3.496094 7.984375 3.734375 16.96875.890625 25.210937l-.039062.125c2.636718-.007812 5.09375.246094 7.644531.875-2.125-14.203125 3.519531-32.765625 9.671875-45.726562zm0 0" fill="#a86c43"/><path d="m333.058594 134.84375-8.882813 8.882812c-9.015625 9.015626-23.628906 9.015626-32.640625 0l-11.054687-11.050781 11.054687-11.054687c9.011719-9.011719 23.625-9.011719 32.640625 0l8.882813 8.882812c1.195312 1.199219 1.195312 3.140625 0 4.339844zm0 0" fill="#74c26c"/><path d="m194.09375 219.367188c23.027344 0 25.519531-21.359376 44.128906-25.957032 3.789063-25.367187-18.230468-77.679687-44.121094-77.679687-25.878906 0-47.917968 52.28125-44.121093 77.683593 18.59375 4.605469 21.089843 25.953126 44.113281 25.953126zm0 0" fill="#f7e29c"/><path d="m166.308594 135.761719c28.753906-12.195313 53.972656 43.246093 53 70.816406 5.269531-5.464844 10.410156-11.066406 18.914062-13.167969 4.890625-32.757812-33.921875-115.402344-71.914062-57.648437zm0 0" fill="#dbc98b"/><path d="m323.175781 144.578125c-9.359375 7.882813-23.355469 7.433594-32.167969-1.378906l-10.523437-10.523438 5.546875-5.546875c-22.980469-1.566406-43.449219 10.613282-53.730469 29.390625 4.152344 11.019531 7.675781 25.136719 5.925781 36.878907 2.238282-.554688 4.707032-.871094 7.480469-.871094 25.808594 0 25.808594 26.839844 51.617188 26.839844 21.628906 0 25.476562-19.078126 40.5-24.78125 3.578125-18.472657-2.140625-36.898438-14.648438-50.007813zm0 0" fill="#f94530"/><path d="m323.175781 144.578125c-9.359375 7.882813-23.355469 7.433594-32.167969-1.378906l-.496093 1.378906c9.882812 10.363281 15.722656 24.242187 15.695312 39.269531-.015625 6.398438-2.925781 12.445313-7.761719 16.640625-5.25 4.550781-12.472656 10.628907-17.453124 14.015625 4.234374 2.878906 9.328124 4.863282 16.332031 4.863282 21.625 0 25.472656-19.078126 40.5-24.78125 3.578125-18.472657-2.140625-36.898438-14.648438-50.007813zm0 0" fill="#db3d2a"/><path d="m232.300781 156.519531c10.582031-19.328125 31.167969-30.527343 52.371094-29.464843-4.167969-25.386719-22.152344-60.875-43.703125-60.875-18.691406 0-34.691406 26.683593-41.335938 50.328124 21.46875 6 33.816407 43.0625 32.667969 40.011719zm0 0" fill="#f7e29c"/><path d="m240.96875 66.179688c-7.570312 0-14.703125 4.378906-20.945312 11.160156 22.21875-3.820313 39.5625 30.015625 45.300781 52.171875 6.488281-2.007813 13.097656-2.769531 19.347656-2.457031-4.167969-25.386719-22.152344-60.875-43.703125-60.875zm0 0" fill="#dbc98b"/><path d="m337.542969 194.683594c-15.191407 6.371094-18.902344 24.683594-40.21875 24.683594-25.808594 0-25.808594-26.839844-51.621094-26.839844-25.804687 0-25.804687 26.839844-51.609375 26.839844s-25.804688-26.839844-51.613281-26.839844c-25.804688 0-25.804688 26.839844-51.609375 26.839844-21.316406 0-25.023438-18.3125-40.210938-24.683594-5.410156-2.269532-11.398437 1.65625-11.398437 7.523437v279.082031c0 16.960938 13.75 30.710938 30.710937 30.710938h248.257813c16.960937 0 30.710937-13.75 30.710937-30.710938v-279.082031c0-5.867187-5.988281-9.792969-11.398437-7.523437zm0 0" fill="#ff940c"/><path d="m337.542969 194.683594c-9.3125 3.90625-14.3125 12.296875-21.695313 18.210937v235.300781c0 16.960938-13.75 30.710938-30.710937 30.710938h-245.875v2.382812c0 16.960938 13.75 30.710938 30.707031 30.710938h248.261719c16.960937 0 30.710937-13.75 30.710937-30.710938v-279.082031c0-5.867187-5.988281-9.792969-11.398437-7.523437zm0 0" fill="#e8870b"/><g fill="#401801"><path d="m67.484375 60.753906c-22.320313.816406-41.664063 9.148438-57.53125 24.730469l6.273437 14.320313c1.535157-.289063 3.003907-1.015626 4.1875-2.207032 13.257813-13.355468 28.847657-20.183594 47.652344-20.871094 4.414063-.160156 7.855469-3.867187 7.695313-8.277343-.160157-4.410157-3.847657-7.855469-8.277344-7.695313zm0 0"/><path d="m84.566406 99.765625c-22.320312.816406-41.664062 9.148437-57.527344 24.730469l6.273438 14.320312c1.535156-.289062 3-1.015625 4.183594-2.207031 13.261718-13.355469 28.847656-20.183594 47.65625-20.871094 4.410156-.160156 7.855468-3.867187 7.695312-8.277343-.164062-4.414063-3.867187-7.863282-8.28125-7.695313zm0 0"/><path d="m109.929688 146.46875c-.160157-4.410156-3.855469-7.847656-8.277344-7.691406-22.320313.816406-41.664063 9.144531-57.53125 24.730468l6.273437 14.320313c1.535157-.289063 3.003907-1.015625 4.1875-2.207031 13.257813-13.355469 28.847657-20.183594 47.652344-20.871094 4.410156-.164062 7.859375-3.867188 7.695313-8.28125zm0 0"/></g><path d="m281.277344 142.457031c-.40625-1.324219-9.621094-32.738281 14.703125-55.417969 3.230469-3.007812 8.285156-2.832031 11.296875.398438 3.007812 3.226562 2.832031 8.285156-.398438 11.292969-17.105468 15.949219-10.382812 38.835937-10.316406 39.066406 1.289062 4.21875-1.089844 8.6875-5.3125 9.972656-4.203125 1.285157-8.679688-1.078125-9.972656-5.3125zm0 0" fill="#8c5627"/></svg>